# Blender 4.0.1
# www.blender.org
mtllib cactus_7.mtl
o cactus3
v -20.818464 1.119156 -6.766617
v -20.721977 1.119156 -6.922376
v -20.763889 1.119156 -7.100739
v -20.919647 1.119156 -7.197226
v -21.098011 1.119156 -7.155314
v -21.194498 1.119156 -6.999556
v -21.152586 1.119156 -6.821192
v -20.996828 1.119156 -6.724706
v -20.818464 1.387401 -6.766617
v -20.721977 1.387401 -6.922376
v -20.763889 1.387401 -7.100739
v -20.919647 1.387401 -7.197226
v -21.098011 1.387401 -7.155314
v -21.194498 1.387401 -6.999556
v -21.152586 1.387401 -6.821192
v -20.996828 1.387401 -6.724706
v -20.888565 1.598447 -6.864091
v -20.840471 1.598447 -6.941730
v -20.861362 1.598447 -7.030637
v -20.939001 1.598447 -7.078732
v -21.027908 1.598447 -7.057840
v -21.076004 1.598447 -6.980202
v -21.055113 1.598447 -6.891294
v -20.977472 1.598447 -6.843200
v -20.818464 0.841193 -6.766617
v -20.723595 0.925831 -6.921212
v -20.773132 0.960889 -7.094092
v -20.921265 0.925831 -7.196063
v -21.098011 0.841193 -7.155314
v -21.197918 0.756556 -6.997096
v -21.148380 0.721498 -6.824216
v -21.000248 0.756556 -6.722245
v -20.658918 0.501936 -6.881361
v -20.564049 0.586573 -7.035956
v -20.613586 0.621631 -7.208835
v -20.761719 0.586573 -7.310806
v -20.938465 0.501936 -7.270058
v -21.038374 0.417298 -7.111839
v -20.988836 0.382240 -6.938960
v -20.840704 0.417298 -6.836988
v -19.924282 0.276646 -7.409704
v -19.957333 0.463870 -7.472301
v -20.056358 0.533985 -7.609589
v -20.155003 0.463870 -7.747151
v -20.203829 0.276646 -7.798401
v -20.173283 0.084037 -7.734004
v -20.074259 0.013922 -7.596715
v -19.975613 0.084037 -7.459153
v -19.677580 -0.584821 -7.296064
v -19.521696 -0.584821 -7.486676
v -19.482002 -0.584821 -7.729691
v -19.569134 -0.584821 -7.959996
v -19.759745 -0.584821 -8.115879
v -20.002760 -0.584821 -8.155573
v -20.233065 -0.584821 -8.068441
v -20.388948 -0.584821 -7.877830
v -20.428642 -0.584821 -7.634815
v -20.341511 -0.584821 -7.404510
v -20.150900 -0.584821 -7.248626
v -19.907885 -0.584821 -7.208932
v -19.677580 2.391170 -7.296064
v -19.521696 2.391170 -7.486676
v -19.482002 2.391170 -7.729691
v -19.569134 2.391170 -7.959996
v -19.759745 2.391170 -8.115879
v -20.002760 2.391170 -8.155573
v -20.233065 2.391170 -8.068441
v -20.388948 2.391170 -7.877830
v -20.428642 2.391170 -7.634815
v -20.341511 2.391170 -7.404510
v -20.150900 2.391170 -7.248626
v -19.907885 2.391170 -7.208932
v -19.722597 2.721868 -7.358659
v -19.591978 2.721868 -7.518375
v -19.558718 2.721868 -7.722003
v -19.631727 2.721868 -7.914979
v -19.791445 2.721868 -8.045596
v -19.995071 2.721868 -8.078856
v -20.188047 2.721868 -8.005847
v -20.318666 2.721868 -7.846131
v -20.351927 2.721868 -7.642503
v -20.278917 2.721868 -7.449527
v -20.119200 2.721868 -7.318909
v -19.915573 2.721868 -7.285649
v -19.837851 3.035811 -7.518913
v -19.771919 3.035811 -7.599533
v -19.755131 3.035811 -7.702317
v -19.791983 3.035811 -7.799725
v -19.872602 3.035811 -7.865656
v -19.975386 3.035811 -7.882445
v -20.072794 3.035811 -7.845592
v -20.138725 3.035811 -7.764973
v -20.155514 3.035811 -7.662189
v -20.118662 3.035811 -7.564781
v -20.038042 3.035811 -7.498849
v -19.935259 3.035811 -7.482061
v -19.458384 2.741831 -8.965523
v -19.483648 2.741831 -8.784051
v -19.373196 2.741831 -8.637865
v -19.191723 2.741831 -8.612599
v -19.045538 2.741831 -8.723053
v -19.020271 2.741831 -8.904525
v -19.130726 2.741831 -9.050711
v -19.312197 2.741831 -9.075976
v -19.458384 3.010077 -8.965523
v -19.483648 3.010077 -8.784051
v -19.373196 3.010077 -8.637865
v -19.191723 3.010077 -8.612599
v -19.045538 3.010077 -8.723053
v -19.020271 3.010077 -8.904525
v -19.130726 3.010077 -9.050711
v -19.312197 3.010077 -9.075976
v -19.354853 3.221122 -8.904718
v -19.367447 3.221122 -8.814262
v -19.312391 3.221122 -8.741395
v -19.221935 3.221122 -8.728801
v -19.149067 3.221122 -8.783857
v -19.136473 3.221122 -8.874313
v -19.191530 3.221122 -8.947181
v -19.281986 3.221122 -8.959775
v -19.458384 2.463869 -8.965523
v -19.482639 2.548506 -8.785769
v -19.367430 2.583564 -8.647683
v -19.190714 2.548506 -8.614317
v -19.045538 2.463869 -8.723053
v -19.018137 2.379231 -8.908158
v -19.133348 2.344173 -9.046244
v -19.310062 2.379231 -9.079610
v -19.557907 2.124611 -8.796066
v -19.582165 2.209248 -8.616312
v -19.466953 2.244306 -8.478227
v -19.290239 2.209248 -8.444860
v -19.145061 2.124611 -8.553596
v -19.117662 2.039973 -8.738702
v -19.232874 2.004915 -8.876787
v -19.409588 2.039973 -8.910153
v -20.016174 1.899321 -8.015790
v -19.960634 2.086545 -7.971903
v -19.814552 2.156661 -7.886379
v -19.668709 2.086545 -7.800451
v -19.603329 1.899321 -7.773321
v -19.657305 1.706713 -7.819869
v -19.803387 1.636597 -7.905392
v -19.949230 1.706713 -7.991320
vn 0.5851 0.0002 0.8109
vn 0.5666 0.2415 0.7878
vn -0.1564 0.2415 0.9577
vn -0.1651 0.0004 0.9863
vn -0.8118 -0.0006 0.5839
vn -0.7878 0.2415 0.5666
vn -0.9577 0.2415 -0.1564
vn -0.9876 0.0004 -0.1573
vn -0.5826 0.0002 -0.8128
vn -0.5666 0.2415 -0.7878
vn 0.1564 0.2415 -0.9577
vn 0.1694 -0.0101 -0.9855
vn 0.8117 -0.0190 -0.5838
vn 0.7878 0.2415 -0.5666
vn 0.9577 0.2415 0.1564
vn 0.9882 -0.0101 0.1530
vn 0.4748 0.8111 -0.3415
vn 0.5772 0.8111 0.0943
vn -0.0943 0.8111 0.5772
vn -0.4748 0.8111 0.3415
vn -0.5772 0.8111 -0.0943
vn -0.3415 0.8111 -0.4748
vn 0.0943 0.8111 -0.5772
vn 0.3415 0.8111 0.4748
vn -0.1686 -0.1830 0.9685
vn 0.5352 -0.0019 0.8447
vn -0.9719 -0.1830 -0.1483
vn -0.7805 -0.2753 0.5613
vn 0.0805 0.1614 -0.9836
vn -0.6305 -0.0019 -0.7762
vn 0.9581 0.1614 0.2366
vn 0.7917 0.2215 -0.5694
vn 0.4216 0.8546 -0.3032
vn -0.1659 0.5312 -0.8309
vn 0.5606 -0.0980 0.8223
vn 0.7349 0.5312 0.4216
vn 0.0245 -0.5764 0.8168
vn -0.7665 -0.5764 -0.2831
vn -0.5281 -0.7595 0.3798
vn -0.6012 -0.0980 -0.7931
vn -0.2475 -0.9524 0.1780
vn 0.1906 -0.7318 0.6544
vn -0.6035 -0.0361 -0.7966
vn -0.5597 -0.7318 -0.3889
vn 0.1179 0.9894 -0.0848
vn -0.3009 0.7202 -0.6251
vn 0.5632 -0.0361 0.8256
vn 0.4969 0.7202 0.4841
vn -0.5839 -0.0000 -0.8118
vn -0.5802 0.1122 -0.8067
vn -0.0991 0.1122 -0.9887
vn -0.0997 -0.0000 -0.9950
vn 0.8118 -0.0000 -0.5839
vn 0.8067 0.1122 -0.5802
vn 0.9887 0.1122 -0.0991
vn 0.9950 -0.0000 -0.0997
vn -0.4111 -0.0000 0.9116
vn -0.4085 0.1122 0.9058
vn -0.8067 0.1122 0.5802
vn -0.8118 -0.0000 0.5839
vn -0.9116 -0.0000 -0.4111
vn -0.9058 0.1122 -0.4085
vn 0.4111 -0.0000 -0.9116
vn 0.4085 0.1122 -0.9058
vn 0.0997 -0.0000 0.9950
vn 0.0991 0.1122 0.9887
vn 0.9116 -0.0000 0.4111
vn 0.9058 0.1122 0.4085
vn 0.5802 0.1122 0.8067
vn 0.5839 -0.0000 0.8118
vn -0.9950 -0.0000 0.0997
vn -0.9887 0.1122 0.0991
vn 0.3810 0.3756 -0.8448
vn 0.7524 0.3756 -0.5411
vn 0.0924 0.3756 0.9222
vn -0.3810 0.3756 0.8448
vn 0.8448 0.3756 0.3810
vn 0.5411 0.3756 0.7524
vn -0.9222 0.3756 0.0924
vn -0.8448 0.3756 -0.3810
vn -0.0924 0.3756 -0.9222
vn 0.9222 0.3756 -0.0924
vn -0.7524 0.3756 0.5411
vn -0.5411 0.3756 -0.7524
vn 0.2222 0.8413 -0.4927
vn 0.4388 0.8413 -0.3156
vn 0.0539 0.8413 0.5378
vn -0.2222 0.8413 0.4927
vn 0.4927 0.8413 0.2222
vn 0.3156 0.8413 0.4388
vn -0.5378 0.8413 0.0539
vn -0.4927 0.8413 -0.2222
vn -0.0539 0.8413 -0.5378
vn 0.5378 0.8413 -0.0539
vn -0.4388 0.8413 0.3156
vn -0.3156 0.8413 -0.4388
vn -0.8631 0.0002 -0.5051
vn -0.8367 0.2415 -0.4914
vn -0.2442 0.2415 -0.9392
vn -0.2478 0.0004 -0.9688
vn 0.5064 -0.0006 -0.8623
vn 0.4914 0.2415 -0.8367
vn 0.9392 0.2415 -0.2442
vn 0.9668 0.0004 -0.2555
vn 0.8615 0.0002 0.5078
vn 0.8367 0.2415 0.4914
vn 0.2442 0.2415 0.9392
vn 0.2436 -0.0101 0.9698
vn -0.5063 -0.0190 0.8621
vn -0.4914 0.2415 0.8367
vn -0.9392 0.2415 0.2442
vn -0.9657 -0.0101 0.2596
vn -0.2962 0.8111 0.5043
vn -0.5660 0.8111 0.1472
vn -0.1472 0.8111 -0.5660
vn 0.2962 0.8111 -0.5043
vn 0.5660 0.8111 -0.1472
vn 0.5043 0.8111 0.2962
vn 0.1472 0.8111 0.5660
vn -0.5043 0.8111 -0.2962
vn -0.2374 -0.1830 -0.9540
vn -0.8311 -0.0019 -0.5562
vn 0.9488 -0.1830 -0.2573
vn 0.4869 -0.2753 -0.8290
vn 0.3241 0.1614 0.9322
vn 0.8905 -0.0019 0.4549
vn -0.9720 0.1614 0.1710
vn -0.4939 0.2215 0.8409
vn -0.2630 0.8546 0.4478
vn 0.4877 0.5312 0.6929
vn -0.8452 -0.0980 -0.5254
vn -0.8426 0.5312 -0.0885
vn -0.3527 -0.5764 -0.7371
vn 0.8155 -0.5764 -0.0510
vn 0.3295 -0.7595 -0.5609
vn 0.8705 -0.0980 0.4823
vn 0.1544 -0.9524 -0.2628
vn -0.4389 -0.7318 -0.5214
vn 0.8740 -0.0361 0.4845
vn 0.6692 -0.7318 0.1294
vn -0.0735 0.9894 0.1252
vn 0.5279 0.7202 0.4501
vn -0.8489 -0.0361 -0.5274
vn -0.6502 0.7202 -0.2419
vt 0.796583 0.604396
vt 0.841371 0.557507
vt 0.809522 0.525402
vt 0.764733 0.572291
vt 0.812020 0.066347
vt 0.767273 0.017890
vt 0.742415 0.034099
vt 0.787162 0.082556
vt 0.753470 0.112903
vt 0.708722 0.064446
vt 0.685931 0.091153
vt 0.730679 0.139610
vt 0.951064 0.124774
vt 0.956971 0.060204
vt 0.911642 0.056114
vt 0.905735 0.120684
vt 0.794786 0.499956
vt 0.749997 0.546845
vt 0.994067 0.120480
vt 1.000000 0.055912
vt 0.967443 0.060409
vt 0.961509 0.124977
vt 0.826889 0.624353
vt 0.871677 0.577464
vt 0.950683 0.002039
vt 0.928088 -0.000000
vt 0.859413 0.494213
vt 0.852067 0.481529
vt 0.699645 0.008080
vt 0.682851 0.023206
vt 0.977406 -0.000000
vt 0.961178 0.002242
vt 0.890394 0.520164
vt 0.875288 0.510216
vt 0.712035 -0.000000
vt 0.036310 0.898427
vt 0.000000 0.909693
vt 0.000000 0.932379
vt 0.036310 0.943941
vt 0.631266 0.952942
vt 0.653602 0.952929
vt 0.669396 0.936879
vt 0.669396 0.914192
vt 0.653602 0.898159
vt 0.631266 0.898172
vt 0.615472 0.914222
vt 0.615472 0.936909
vt 0.703416 0.635025
vt 0.750171 0.652983
vt 0.848352 0.147348
vt 0.877491 0.139054
vt 0.763260 0.174198
vt 0.799838 0.163115
vt 0.901297 0.167098
vt 0.946542 0.162173
vt 0.684552 0.617152
vt 0.956971 0.162374
vt 0.989609 0.166892
vt 0.794243 0.657839
vt 0.967363 0.256095
vt 1.000000 0.260613
vt 0.729605 0.742505
vt 0.773678 0.747362
vt 0.682851 0.724547
vt 0.872158 0.241751
vt 0.901297 0.233458
vt 0.787066 0.268601
vt 0.823644 0.257519
vt 0.911726 0.260815
vt 0.956971 0.255890
vt 0.942297 0.481529
vt 0.925049 0.554879
vt 0.969620 0.563932
vt 0.986868 0.490583
vt 0.942108 0.848797
vt 0.986868 0.840732
vt 0.710253 0.450713
vt 0.749969 0.481530
vt 0.902287 0.274605
vt 0.901296 0.446224
vt 0.945565 0.448171
vt 0.945565 0.260815
vt 0.858121 0.921040
vt 0.890394 0.883734
vt 0.822840 0.946665
vt 0.890394 0.568694
vt 0.907642 0.845494
vt 0.682851 0.416710
vt 0.945565 0.260815
vt 0.945565 0.448171
vt 0.984294 0.447451
vt 0.985284 0.275833
vt 0.114139 0.898427
vt 0.114139 0.171956
vt 0.052972 0.171956
vt 0.052972 0.898427
vt 0.281250 0.898427
vt 0.281250 0.171956
vt 0.220083 0.171956
vt 0.220083 0.898427
vt 0.615472 0.892763
vt 0.615472 0.166293
vt 0.562500 0.171956
vt 0.562500 0.898427
vt 0.167111 0.892763
vt 0.167111 0.166293
vt 0.334222 0.892763
vt 0.334222 0.166293
vt 0.387194 0.898427
vt 0.387194 0.171956
vt 0.334222 0.166293
vt 0.334222 0.892763
vt 0.501333 0.892763
vt 0.501333 0.166293
vt 0.448361 0.171956
vt 0.448361 0.898427
vt 0.682851 0.898159
vt 0.668545 0.171829
vt 0.615472 0.167210
vt 0.629777 0.893540
vt 0.000000 0.166293
vt 0.000000 0.892763
vt 0.501333 0.171956
vt 0.501333 0.898427
vt 0.320679 0.083058
vt 0.276293 0.087804
vt 0.392151 0.087804
vt 0.347765 0.083058
vt 0.487790 0.083058
vt 0.443404 0.087804
vt 0.671844 0.087595
vt 0.627373 0.083724
vt 0.057929 0.087804
vt 0.013543 0.083058
vt 0.225040 0.087804
vt 0.180654 0.083058
vt 0.557543 0.087804
vt 0.506290 0.087804
vt 0.109182 0.087804
vt 0.601929 0.083058
vt 0.153568 0.083058
vt 0.286006 0.000000
vt 0.263602 0.002395
vt 0.404842 0.002395
vt 0.382437 0.000000
vt 0.453117 0.000000
vt 0.430713 0.002395
vt 0.682851 0.001954
vt 0.660403 -0.000000
vt 0.070620 0.002395
vt 0.048215 0.000000
vt 0.237731 0.002395
vt 0.215326 0.000000
vt 0.544851 0.002395
vt 0.518981 0.002395
vt 0.096491 0.002395
vt 0.567256 0.000000
vt 0.118895 0.000000
vt 0.925734 0.945348
vt 0.951605 0.945348
vt 0.974010 0.932412
vt 0.986945 0.910008
vt 0.986945 0.884137
vt 0.974010 0.861732
vt 0.951605 0.848797
vt 0.925734 0.848797
vt 0.903330 0.861732
vt 0.890394 0.884137
vt 0.890394 0.910008
vt 0.903330 0.932412
s 1
usemtl cactus
f 1/1/1 9/2/2 16/3/3 8/4/4
f 7/5/5 15/6/6 14/7/7 6/8/8
f 5/9/9 13/10/10 12/11/11 4/12/12
f 3/13/13 11/14/14 10/15/15 2/16/16
f 8/4/4 16/3/3 15/17/6 7/18/5
f 6/8/8 14/7/7 13/10/10 5/9/9
f 4/19/12 12/20/11 11/21/14 3/22/13
f 2/23/16 10/24/15 9/2/2 1/1/1
f 11/14/14 19/25/17 18/26/18 10/15/15
f 16/3/3 24/27/19 23/28/20 15/17/6
f 14/7/7 22/29/21 21/30/22 13/10/10
f 12/20/11 20/31/23 19/32/17 11/21/14
f 10/24/15 18/33/18 17/34/24 9/2/2
f 9/2/2 17/34/24 24/27/19 16/3/3
f 15/6/6 23/35/20 22/29/21 14/7/7
f 13/36/10 21/37/22 20/38/23 12/39/11
f 18/40/18 19/41/17 20/42/23 21/43/22 22/44/21 23/45/20 24/46/19 17/47/24
f 8/4/4 32/48/25 25/49/26 1/1/1
f 6/8/8 30/50/27 31/51/28 7/5/5
f 4/12/12 28/52/29 29/53/30 5/9/9
f 2/16/16 26/54/31 27/55/32 3/13/13
f 7/18/5 31/56/28 32/48/25 8/4/4
f 5/9/9 29/53/30 30/50/27 6/8/8
f 3/22/13 27/57/32 28/58/29 4/19/12
f 1/1/1 25/49/26 26/59/31 2/23/16
f 27/57/32 35/60/33 36/61/34 28/58/29
f 25/49/26 33/62/35 34/63/36 26/59/31
f 32/48/25 40/64/37 33/62/35 25/49/26
f 30/50/27 38/65/38 39/66/39 31/51/28
f 28/52/29 36/67/34 37/68/40 29/53/30
f 26/54/31 34/69/36 35/70/33 27/55/32
f 31/71/28 39/72/39 40/73/37 32/74/25
f 29/53/30 37/68/40 38/65/38 30/50/27
f 39/72/39 47/75/41 48/76/42 40/73/37
f 37/68/40 45/77/43 46/78/44 38/65/38
f 35/79/33 43/80/45 44/81/46 36/82/34
f 33/62/35 41/83/47 42/84/48 34/63/36
f 40/64/37 48/85/42 41/83/47 33/62/35
f 38/86/38 46/87/44 47/75/41 39/72/39
f 36/67/34 44/88/46 45/77/43 37/68/40
f 34/89/36 42/90/48 43/91/45 35/92/33
f 55/93/49 67/94/50 66/95/51 54/96/52
f 52/97/53 64/98/54 63/99/55 51/100/56
f 59/101/57 71/102/58 70/103/59 58/104/60
f 56/105/61 68/106/62 67/94/50 55/93/49
f 53/107/63 65/108/64 64/98/54 52/97/53
f 60/109/65 72/110/66 71/111/58 59/112/57
f 50/113/67 62/114/68 61/115/69 49/116/70
f 57/117/71 69/118/72 68/119/62 56/120/61
f 54/96/52 66/95/51 65/121/64 53/122/63
f 49/116/70 61/115/69 72/110/66 60/109/65
f 51/100/56 63/99/55 62/106/68 50/105/67
f 58/104/60 70/103/59 69/123/72 57/124/71
f 65/108/64 77/125/73 76/126/74 64/98/54
f 72/110/66 84/127/75 83/128/76 71/111/58
f 62/114/68 74/129/77 73/130/78 61/115/69
f 69/118/72 81/131/79 80/132/80 68/119/62
f 66/95/51 78/133/81 77/134/73 65/121/64
f 61/115/69 73/130/78 84/127/75 72/110/66
f 63/99/55 75/135/82 74/136/77 62/106/68
f 70/103/59 82/137/83 81/138/79 69/123/72
f 67/94/50 79/139/84 78/133/81 66/95/51
f 64/98/54 76/126/74 75/135/82 63/99/55
f 71/102/58 83/140/76 82/137/83 70/103/59
f 68/106/62 80/141/80 79/139/84 67/94/50
f 77/125/73 89/142/85 88/143/86 76/126/74
f 84/127/75 96/144/87 95/145/88 83/128/76
f 74/129/77 86/146/89 85/147/90 73/130/78
f 81/131/79 93/148/91 92/149/92 80/132/80
f 78/133/81 90/150/93 89/151/85 77/134/73
f 73/130/78 85/147/90 96/144/87 84/127/75
f 75/135/82 87/152/94 86/153/89 74/136/77
f 82/137/83 94/154/95 93/155/91 81/138/79
f 79/139/84 91/156/96 90/150/93 78/133/81
f 76/126/74 88/143/86 87/152/94 75/135/82
f 83/140/76 95/157/88 94/154/95 82/137/83
f 80/141/80 92/158/92 91/156/96 79/139/84
f 86/159/89 87/160/94 88/161/86 89/162/85 90/163/93 91/164/96 92/165/92 93/166/91 94/167/95 95/168/88 96/169/87 85/170/90
f 97/1/97 105/2/98 112/3/99 104/4/100
f 103/5/101 111/6/102 110/7/103 102/8/104
f 101/9/105 109/10/106 108/11/107 100/12/108
f 99/13/109 107/14/110 106/15/111 98/16/112
f 104/4/100 112/3/99 111/17/102 103/18/101
f 102/8/104 110/7/103 109/10/106 101/9/105
f 100/19/108 108/20/107 107/21/110 99/22/109
f 98/23/112 106/24/111 105/2/98 97/1/97
f 107/14/110 115/25/113 114/26/114 106/15/111
f 112/3/99 120/27/115 119/28/116 111/17/102
f 110/7/103 118/29/117 117/30/118 109/10/106
f 108/20/107 116/31/119 115/32/113 107/21/110
f 106/24/111 114/33/114 113/34/120 105/2/98
f 105/2/98 113/34/120 120/27/115 112/3/99
f 111/6/102 119/35/116 118/29/117 110/7/103
f 109/36/106 117/37/118 116/38/119 108/39/107
f 114/40/114 115/41/113 116/42/119 117/43/118 118/44/117 119/45/116 120/46/115 113/47/120
f 104/4/100 128/48/121 121/49/122 97/1/97
f 102/8/104 126/50/123 127/51/124 103/5/101
f 100/12/108 124/52/125 125/53/126 101/9/105
f 98/16/112 122/54/127 123/55/128 99/13/109
f 103/18/101 127/56/124 128/48/121 104/4/100
f 101/9/105 125/53/126 126/50/123 102/8/104
f 99/22/109 123/57/128 124/58/125 100/19/108
f 97/1/97 121/49/122 122/59/127 98/23/112
f 123/57/128 131/60/129 132/61/130 124/58/125
f 121/49/122 129/62/131 130/63/132 122/59/127
f 128/48/121 136/64/133 129/62/131 121/49/122
f 126/50/123 134/65/134 135/66/135 127/51/124
f 124/52/125 132/67/130 133/68/136 125/53/126
f 122/54/127 130/69/132 131/70/129 123/55/128
f 127/71/124 135/72/135 136/73/133 128/74/121
f 125/53/126 133/68/136 134/65/134 126/50/123
f 135/72/135 143/75/137 144/76/138 136/73/133
f 133/68/136 141/77/139 142/78/140 134/65/134
f 131/79/129 139/80/141 140/81/142 132/82/130
f 129/62/131 137/83/143 138/84/144 130/63/132
f 136/64/133 144/85/138 137/83/143 129/62/131
f 134/86/134 142/87/140 143/75/137 135/72/135
f 132/67/130 140/88/142 141/77/139 133/68/136
f 130/89/132 138/90/144 139/91/141 131/92/129
