# Blender 4.0.1
# www.blender.org
mtllib cactus_1.mtl
o cactus8
v 30.176682 2.149262 -0.293501
v 30.289877 2.149262 -0.494983
v 30.227449 2.149262 -0.717493
v 30.025967 2.149262 -0.830689
v 29.803457 2.149262 -0.768261
v 29.690262 2.149262 -0.566780
v 29.752689 2.149262 -0.344269
v 29.954170 2.149262 -0.231074
v 30.176682 2.487606 -0.293501
v 30.289877 2.487606 -0.494983
v 30.227449 2.487606 -0.717493
v 30.025967 2.487606 -0.830689
v 29.803457 2.487606 -0.768261
v 29.690262 2.487606 -0.566780
v 29.752689 2.487606 -0.344269
v 29.954170 2.487606 -0.231074
v 30.083088 2.753802 -0.412557
v 30.139511 2.753802 -0.512987
v 30.108393 2.753802 -0.623900
v 30.007963 2.753802 -0.680323
v 29.897051 2.753802 -0.649205
v 29.840628 2.753802 -0.548775
v 29.871744 2.753802 -0.437863
v 29.972176 2.753802 -0.381440
v 30.176682 1.798662 -0.293501
v 30.287901 1.905417 -0.493430
v 30.216158 1.949636 -0.708618
v 30.023993 1.905417 -0.829136
v 29.803457 1.798662 -0.768261
v 29.686083 1.691907 -0.563495
v 29.757826 1.647687 -0.348307
v 29.949991 1.691907 -0.227789
v 30.371552 1.370749 -0.446695
v 30.482771 1.477504 -0.646624
v 30.411030 1.521723 -0.861812
v 30.218863 1.477504 -0.982330
v 29.998327 1.370749 -0.921455
v 29.880953 1.263994 -0.716689
v 29.952696 1.219774 -0.501501
v 30.144863 1.263994 -0.380983
v 31.268847 1.086586 -1.152087
v 31.223824 1.322736 -1.229188
v 31.091637 1.411174 -1.396858
v 30.959915 1.322736 -1.564894
v 30.895622 1.086586 -1.626847
v 30.937586 0.843645 -1.547340
v 31.069773 0.755207 -1.379670
v 31.201494 0.843645 -1.211634
v 31.585857 0.000000 -1.022176
v 31.772024 0.000000 -1.270779
v 31.808950 0.000000 -1.579159
v 31.686737 0.000000 -1.864686
v 31.438135 0.000000 -2.050854
v 31.129755 0.000000 -2.087779
v 30.844227 0.000000 -1.965567
v 30.658060 0.000000 -1.716964
v 30.621134 0.000000 -1.408584
v 30.743347 0.000000 -1.123057
v 30.991949 0.000000 -0.936889
v 31.300329 0.000000 -0.899964
v 31.585857 3.753680 -1.022176
v 31.772024 3.753680 -1.270779
v 31.808950 3.753680 -1.579159
v 31.686737 3.753680 -1.864686
v 31.438135 3.753680 -2.050854
v 31.129755 3.753680 -2.087779
v 30.844227 3.753680 -1.965567
v 30.658060 3.753680 -1.716964
v 30.621134 3.753680 -1.408584
v 30.743347 3.753680 -1.123057
v 30.991949 3.753680 -0.936889
v 31.300329 3.753680 -0.899964
v 31.525755 4.170797 -1.098630
v 31.681747 4.170797 -1.306938
v 31.712688 4.170797 -1.565335
v 31.610285 4.170797 -1.804584
v 31.401976 4.170797 -1.960577
v 31.143578 4.170797 -1.991518
v 30.904329 4.170797 -1.889114
v 30.748337 4.170797 -1.680805
v 30.717396 4.170797 -1.422408
v 30.819799 4.170797 -1.183159
v 31.028109 4.170797 -1.027166
v 31.286507 4.170797 -0.996226
v 31.371880 4.566780 -1.294367
v 31.450619 4.566780 -1.399514
v 31.466236 4.566780 -1.529944
v 31.414547 4.566780 -1.650709
v 31.309401 4.566780 -1.729449
v 31.178970 4.566780 -1.745067
v 31.058205 4.566780 -1.693377
v 30.979465 4.566780 -1.588229
v 30.963848 4.566780 -1.457799
v 31.015537 4.566780 -1.337035
v 31.120684 4.566780 -1.258294
v 31.251114 4.566780 -1.242677
v 31.772116 4.195976 -3.137789
v 31.750055 4.195976 -2.907742
v 31.897123 4.195976 -2.729476
v 32.127171 4.195976 -2.707416
v 32.305435 4.195976 -2.854485
v 32.327496 4.195976 -3.084531
v 32.180428 4.195976 -3.262797
v 31.950382 4.195976 -3.284858
v 31.772116 4.534320 -3.137789
v 31.750055 4.534320 -2.907742
v 31.897123 4.534320 -2.729476
v 32.127171 4.534320 -2.707416
v 32.305435 4.534320 -2.854485
v 32.327496 4.534320 -3.084531
v 32.180428 4.534320 -3.262797
v 31.950382 4.534320 -3.284858
v 31.905857 4.800516 -3.066744
v 31.894861 4.800516 -2.952076
v 31.968168 4.800516 -2.863217
v 32.082836 4.800516 -2.852221
v 32.171696 4.800516 -2.925529
v 32.182690 4.800516 -3.040197
v 32.109383 4.800516 -3.129056
v 31.994715 4.800516 -3.140052
v 31.772116 3.845377 -3.137789
v 31.751234 3.952132 -2.909961
v 31.903862 3.996351 -2.742159
v 32.128349 3.952132 -2.709635
v 32.305435 3.845377 -2.854485
v 32.329990 3.738621 -3.089225
v 32.177364 3.694402 -3.257027
v 31.952875 3.738621 -3.289551
v 31.655830 3.417464 -2.918881
v 31.634949 3.524218 -2.691054
v 31.787575 3.568438 -2.523251
v 32.012062 3.524218 -2.490727
v 32.189152 3.417464 -2.635577
v 32.213703 3.310708 -2.870317
v 32.061077 3.266489 -3.038120
v 31.836590 3.310708 -3.070644
v 31.120386 3.133301 -1.910906
v 31.192739 3.369450 -1.858593
v 31.381435 3.457888 -1.758691
v 31.569855 3.369450 -1.658267
v 31.653708 3.133301 -1.627602
v 31.583179 2.890360 -1.683351
v 31.394482 2.801921 -1.783252
v 31.206064 2.890360 -1.883677
vn 0.6193 0.0002 0.7852
vn 0.5997 0.2415 0.7629
vn -0.1154 0.2415 0.9635
vn -0.1228 0.0004 0.9924
vn -0.7862 -0.0006 0.6180
vn -0.7629 0.2415 0.5997
vn -0.9635 0.2415 -0.1154
vn -0.9934 0.0004 -0.1150
vn -0.6168 0.0002 -0.7871
vn -0.5997 0.2415 -0.7629
vn 0.1154 0.2415 -0.9635
vn 0.1271 -0.0101 -0.9918
vn 0.7860 -0.0190 -0.6179
vn 0.7629 0.2415 -0.5997
vn 0.9635 0.2415 0.1154
vn 0.9938 -0.0101 0.1107
vn 0.4598 0.8111 -0.3615
vn 0.5807 0.8111 0.0695
vn -0.0695 0.8111 0.5807
vn -0.4598 0.8111 0.3615
vn -0.5807 0.8111 -0.0695
vn -0.3615 0.8111 -0.4598
vn 0.0695 0.8111 -0.5807
vn 0.3615 0.8111 0.4598
vn -0.1271 -0.1830 0.9749
vn 0.5708 -0.0019 0.8211
vn -0.9773 -0.1830 -0.1067
vn -0.7558 -0.2753 0.5941
vn 0.0384 0.1614 -0.9861
vn -0.6631 -0.0019 -0.7485
vn 0.9673 0.1614 0.1955
vn 0.7666 0.2215 -0.6027
vn 0.4082 0.8546 -0.3209
vn -0.2012 0.5312 -0.8230
vn 0.5952 -0.0980 0.7976
vn 0.7523 0.5312 0.3898
vn 0.0594 -0.5764 0.8150
vn -0.7779 -0.5764 -0.2501
vn -0.5114 -0.7595 0.4020
vn -0.6345 -0.0980 -0.7667
vn -0.2396 -0.9524 0.1884
vn 0.2184 -0.7318 0.6456
vn -0.6370 -0.0361 -0.7701
vn -0.5758 -0.7318 -0.3646
vn 0.1141 0.9894 -0.0897
vn -0.3273 0.7202 -0.6117
vn 0.5979 -0.0361 0.8008
vn 0.5171 0.7202 0.4625
vn -0.6180 -0.0000 -0.7862
vn -0.6141 0.1122 -0.7812
vn -0.1412 0.1122 -0.9836
vn -0.1421 -0.0000 -0.9898
vn 0.7862 -0.0000 -0.6180
vn 0.7812 0.1122 -0.6141
vn 0.9836 0.1122 -0.1412
vn 0.9898 -0.0000 -0.1421
vn -0.3718 -0.0000 0.9283
vn -0.3695 0.1122 0.9224
vn -0.7812 0.1122 0.6141
vn -0.7862 -0.0000 0.6180
vn -0.9283 -0.0000 -0.3718
vn -0.9224 0.1122 -0.3695
vn 0.3718 -0.0000 -0.9283
vn 0.3695 0.1122 -0.9224
vn 0.1421 -0.0000 0.9898
vn 0.1412 0.1122 0.9836
vn 0.9283 -0.0000 0.3718
vn 0.9224 0.1122 0.3695
vn 0.6141 0.1122 0.7812
vn 0.6180 -0.0000 0.7862
vn -0.9898 -0.0000 0.1421
vn -0.9836 0.1122 0.1412
vn 0.3446 0.3756 -0.8603
vn 0.7286 0.3756 -0.5728
vn 0.1317 0.3756 0.9174
vn -0.3446 0.3756 0.8603
vn 0.8603 0.3756 0.3446
vn 0.5728 0.3756 0.7286
vn -0.9174 0.3756 0.1317
vn -0.8603 0.3756 -0.3446
vn -0.1317 0.3756 -0.9174
vn 0.9174 0.3756 -0.1317
vn -0.7286 0.3756 0.5728
vn -0.5728 0.3756 -0.7286
vn 0.2010 0.8413 -0.5018
vn 0.4249 0.8413 -0.3341
vn 0.0768 0.8413 0.5350
vn -0.2010 0.8413 0.5018
vn 0.5018 0.8413 0.2010
vn 0.3341 0.8413 0.4249
vn -0.5350 0.8413 0.0768
vn -0.5018 0.8413 -0.2010
vn -0.0768 0.8413 -0.5350
vn 0.5350 0.8413 -0.0768
vn -0.4249 0.8413 0.3341
vn -0.3341 0.8413 -0.4249
vn -0.8839 0.0002 -0.4677
vn -0.8570 0.2415 -0.4552
vn -0.2841 0.2415 -0.9279
vn -0.2890 0.0004 -0.9573
vn 0.4691 -0.0006 -0.8831
vn 0.4552 0.2415 -0.8570
vn 0.9279 0.2415 -0.2841
vn 0.9550 0.0004 -0.2965
vn 0.8824 0.0002 0.4705
vn 0.8570 0.2415 0.4552
vn 0.2841 0.2415 0.9279
vn 0.2848 -0.0101 0.9585
vn -0.4690 -0.0190 0.8830
vn -0.4552 0.2415 0.8570
vn -0.9279 0.2415 0.2841
vn -0.9537 -0.0101 0.3006
vn -0.2744 0.8111 0.5165
vn -0.5592 0.8111 0.1712
vn -0.1712 0.8111 -0.5592
vn 0.2744 0.8111 -0.5165
vn 0.5592 0.8111 -0.1712
vn 0.5165 0.8111 0.2744
vn 0.1712 0.8111 0.5592
vn -0.5165 0.8111 -0.2744
vn -0.2780 -0.1830 -0.9430
vn -0.8541 -0.0019 -0.5202
vn 0.9370 -0.1830 -0.2976
vn 0.4510 -0.2753 -0.8490
vn 0.3636 0.1614 0.9175
vn 0.9091 -0.0019 0.4165
vn -0.9638 0.1614 0.2123
vn -0.4575 0.2215 0.8612
vn -0.2436 0.8546 0.4586
vn 0.5168 0.5312 0.6714
vn -0.8669 -0.0980 -0.4888
vn -0.8457 0.5312 -0.0524
vn -0.3838 -0.5764 -0.7214
vn 0.8126 -0.5764 -0.0858
vn 0.3052 -0.7595 -0.5745
vn 0.8903 -0.0980 0.4446
vn 0.1430 -0.9524 -0.2692
vn -0.4608 -0.7318 -0.5022
vn 0.8939 -0.0361 0.4467
vn 0.6741 -0.7318 0.1007
vn -0.0681 0.9894 0.1282
vn 0.5467 0.7202 0.4271
vn -0.8706 -0.0361 -0.4906
vn -0.6600 0.7202 -0.2139
vt 0.796583 0.604396
vt 0.841371 0.557507
vt 0.809522 0.525402
vt 0.764733 0.572291
vt 0.812020 0.066347
vt 0.767273 0.017890
vt 0.742415 0.034099
vt 0.787162 0.082556
vt 0.753470 0.112903
vt 0.708722 0.064446
vt 0.685931 0.091153
vt 0.730679 0.139610
vt 0.951064 0.124774
vt 0.956971 0.060204
vt 0.911642 0.056114
vt 0.905735 0.120684
vt 0.794786 0.499956
vt 0.749997 0.546845
vt 0.994067 0.120480
vt 1.000000 0.055912
vt 0.967443 0.060409
vt 0.961509 0.124977
vt 0.826889 0.624353
vt 0.871677 0.577464
vt 0.950683 0.002039
vt 0.928088 -0.000000
vt 0.859413 0.494213
vt 0.852067 0.481529
vt 0.699645 0.008080
vt 0.682851 0.023206
vt 0.977406 -0.000000
vt 0.961178 0.002242
vt 0.890394 0.520164
vt 0.875288 0.510216
vt 0.712035 -0.000000
vt 0.036310 0.898427
vt 0.000000 0.909693
vt 0.000000 0.932379
vt 0.036310 0.943941
vt 0.631266 0.952942
vt 0.653602 0.952929
vt 0.669396 0.936879
vt 0.669396 0.914192
vt 0.653602 0.898159
vt 0.631266 0.898172
vt 0.615472 0.914222
vt 0.615472 0.936909
vt 0.703416 0.635025
vt 0.750171 0.652983
vt 0.848352 0.147348
vt 0.877491 0.139054
vt 0.763260 0.174198
vt 0.799838 0.163115
vt 0.901297 0.167098
vt 0.946542 0.162173
vt 0.684552 0.617152
vt 0.956971 0.162374
vt 0.989609 0.166892
vt 0.794243 0.657839
vt 0.967363 0.256095
vt 1.000000 0.260613
vt 0.729605 0.742505
vt 0.773678 0.747362
vt 0.682851 0.724547
vt 0.872158 0.241751
vt 0.901297 0.233458
vt 0.787066 0.268601
vt 0.823644 0.257519
vt 0.911726 0.260815
vt 0.956971 0.255890
vt 0.942297 0.481529
vt 0.925049 0.554879
vt 0.969620 0.563932
vt 0.986868 0.490583
vt 0.942108 0.848797
vt 0.986868 0.840732
vt 0.710253 0.450713
vt 0.749969 0.481530
vt 0.902287 0.274605
vt 0.901296 0.446224
vt 0.945565 0.448171
vt 0.945565 0.260815
vt 0.858121 0.921040
vt 0.890394 0.883734
vt 0.822840 0.946665
vt 0.890394 0.568694
vt 0.907642 0.845494
vt 0.682851 0.416710
vt 0.945565 0.260815
vt 0.945565 0.448171
vt 0.984294 0.447451
vt 0.985284 0.275833
vt 0.114139 0.898427
vt 0.114139 0.171956
vt 0.052972 0.171956
vt 0.052972 0.898427
vt 0.281250 0.898427
vt 0.281250 0.171956
vt 0.220083 0.171956
vt 0.220083 0.898427
vt 0.615472 0.892763
vt 0.615472 0.166293
vt 0.562500 0.171956
vt 0.562500 0.898427
vt 0.167111 0.892763
vt 0.167111 0.166293
vt 0.334222 0.892763
vt 0.334222 0.166293
vt 0.387194 0.898427
vt 0.387194 0.171956
vt 0.334222 0.166293
vt 0.334222 0.892763
vt 0.501333 0.892763
vt 0.501333 0.166293
vt 0.448361 0.171956
vt 0.448361 0.898427
vt 0.682851 0.898159
vt 0.668545 0.171829
vt 0.615472 0.167210
vt 0.629777 0.893540
vt 0.000000 0.166293
vt 0.000000 0.892763
vt 0.501333 0.171956
vt 0.501333 0.898427
vt 0.320679 0.083058
vt 0.276293 0.087804
vt 0.392151 0.087804
vt 0.347765 0.083058
vt 0.487790 0.083058
vt 0.443404 0.087804
vt 0.671844 0.087595
vt 0.627373 0.083724
vt 0.057929 0.087804
vt 0.013543 0.083058
vt 0.225040 0.087804
vt 0.180654 0.083058
vt 0.557543 0.087804
vt 0.506290 0.087804
vt 0.109182 0.087804
vt 0.601929 0.083058
vt 0.153568 0.083058
vt 0.286006 0.000000
vt 0.263602 0.002395
vt 0.404842 0.002395
vt 0.382437 0.000000
vt 0.453117 0.000000
vt 0.430713 0.002395
vt 0.682851 0.001954
vt 0.660403 -0.000000
vt 0.070620 0.002395
vt 0.048215 0.000000
vt 0.237731 0.002395
vt 0.215326 0.000000
vt 0.544851 0.002395
vt 0.518981 0.002395
vt 0.096491 0.002395
vt 0.567256 0.000000
vt 0.118895 0.000000
vt 0.925734 0.945348
vt 0.951605 0.945348
vt 0.974010 0.932412
vt 0.986945 0.910008
vt 0.986945 0.884137
vt 0.974010 0.861732
vt 0.951605 0.848797
vt 0.925734 0.848797
vt 0.903330 0.861732
vt 0.890394 0.884137
vt 0.890394 0.910008
vt 0.903330 0.932412
s 1
usemtl cactus
f 1/1/1 9/2/2 16/3/3 8/4/4
f 7/5/5 15/6/6 14/7/7 6/8/8
f 5/9/9 13/10/10 12/11/11 4/12/12
f 3/13/13 11/14/14 10/15/15 2/16/16
f 8/4/4 16/3/3 15/17/6 7/18/5
f 6/8/8 14/7/7 13/10/10 5/9/9
f 4/19/12 12/20/11 11/21/14 3/22/13
f 2/23/16 10/24/15 9/2/2 1/1/1
f 11/14/14 19/25/17 18/26/18 10/15/15
f 16/3/3 24/27/19 23/28/20 15/17/6
f 14/7/7 22/29/21 21/30/22 13/10/10
f 12/20/11 20/31/23 19/32/17 11/21/14
f 10/24/15 18/33/18 17/34/24 9/2/2
f 9/2/2 17/34/24 24/27/19 16/3/3
f 15/6/6 23/35/20 22/29/21 14/7/7
f 13/36/10 21/37/22 20/38/23 12/39/11
f 18/40/18 19/41/17 20/42/23 21/43/22 22/44/21 23/45/20 24/46/19 17/47/24
f 8/4/4 32/48/25 25/49/26 1/1/1
f 6/8/8 30/50/27 31/51/28 7/5/5
f 4/12/12 28/52/29 29/53/30 5/9/9
f 2/16/16 26/54/31 27/55/32 3/13/13
f 7/18/5 31/56/28 32/48/25 8/4/4
f 5/9/9 29/53/30 30/50/27 6/8/8
f 3/22/13 27/57/32 28/58/29 4/19/12
f 1/1/1 25/49/26 26/59/31 2/23/16
f 27/57/32 35/60/33 36/61/34 28/58/29
f 25/49/26 33/62/35 34/63/36 26/59/31
f 32/48/25 40/64/37 33/62/35 25/49/26
f 30/50/27 38/65/38 39/66/39 31/51/28
f 28/52/29 36/67/34 37/68/40 29/53/30
f 26/54/31 34/69/36 35/70/33 27/55/32
f 31/71/28 39/72/39 40/73/37 32/74/25
f 29/53/30 37/68/40 38/65/38 30/50/27
f 39/72/39 47/75/41 48/76/42 40/73/37
f 37/68/40 45/77/43 46/78/44 38/65/38
f 35/79/33 43/80/45 44/81/46 36/82/34
f 33/62/35 41/83/47 42/84/48 34/63/36
f 40/64/37 48/85/42 41/83/47 33/62/35
f 38/86/38 46/87/44 47/75/41 39/72/39
f 36/67/34 44/88/46 45/77/43 37/68/40
f 34/89/36 42/90/48 43/91/45 35/92/33
f 55/93/49 67/94/50 66/95/51 54/96/52
f 52/97/53 64/98/54 63/99/55 51/100/56
f 59/101/57 71/102/58 70/103/59 58/104/60
f 56/105/61 68/106/62 67/94/50 55/93/49
f 53/107/63 65/108/64 64/98/54 52/97/53
f 60/109/65 72/110/66 71/111/58 59/112/57
f 50/113/67 62/114/68 61/115/69 49/116/70
f 57/117/71 69/118/72 68/119/62 56/120/61
f 54/96/52 66/95/51 65/121/64 53/122/63
f 49/116/70 61/115/69 72/110/66 60/109/65
f 51/100/56 63/99/55 62/106/68 50/105/67
f 58/104/60 70/103/59 69/123/72 57/124/71
f 65/108/64 77/125/73 76/126/74 64/98/54
f 72/110/66 84/127/75 83/128/76 71/111/58
f 62/114/68 74/129/77 73/130/78 61/115/69
f 69/118/72 81/131/79 80/132/80 68/119/62
f 66/95/51 78/133/81 77/134/73 65/121/64
f 61/115/69 73/130/78 84/127/75 72/110/66
f 63/99/55 75/135/82 74/136/77 62/106/68
f 70/103/59 82/137/83 81/138/79 69/123/72
f 67/94/50 79/139/84 78/133/81 66/95/51
f 64/98/54 76/126/74 75/135/82 63/99/55
f 71/102/58 83/140/76 82/137/83 70/103/59
f 68/106/62 80/141/80 79/139/84 67/94/50
f 77/125/73 89/142/85 88/143/86 76/126/74
f 84/127/75 96/144/87 95/145/88 83/128/76
f 74/129/77 86/146/89 85/147/90 73/130/78
f 81/131/79 93/148/91 92/149/92 80/132/80
f 78/133/81 90/150/93 89/151/85 77/134/73
f 73/130/78 85/147/90 96/144/87 84/127/75
f 75/135/82 87/152/94 86/153/89 74/136/77
f 82/137/83 94/154/95 93/155/91 81/138/79
f 79/139/84 91/156/96 90/150/93 78/133/81
f 76/126/74 88/143/86 87/152/94 75/135/82
f 83/140/76 95/157/88 94/154/95 82/137/83
f 80/141/80 92/158/92 91/156/96 79/139/84
f 86/159/89 87/160/94 88/161/86 89/162/85 90/163/93 91/164/96 92/165/92 93/166/91 94/167/95 95/168/88 96/169/87 85/170/90
f 97/1/97 105/2/98 112/3/99 104/4/100
f 103/5/101 111/6/102 110/7/103 102/8/104
f 101/9/105 109/10/106 108/11/107 100/12/108
f 99/13/109 107/14/110 106/15/111 98/16/112
f 104/4/100 112/3/99 111/17/102 103/18/101
f 102/8/104 110/7/103 109/10/106 101/9/105
f 100/19/108 108/20/107 107/21/110 99/22/109
f 98/23/112 106/24/111 105/2/98 97/1/97
f 107/14/110 115/25/113 114/26/114 106/15/111
f 112/3/99 120/27/115 119/28/116 111/17/102
f 110/7/103 118/29/117 117/30/118 109/10/106
f 108/20/107 116/31/119 115/32/113 107/21/110
f 106/24/111 114/33/114 113/34/120 105/2/98
f 105/2/98 113/34/120 120/27/115 112/3/99
f 111/6/102 119/35/116 118/29/117 110/7/103
f 109/36/106 117/37/118 116/38/119 108/39/107
f 114/40/114 115/41/113 116/42/119 117/43/118 118/44/117 119/45/116 120/46/115 113/47/120
f 104/4/100 128/48/121 121/49/122 97/1/97
f 102/8/104 126/50/123 127/51/124 103/5/101
f 100/12/108 124/52/125 125/53/126 101/9/105
f 98/16/112 122/54/127 123/55/128 99/13/109
f 103/18/101 127/56/124 128/48/121 104/4/100
f 101/9/105 125/53/126 126/50/123 102/8/104
f 99/22/109 123/57/128 124/58/125 100/19/108
f 97/1/97 121/49/122 122/59/127 98/23/112
f 123/57/128 131/60/129 132/61/130 124/58/125
f 121/49/122 129/62/131 130/63/132 122/59/127
f 128/48/121 136/64/133 129/62/131 121/49/122
f 126/50/123 134/65/134 135/66/135 127/51/124
f 124/52/125 132/67/130 133/68/136 125/53/126
f 122/54/127 130/69/132 131/70/129 123/55/128
f 127/71/124 135/72/135 136/73/133 128/74/121
f 125/53/126 133/68/136 134/65/134 126/50/123
f 135/72/135 143/75/137 144/76/138 136/73/133
f 133/68/136 141/77/139 142/78/140 134/65/134
f 131/79/129 139/80/141 140/81/142 132/82/130
f 129/62/131 137/83/143 138/84/144 130/63/132
f 136/64/133 144/85/138 137/83/143 129/62/131
f 134/86/134 142/87/140 143/75/137 135/72/135
f 132/67/130 140/88/142 141/77/139 133/68/136
f 130/89/132 138/90/144 139/91/141 131/92/129
