# Blender 4.0.1
# www.blender.org
mtllib cactus_6.mtl
o cactus6
v -31.521416 2.149262 -28.838148
v -31.434368 2.149262 -29.052231
v -31.524195 2.149262 -29.265160
v -31.738276 2.149262 -29.352207
v -31.951206 2.149262 -29.262381
v -32.038254 2.149262 -29.048300
v -31.948427 2.149262 -28.835369
v -31.734344 2.149262 -28.748322
v -31.521416 2.487606 -28.838148
v -31.434368 2.487606 -29.052231
v -31.524195 2.487606 -29.265160
v -31.738276 2.487606 -29.352207
v -31.951206 2.487606 -29.262381
v -32.038254 2.487606 -29.048300
v -31.948427 2.487606 -28.835369
v -31.734344 2.487606 -28.748322
v -31.629194 2.753802 -28.944534
v -31.585804 2.753802 -29.051245
v -31.630579 2.753802 -29.157381
v -31.737289 2.753802 -29.200771
v -31.843428 2.753802 -29.155996
v -31.886816 2.753802 -29.049286
v -31.842041 2.753802 -28.943148
v -31.735331 2.753802 -28.899759
v -31.521416 1.798662 -28.838148
v -31.436132 1.905417 -29.050442
v -31.534283 1.949636 -29.254940
v -31.740042 1.905417 -29.350420
v -31.951206 1.798662 -29.262381
v -32.041988 1.691907 -29.044516
v -31.943836 1.647687 -28.840019
v -31.738079 1.691907 -28.744539
v -31.347284 1.370749 -29.014561
v -31.262003 1.477504 -29.226854
v -31.360153 1.521723 -29.431353
v -31.565910 1.477504 -29.526833
v -31.777077 1.370749 -29.438793
v -31.867857 1.263994 -29.220928
v -31.769707 1.219774 -29.016432
v -31.563948 1.263994 -28.920952
v -30.545488 1.086586 -29.826866
v -30.599819 1.322736 -29.897715
v -30.751982 1.411174 -30.047493
v -30.903728 1.322736 -30.197693
v -30.975279 1.086586 -30.251097
v -30.923681 0.843645 -30.177479
v -30.771519 0.755207 -30.027700
v -30.619772 0.843645 -29.877501
v -30.214693 0.000000 -29.737717
v -30.061155 0.000000 -30.007694
v -30.063177 0.000000 -30.318272
v -30.220217 0.000000 -30.586227
v -30.490194 0.000000 -30.739765
v -30.800772 0.000000 -30.737743
v -31.068727 0.000000 -30.580704
v -31.222265 0.000000 -30.310726
v -31.220243 0.000000 -30.000149
v -31.063204 0.000000 -29.732193
v -30.793226 0.000000 -29.578655
v -30.482649 0.000000 -29.580677
v -30.214693 3.753680 -29.737717
v -30.061155 3.753680 -30.007694
v -30.063177 3.753680 -30.318272
v -30.220217 3.753680 -30.586227
v -30.490194 3.753680 -30.739765
v -30.800772 3.753680 -30.737743
v -31.068727 3.753680 -30.580704
v -31.222265 3.753680 -30.310726
v -31.220243 3.753680 -30.000149
v -31.063204 3.753680 -29.732193
v -30.793226 3.753680 -29.578655
v -30.482649 3.753680 -29.580677
v -30.283905 4.170797 -29.806034
v -30.155254 4.170797 -30.032253
v -30.156948 4.170797 -30.292490
v -30.288534 4.170797 -30.517015
v -30.514753 4.170797 -30.645668
v -30.774990 4.170797 -30.643972
v -30.999516 4.170797 -30.512386
v -31.128166 4.170797 -30.286167
v -31.126472 4.170797 -30.025930
v -30.994886 4.170797 -29.801405
v -30.768667 4.170797 -29.672752
v -30.508430 4.170797 -29.674448
v -30.461102 4.566780 -29.980938
v -30.396164 4.566780 -30.095127
v -30.397018 4.566780 -30.226486
v -30.463438 4.566780 -30.339819
v -30.577627 4.566780 -30.404757
v -30.708986 4.566780 -30.403902
v -30.822319 4.566780 -30.337482
v -30.887257 4.566780 -30.223293
v -30.886402 4.566780 -30.091934
v -30.819983 4.566780 -29.978601
v -30.705793 4.566780 -29.913664
v -30.574434 4.566780 -29.914518
v -30.295097 4.195976 -31.859991
v -30.288147 4.195976 -31.628994
v -30.119892 4.195976 -31.470568
v -29.888895 4.195976 -31.477518
v -29.730469 4.195976 -31.645773
v -29.737419 4.195976 -31.876770
v -29.905674 4.195976 -32.035194
v -30.136671 4.195976 -32.028244
v -30.295097 4.534320 -31.859991
v -30.288147 4.534320 -31.628994
v -30.119892 4.534320 -31.470568
v -29.888895 4.534320 -31.477518
v -29.730469 4.534320 -31.645773
v -29.737419 4.534320 -31.876770
v -29.905674 4.534320 -32.035194
v -30.136671 4.534320 -32.028244
v -30.153503 4.800516 -31.806271
v -30.150040 4.800516 -31.691128
v -30.066172 4.800516 -31.612160
v -29.951029 4.800516 -31.615623
v -29.872061 4.800516 -31.699492
v -29.875526 4.800516 -31.814634
v -29.959394 4.800516 -31.893602
v -30.074535 4.800516 -31.890139
v -30.295097 3.845377 -31.859991
v -30.287254 3.952132 -31.631342
v -30.114798 3.996351 -31.483995
v -29.888002 3.952132 -31.479868
v -29.730469 3.845377 -31.645773
v -29.735535 3.738621 -31.881739
v -29.907991 3.694402 -32.029087
v -30.134787 3.738621 -32.033215
v -30.383024 3.417464 -31.628233
v -30.375183 3.524218 -31.399586
v -30.202726 3.568438 -31.252237
v -29.975931 3.524218 -31.248110
v -29.818398 3.417464 -31.414015
v -29.823462 3.310708 -31.649982
v -29.995920 3.266489 -31.797329
v -30.222713 3.310708 -31.801456
v -30.787895 3.133301 -30.561090
v -30.709555 3.369450 -30.518259
v -30.509825 3.457888 -30.442799
v -30.310305 3.369450 -30.366785
v -30.223269 3.133301 -30.346872
v -30.300228 2.890360 -30.393341
v -30.499960 2.801921 -30.468801
v -30.699480 2.890360 -30.544815
vn 0.7128 0.0002 0.7014
vn 0.6906 0.2415 0.6817
vn 0.0063 0.2415 0.9704
vn 0.0026 0.0004 1.0000
vn -0.7025 -0.0006 0.7117
vn -0.6817 0.2415 0.6906
vn -0.9704 0.2415 0.0063
vn -0.9999 0.0004 0.0105
vn -0.7106 0.0002 -0.7036
vn -0.6906 0.2415 -0.6817
vn -0.0063 0.2415 -0.9704
vn 0.0018 -0.0101 -0.9999
vn 0.7024 -0.0190 -0.7116
vn 0.6817 0.2415 -0.6906
vn 0.9704 0.2415 -0.0063
vn 0.9998 -0.0101 -0.0148
vn 0.4109 0.8111 -0.4162
vn 0.5849 0.8111 -0.0038
vn 0.0038 0.8111 0.5849
vn -0.4109 0.8111 0.4162
vn -0.5849 0.8111 0.0038
vn -0.4162 0.8111 -0.4109
vn -0.0038 0.8111 -0.5849
vn 0.4162 0.8111 0.4109
vn -0.0039 -0.1830 0.9831
vn 0.6692 -0.0019 0.7431
vn -0.9830 -0.1830 0.0167
vn -0.6753 -0.2753 0.6842
vn -0.0855 0.1614 -0.9832
vn -0.7517 -0.0019 -0.6595
vn 0.9842 0.1614 0.0727
vn 0.6850 0.2215 -0.6940
vn 0.3648 0.8546 -0.3696
vn -0.3028 0.5312 -0.7913
vn 0.6905 -0.0980 0.7167
vn 0.7952 0.5312 0.2925
vn 0.1611 -0.5764 0.8011
vn -0.8031 -0.5764 -0.1506
vn -0.4570 -0.7595 0.4630
vn -0.7256 -0.0980 -0.6811
vn -0.2141 -0.9524 0.2169
vn 0.2976 -0.7318 0.6131
vn -0.7285 -0.0361 -0.6841
vn -0.6170 -0.7318 -0.2896
vn 0.1020 0.9894 -0.1033
vn -0.4014 0.7202 -0.5659
vn 0.6936 -0.0361 0.7195
vn 0.5710 0.7202 0.3940
vn -0.7117 -0.0000 -0.7025
vn -0.7072 0.1122 -0.6981
vn -0.2634 0.1122 -0.9581
vn -0.2651 -0.0000 -0.9642
vn 0.7025 -0.0000 -0.7117
vn 0.6981 0.1122 -0.7072
vn 0.9581 0.1122 -0.2634
vn 0.9642 -0.0000 -0.2651
vn -0.2525 -0.0000 0.9676
vn -0.2509 0.1122 0.9615
vn -0.6981 0.1122 0.7072
vn -0.7025 -0.0000 0.7117
vn -0.9676 -0.0000 -0.2525
vn -0.9615 0.1122 -0.2509
vn 0.2525 -0.0000 -0.9676
vn 0.2509 0.1122 -0.9615
vn 0.2651 -0.0000 0.9642
vn 0.2634 0.1122 0.9581
vn 0.9676 -0.0000 0.2525
vn 0.9615 0.1122 0.2509
vn 0.7072 0.1122 0.6981
vn 0.7117 -0.0000 0.7025
vn -0.9642 -0.0000 0.2651
vn -0.9581 0.1122 0.2634
vn 0.2340 0.3756 -0.8967
vn 0.6511 0.3756 -0.6596
vn 0.2457 0.3756 0.8936
vn -0.2340 0.3756 0.8967
vn 0.8967 0.3756 0.2340
vn 0.6596 0.3756 0.6511
vn -0.8936 0.3756 0.2457
vn -0.8967 0.3756 -0.2340
vn -0.2457 0.3756 -0.8936
vn 0.8936 0.3756 -0.2457
vn -0.6511 0.3756 0.6596
vn -0.6596 0.3756 -0.6511
vn 0.1365 0.8413 -0.5230
vn 0.3797 0.8413 -0.3847
vn 0.1433 0.8413 0.5212
vn -0.1365 0.8413 0.5230
vn 0.5230 0.8413 0.1365
vn 0.3847 0.8413 0.3797
vn -0.5212 0.8413 0.1433
vn -0.5230 0.8413 -0.1365
vn -0.1433 0.8413 -0.5212
vn 0.5212 0.8413 -0.1433
vn -0.3797 0.8413 0.3847
vn -0.3847 0.8413 -0.3797
vn -0.9355 0.0002 -0.3533
vn -0.9073 0.2415 -0.3442
vn -0.3981 0.2415 -0.8849
vn -0.4067 0.0004 -0.9136
vn 0.3547 -0.0006 -0.9350
vn 0.3442 0.2415 -0.9073
vn 0.8849 0.2415 -0.3981
vn 0.9103 0.0004 -0.4139
vn 0.9344 0.0002 0.3562
vn 0.9073 0.2415 0.3442
vn 0.3981 0.2415 0.8849
vn 0.4027 -0.0101 0.9153
vn -0.3547 -0.0190 0.9348
vn -0.3442 0.2415 0.9073
vn -0.8849 0.2415 0.3981
vn -0.9085 -0.0101 0.4178
vn -0.2075 0.8111 0.5468
vn -0.5334 0.8111 0.2400
vn -0.2400 0.8111 -0.5334
vn 0.2075 0.8111 -0.5468
vn 0.5334 0.8111 -0.2400
vn 0.5468 0.8111 0.2075
vn 0.2400 0.8111 0.5334
vn -0.5468 0.8111 -0.2075
vn -0.3940 -0.1830 -0.9007
vn -0.9125 -0.0019 -0.4090
vn 0.8923 -0.1830 -0.4127
vn 0.3410 -0.2753 -0.8988
vn 0.4758 0.1614 0.8646
vn 0.9542 -0.0019 0.2992
vn -0.9296 0.1614 0.3315
vn -0.3459 0.2215 0.9117
vn -0.1842 0.8546 0.4855
vn 0.5969 0.5312 0.6013
vn -0.9213 -0.0980 -0.3763
vn -0.8456 0.5312 0.0540
vn -0.4712 -0.5764 -0.6676
vn 0.7955 -0.5764 -0.1870
vn 0.2308 -0.7595 -0.6082
vn 0.9390 -0.0980 0.3295
vn 0.1081 -0.9524 -0.2850
vn -0.5201 -0.7318 -0.4405
vn 0.9429 -0.0361 0.3312
vn 0.6814 -0.7318 0.0154
vn -0.0515 0.9894 0.1357
vn 0.5959 0.7202 0.3552
vn -0.9253 -0.0361 -0.3776
vn -0.6816 0.7202 -0.1294
vt 0.796583 0.604396
vt 0.841371 0.557507
vt 0.809522 0.525402
vt 0.764733 0.572291
vt 0.812020 0.066347
vt 0.767273 0.017890
vt 0.742415 0.034099
vt 0.787162 0.082556
vt 0.753470 0.112903
vt 0.708722 0.064446
vt 0.685931 0.091153
vt 0.730679 0.139610
vt 0.951064 0.124774
vt 0.956971 0.060204
vt 0.911642 0.056114
vt 0.905735 0.120684
vt 0.794786 0.499956
vt 0.749997 0.546845
vt 0.994067 0.120480
vt 1.000000 0.055912
vt 0.967443 0.060409
vt 0.961509 0.124977
vt 0.826889 0.624353
vt 0.871677 0.577464
vt 0.950683 0.002039
vt 0.928088 -0.000000
vt 0.859413 0.494213
vt 0.852067 0.481529
vt 0.699645 0.008080
vt 0.682851 0.023206
vt 0.977406 -0.000000
vt 0.961178 0.002242
vt 0.890394 0.520164
vt 0.875288 0.510216
vt 0.712035 -0.000000
vt 0.036310 0.898427
vt 0.000000 0.909693
vt 0.000000 0.932379
vt 0.036310 0.943941
vt 0.631266 0.952942
vt 0.653602 0.952929
vt 0.669396 0.936879
vt 0.669396 0.914192
vt 0.653602 0.898159
vt 0.631266 0.898172
vt 0.615472 0.914222
vt 0.615472 0.936909
vt 0.703416 0.635025
vt 0.750171 0.652983
vt 0.848352 0.147348
vt 0.877491 0.139054
vt 0.763260 0.174198
vt 0.799838 0.163115
vt 0.901297 0.167098
vt 0.946542 0.162173
vt 0.684552 0.617152
vt 0.956971 0.162374
vt 0.989609 0.166892
vt 0.794243 0.657839
vt 0.967363 0.256095
vt 1.000000 0.260613
vt 0.729605 0.742505
vt 0.773678 0.747362
vt 0.682851 0.724547
vt 0.872158 0.241751
vt 0.901297 0.233458
vt 0.787066 0.268601
vt 0.823644 0.257519
vt 0.911726 0.260815
vt 0.956971 0.255890
vt 0.942297 0.481529
vt 0.925049 0.554879
vt 0.969620 0.563932
vt 0.986868 0.490583
vt 0.942108 0.848797
vt 0.986868 0.840732
vt 0.710253 0.450713
vt 0.749969 0.481530
vt 0.902287 0.274605
vt 0.901296 0.446224
vt 0.945565 0.448171
vt 0.945565 0.260815
vt 0.858121 0.921040
vt 0.890394 0.883734
vt 0.822840 0.946665
vt 0.890394 0.568694
vt 0.907642 0.845494
vt 0.682851 0.416710
vt 0.945565 0.260815
vt 0.945565 0.448171
vt 0.984294 0.447451
vt 0.985284 0.275833
vt 0.114139 0.898427
vt 0.114139 0.171956
vt 0.052972 0.171956
vt 0.052972 0.898427
vt 0.281250 0.898427
vt 0.281250 0.171956
vt 0.220083 0.171956
vt 0.220083 0.898427
vt 0.615472 0.892763
vt 0.615472 0.166293
vt 0.562500 0.171956
vt 0.562500 0.898427
vt 0.167111 0.892763
vt 0.167111 0.166293
vt 0.334222 0.892763
vt 0.334222 0.166293
vt 0.387194 0.898427
vt 0.387194 0.171956
vt 0.334222 0.166293
vt 0.334222 0.892763
vt 0.501333 0.892763
vt 0.501333 0.166293
vt 0.448361 0.171956
vt 0.448361 0.898427
vt 0.682851 0.898159
vt 0.668545 0.171829
vt 0.615472 0.167210
vt 0.629777 0.893540
vt 0.000000 0.166293
vt 0.000000 0.892763
vt 0.501333 0.171956
vt 0.501333 0.898427
vt 0.320679 0.083058
vt 0.276293 0.087804
vt 0.392151 0.087804
vt 0.347765 0.083058
vt 0.487790 0.083058
vt 0.443404 0.087804
vt 0.671844 0.087595
vt 0.627373 0.083724
vt 0.057929 0.087804
vt 0.013543 0.083058
vt 0.225040 0.087804
vt 0.180654 0.083058
vt 0.557543 0.087804
vt 0.506290 0.087804
vt 0.109182 0.087804
vt 0.601929 0.083058
vt 0.153568 0.083058
vt 0.286006 0.000000
vt 0.263602 0.002395
vt 0.404842 0.002395
vt 0.382437 0.000000
vt 0.453117 0.000000
vt 0.430713 0.002395
vt 0.682851 0.001954
vt 0.660403 -0.000000
vt 0.070620 0.002395
vt 0.048215 0.000000
vt 0.237731 0.002395
vt 0.215326 0.000000
vt 0.544851 0.002395
vt 0.518981 0.002395
vt 0.096491 0.002395
vt 0.567256 0.000000
vt 0.118895 0.000000
vt 0.925734 0.945348
vt 0.951605 0.945348
vt 0.974010 0.932412
vt 0.986945 0.910008
vt 0.986945 0.884137
vt 0.974010 0.861732
vt 0.951605 0.848797
vt 0.925734 0.848797
vt 0.903330 0.861732
vt 0.890394 0.884137
vt 0.890394 0.910008
vt 0.903330 0.932412
s 1
usemtl cactus
f 1/1/1 9/2/2 16/3/3 8/4/4
f 7/5/5 15/6/6 14/7/7 6/8/8
f 5/9/9 13/10/10 12/11/11 4/12/12
f 3/13/13 11/14/14 10/15/15 2/16/16
f 8/4/4 16/3/3 15/17/6 7/18/5
f 6/8/8 14/7/7 13/10/10 5/9/9
f 4/19/12 12/20/11 11/21/14 3/22/13
f 2/23/16 10/24/15 9/2/2 1/1/1
f 11/14/14 19/25/17 18/26/18 10/15/15
f 16/3/3 24/27/19 23/28/20 15/17/6
f 14/7/7 22/29/21 21/30/22 13/10/10
f 12/20/11 20/31/23 19/32/17 11/21/14
f 10/24/15 18/33/18 17/34/24 9/2/2
f 9/2/2 17/34/24 24/27/19 16/3/3
f 15/6/6 23/35/20 22/29/21 14/7/7
f 13/36/10 21/37/22 20/38/23 12/39/11
f 18/40/18 19/41/17 20/42/23 21/43/22 22/44/21 23/45/20 24/46/19 17/47/24
f 8/4/4 32/48/25 25/49/26 1/1/1
f 6/8/8 30/50/27 31/51/28 7/5/5
f 4/12/12 28/52/29 29/53/30 5/9/9
f 2/16/16 26/54/31 27/55/32 3/13/13
f 7/18/5 31/56/28 32/48/25 8/4/4
f 5/9/9 29/53/30 30/50/27 6/8/8
f 3/22/13 27/57/32 28/58/29 4/19/12
f 1/1/1 25/49/26 26/59/31 2/23/16
f 27/57/32 35/60/33 36/61/34 28/58/29
f 25/49/26 33/62/35 34/63/36 26/59/31
f 32/48/25 40/64/37 33/62/35 25/49/26
f 30/50/27 38/65/38 39/66/39 31/51/28
f 28/52/29 36/67/34 37/68/40 29/53/30
f 26/54/31 34/69/36 35/70/33 27/55/32
f 31/71/28 39/72/39 40/73/37 32/74/25
f 29/53/30 37/68/40 38/65/38 30/50/27
f 39/72/39 47/75/41 48/76/42 40/73/37
f 37/68/40 45/77/43 46/78/44 38/65/38
f 35/79/33 43/80/45 44/81/46 36/82/34
f 33/62/35 41/83/47 42/84/48 34/63/36
f 40/64/37 48/85/42 41/83/47 33/62/35
f 38/86/38 46/87/44 47/75/41 39/72/39
f 36/67/34 44/88/46 45/77/43 37/68/40
f 34/89/36 42/90/48 43/91/45 35/92/33
f 55/93/49 67/94/50 66/95/51 54/96/52
f 52/97/53 64/98/54 63/99/55 51/100/56
f 59/101/57 71/102/58 70/103/59 58/104/60
f 56/105/61 68/106/62 67/94/50 55/93/49
f 53/107/63 65/108/64 64/98/54 52/97/53
f 60/109/65 72/110/66 71/111/58 59/112/57
f 50/113/67 62/114/68 61/115/69 49/116/70
f 57/117/71 69/118/72 68/119/62 56/120/61
f 54/96/52 66/95/51 65/121/64 53/122/63
f 49/116/70 61/115/69 72/110/66 60/109/65
f 51/100/56 63/99/55 62/106/68 50/105/67
f 58/104/60 70/103/59 69/123/72 57/124/71
f 65/108/64 77/125/73 76/126/74 64/98/54
f 72/110/66 84/127/75 83/128/76 71/111/58
f 62/114/68 74/129/77 73/130/78 61/115/69
f 69/118/72 81/131/79 80/132/80 68/119/62
f 66/95/51 78/133/81 77/134/73 65/121/64
f 61/115/69 73/130/78 84/127/75 72/110/66
f 63/99/55 75/135/82 74/136/77 62/106/68
f 70/103/59 82/137/83 81/138/79 69/123/72
f 67/94/50 79/139/84 78/133/81 66/95/51
f 64/98/54 76/126/74 75/135/82 63/99/55
f 71/102/58 83/140/76 82/137/83 70/103/59
f 68/106/62 80/141/80 79/139/84 67/94/50
f 77/125/73 89/142/85 88/143/86 76/126/74
f 84/127/75 96/144/87 95/145/88 83/128/76
f 74/129/77 86/146/89 85/147/90 73/130/78
f 81/131/79 93/148/91 92/149/92 80/132/80
f 78/133/81 90/150/93 89/151/85 77/134/73
f 73/130/78 85/147/90 96/144/87 84/127/75
f 75/135/82 87/152/94 86/153/89 74/136/77
f 82/137/83 94/154/95 93/155/91 81/138/79
f 79/139/84 91/156/96 90/150/93 78/133/81
f 76/126/74 88/143/86 87/152/94 75/135/82
f 83/140/76 95/157/88 94/154/95 82/137/83
f 80/141/80 92/158/92 91/156/96 79/139/84
f 86/159/89 87/160/94 88/161/86 89/162/85 90/163/93 91/164/96 92/165/92 93/166/91 94/167/95 95/168/88 96/169/87 85/170/90
f 97/1/97 105/2/98 112/3/99 104/4/100
f 103/5/101 111/6/102 110/7/103 102/8/104
f 101/9/105 109/10/106 108/11/107 100/12/108
f 99/13/109 107/14/110 106/15/111 98/16/112
f 104/4/100 112/3/99 111/17/102 103/18/101
f 102/8/104 110/7/103 109/10/106 101/9/105
f 100/19/108 108/20/107 107/21/110 99/22/109
f 98/23/112 106/24/111 105/2/98 97/1/97
f 107/14/110 115/25/113 114/26/114 106/15/111
f 112/3/99 120/27/115 119/28/116 111/17/102
f 110/7/103 118/29/117 117/30/118 109/10/106
f 108/20/107 116/31/119 115/32/113 107/21/110
f 106/24/111 114/33/114 113/34/120 105/2/98
f 105/2/98 113/34/120 120/27/115 112/3/99
f 111/6/102 119/35/116 118/29/117 110/7/103
f 109/36/106 117/37/118 116/38/119 108/39/107
f 114/40/114 115/41/113 116/42/119 117/43/118 118/44/117 119/45/116 120/46/115 113/47/120
f 104/4/100 128/48/121 121/49/122 97/1/97
f 102/8/104 126/50/123 127/51/124 103/5/101
f 100/12/108 124/52/125 125/53/126 101/9/105
f 98/16/112 122/54/127 123/55/128 99/13/109
f 103/18/101 127/56/124 128/48/121 104/4/100
f 101/9/105 125/53/126 126/50/123 102/8/104
f 99/22/109 123/57/128 124/58/125 100/19/108
f 97/1/97 121/49/122 122/59/127 98/23/112
f 123/57/128 131/60/129 132/61/130 124/58/125
f 121/49/122 129/62/131 130/63/132 122/59/127
f 128/48/121 136/64/133 129/62/131 121/49/122
f 126/50/123 134/65/134 135/66/135 127/51/124
f 124/52/125 132/67/130 133/68/136 125/53/126
f 122/54/127 130/69/132 131/70/129 123/55/128
f 127/71/124 135/72/135 136/73/133 128/74/121
f 125/53/126 133/68/136 134/65/134 126/50/123
f 135/72/135 143/75/137 144/76/138 136/73/133
f 133/68/136 141/77/139 142/78/140 134/65/134
f 131/79/129 139/80/141 140/81/142 132/82/130
f 129/62/131 137/83/143 138/84/144 130/63/132
f 136/64/133 144/85/138 137/83/143 129/62/131
f 134/86/134 142/87/140 143/75/137 135/72/135
f 132/67/130 140/88/142 141/77/139 133/68/136
f 130/89/132 138/90/144 139/91/141 131/92/129
