# Blender 4.0.1
# www.blender.org
mtllib pillars.mtl
o pillars
v -10.443163 -0.200000 -40.269844
v -10.619940 -0.200000 -40.196621
v -10.693163 -0.200000 -40.019844
v -10.619940 -0.200000 -39.843067
v -10.443163 -0.200000 -39.769844
v -10.266387 -0.200000 -39.843067
v -10.193163 -0.200000 -40.019844
v -10.266387 -0.200000 -40.196621
v -10.443163 10.200001 -40.269844
v -10.619940 10.200001 -40.196621
v -10.693163 10.200001 -40.019844
v -10.619940 10.200001 -39.843067
v -10.443163 10.200001 -39.769844
v -10.266387 10.200001 -39.843067
v -10.193163 10.200001 -40.019844
v -10.266387 10.200001 -40.196621
v -8.229479 10.299999 -40.396816
v -12.629478 9.900000 -39.639011
v -8.229479 9.900000 -40.396816
v -8.229479 10.299999 -39.639011
v -8.229479 9.900000 -39.639011
v -12.629478 10.299999 -40.396816
v -12.629478 9.900000 -40.396816
v -12.629478 10.299999 -39.639011
v -8.229479 10.299999 -40.396816
v -8.229479 9.900000 -40.396816
v -8.229479 10.299999 -39.639011
v -8.229479 9.900000 -39.639011
v -10.443163 -0.200000 36.748070
v -10.619940 -0.200000 36.821297
v -10.693163 -0.200000 36.998070
v -10.619940 -0.200000 37.174850
v -10.443163 -0.200000 37.248070
v -10.266387 -0.200000 37.174850
v -10.193163 -0.200000 36.998070
v -10.266387 -0.200000 36.821297
v -10.443163 10.200001 36.748070
v -10.619940 10.200001 36.821297
v -10.693163 10.200001 36.998070
v -10.619940 10.200001 37.174850
v -10.443163 10.200001 37.248070
v -10.266387 10.200001 37.174850
v -10.193163 10.200001 36.998070
v -10.266387 10.200001 36.821297
v -8.229479 10.299999 36.621094
v -12.629478 9.900000 37.378906
v -8.229479 9.900000 36.621094
v -8.229479 10.299999 37.378906
v -8.229479 9.900000 37.378906
v -12.629478 10.299999 36.621094
v -12.629478 9.900000 36.621094
v -12.629478 10.299999 37.378906
v -8.229479 10.299999 36.621094
v -8.229479 9.900000 36.621094
v -8.229479 10.299999 37.378906
v -8.229479 9.900000 37.378906
v -10.443163 -0.200000 -0.269844
v -10.619940 -0.200000 -0.196621
v -10.693163 -0.200000 -0.019844
v -10.619940 -0.200000 0.156933
v -10.443163 -0.200000 0.230156
v -10.266387 -0.200000 0.156933
v -10.193163 -0.200000 -0.019844
v -10.266387 -0.200000 -0.196621
v -10.443163 10.200001 -0.269844
v -10.619940 10.200001 -0.196621
v -10.693163 10.200001 -0.019844
v -10.619940 10.200001 0.156933
v -10.443163 10.200001 0.230156
v -10.266387 10.200001 0.156933
v -10.193163 10.200001 -0.019844
v -10.266387 10.200001 -0.196621
v -8.229479 10.299999 -0.396816
v -12.629478 9.900000 0.360989
v -8.229479 9.900000 -0.396816
v -8.229479 10.299999 0.360989
v -8.229479 9.900000 0.360989
v -12.629478 10.299999 -0.396816
v -12.629478 9.900000 -0.396816
v -12.629478 10.299999 0.360989
v -8.229479 10.299999 -0.396816
v -8.229479 9.900000 -0.396816
v -8.229479 10.299999 0.360989
v -8.229479 9.900000 0.360989
vn 0.9239 -0.0000 -0.3827
vn 0.3827 -0.0000 0.9239
vn -0.9239 -0.0000 0.3827
vn -0.3827 -0.0000 -0.9239
vn 0.3827 -0.0000 -0.9239
vn 0.9239 -0.0000 0.3827
vn -0.3827 -0.0000 0.9239
vn -0.9239 -0.0000 -0.3827
vn -0.0000 -0.0000 1.0000
vn -0.0000 -1.0000 -0.0000
vn -0.0000 1.0000 -0.0000
vn -1.0000 -0.0000 -0.0000
vn -0.0000 -0.0000 -1.0000
vn 1.0000 -0.0000 -0.0000
vt 0.055266 0.000080
vt 0.055266 0.999920
vt 0.073661 0.999920
vt 0.073661 0.000080
vt 0.092056 0.000080
vt 0.092056 0.999920
vt 0.110452 0.999920
vt 0.110452 0.000080
vt 0.128847 0.000080
vt 0.128847 0.999920
vt 0.147242 0.999920
vt 0.147242 0.000080
vt 0.018475 0.000080
vt 0.018475 0.999920
vt 0.036870 0.999920
vt 0.036870 0.000080
vt 0.000080 0.000080
vt 0.000080 0.999920
vt 0.147401 0.000080
vt 0.185857 0.000080
vt 0.185857 0.423089
vt 0.147401 0.423089
vt 0.297167 0.423089
vt 0.297167 0.000080
vt 0.370021 0.000080
vt 0.370021 0.423089
vt 0.258711 0.000080
vt 0.258711 0.423089
vt 0.408636 0.072934
vt 0.370181 0.072934
vt 0.370181 0.000080
vt 0.408636 0.000080
vt 0.370181 0.073093
vt 0.408636 0.073093
vt 0.408636 0.145948
vt 0.370181 0.145948
s 0
usemtl pillar
f 8/1/1 16/2/1 15/3/1 7/4/1
f 6/5/2 14/6/2 13/7/2 5/8/2
f 4/9/3 12/10/3 11/11/3 3/12/3
f 2/13/4 10/14/4 9/15/4 1/16/4
f 1/16/5 9/15/5 16/2/5 8/1/5
f 7/4/6 15/3/6 14/6/6 6/5/6
f 5/8/7 13/7/7 12/10/7 4/9/7
f 3/17/8 11/18/8 10/14/8 2/13/8
f 21/19/9 20/20/9 24/21/9 18/22/9
f 23/23/10 19/24/10 21/25/10 18/26/10
f 17/27/11 22/28/11 24/21/11 20/20/11
f 18/29/12 24/30/12 22/31/12 23/32/12
f 23/23/13 22/28/13 17/27/13 19/24/13
f 26/33/14 25/34/14 27/35/14 28/36/14
f 36/1/1 44/2/1 43/3/1 35/4/1
f 34/5/2 42/6/2 41/7/2 33/8/2
f 32/9/3 40/10/3 39/11/3 31/12/3
f 30/13/4 38/14/4 37/15/4 29/16/4
f 29/16/5 37/15/5 44/2/5 36/1/5
f 35/4/6 43/3/6 42/6/6 34/5/6
f 33/8/7 41/7/7 40/10/7 32/9/7
f 31/17/8 39/18/8 38/14/8 30/13/8
f 49/19/9 48/20/9 52/21/9 46/22/9
f 51/23/10 47/24/10 49/25/10 46/26/10
f 45/27/11 50/28/11 52/21/11 48/20/11
f 46/29/12 52/30/12 50/31/12 51/32/12
f 51/23/13 50/28/13 45/27/13 47/24/13
f 54/33/14 53/34/14 55/35/14 56/36/14
f 64/1/1 72/2/1 71/3/1 63/4/1
f 62/5/2 70/6/2 69/7/2 61/8/2
f 60/9/3 68/10/3 67/11/3 59/12/3
f 58/13/4 66/14/4 65/15/4 57/16/4
f 57/16/5 65/15/5 72/2/5 64/1/5
f 63/4/6 71/3/6 70/6/6 62/5/6
f 61/8/7 69/7/7 68/10/7 60/9/7
f 59/17/8 67/18/8 66/14/8 58/13/8
f 77/19/9 76/20/9 80/21/9 74/22/9
f 79/23/10 75/24/10 77/25/10 74/26/10
f 73/27/11 78/28/11 80/21/11 76/20/11
f 74/29/12 80/30/12 78/31/12 79/32/12
f 79/23/13 78/28/13 73/27/13 75/24/13
f 82/33/14 81/34/14 83/35/14 84/36/14
