# Blender 4.0.2
# www.blender.org
mtllib rock6.mtl
o rock6
v -30.195982 -5.294712 50.437748
v -29.900557 -2.975790 55.418877
v -31.929405 -1.338534 49.193428
v -31.691582 1.029592 54.133320
v -20.148314 -0.643540 46.848526
v -18.321806 1.371949 50.480076
v -23.547848 -0.399801 42.361111
v -20.042191 2.793705 46.213734
v -27.711399 0.942094 45.675369
v -24.909342 5.717963 52.302284
v -24.147566 -3.663603 48.961273
v -21.960154 0.586683 55.647942
v -31.792892 -2.513198 49.130295
v -31.377630 -3.828475 49.364254
v -30.764696 -4.809590 49.896713
v -30.265392 -5.239808 51.600338
v -30.261286 -4.789168 53.118210
v -30.111557 -3.907627 54.510555
v -30.575104 -2.243604 55.503952
v -31.258936 -1.126566 55.308796
v -31.634054 0.102037 54.766205
v -32.102112 0.644967 53.111610
v -32.329536 0.007380 51.642632
v -32.214893 -0.739014 50.183762
v -29.149920 0.784647 46.950733
v -30.509693 0.145216 47.829773
v -31.469242 -0.689715 48.569031
v -22.775761 5.673907 50.780087
v -21.182251 4.897214 48.970997
v -20.327076 3.737106 47.270378
v -20.759327 1.997610 44.698242
v -21.866997 0.971442 43.249760
v -22.891373 0.116143 42.519432
v -21.058205 -0.783053 45.253582
v -22.231937 -0.844319 43.654209
v -23.097137 -0.688621 42.705662
v -19.347759 2.589276 47.050404
v -18.685423 2.223235 48.310104
v -18.357021 1.765884 49.597881
v -18.366074 0.940852 49.994999
v -18.663727 0.392137 49.123257
v -19.328285 -0.190899 47.927078
v -22.178377 -2.510206 48.719101
v -20.954830 -1.561212 48.146065
v -20.367422 -0.961197 47.416519
v -24.322815 -0.335306 56.512417
v -26.807789 -1.509746 56.557526
v -28.768185 -2.481239 55.991638
v -24.444874 -0.376662 42.372589
v -25.541946 -0.102989 42.852154
v -26.567142 0.482302 44.040142
v -30.930952 2.245621 54.274448
v -29.393082 3.752184 54.102989
v -27.246582 5.010834 53.430180
v -29.420969 -5.438710 49.926582
v -28.170387 -5.306135 49.348663
v -26.389839 -4.700254 49.030029
v -18.525240 1.390738 51.633156
v -19.134504 1.319573 53.035728
v -20.236404 1.091655 54.394814
v -24.020748 5.132595 53.737495
v -23.151512 3.939170 54.897953
v -22.433317 2.341592 55.600136
v -27.588276 -0.821630 45.277985
v -26.825401 -2.222407 45.796116
v -25.608128 -3.213425 47.057537
v -21.788837 -1.052249 54.925835
v -22.009674 -2.442003 53.435417
v -22.807022 -3.391480 51.286320
v -25.702711 5.526304 50.697662
v -26.416836 4.551554 48.934319
v -27.150904 2.902419 47.093502
v -31.180750 -4.613962 51.325146
v -31.320034 -4.132375 52.890141
v -31.160488 -3.295269 54.326660
v -31.853226 -3.578540 50.881294
v -32.047546 -3.026023 52.525906
v -31.884399 -2.206726 54.055504
v -32.233715 -2.215513 50.514118
v -32.417801 -1.600221 52.082294
v -32.230675 -0.855416 53.585636
v -25.765947 2.312499 45.180729
v -24.581987 4.102036 47.107704
v -23.617321 5.297130 49.063721
v -24.812420 1.309178 43.461277
v -23.433895 2.941299 45.011013
v -22.135336 4.281671 47.060368
v -23.851681 0.558424 42.627422
v -22.682722 1.757347 43.615551
v -21.365072 2.982887 45.366505
v -22.007607 -0.153503 43.040192
v -20.916080 0.603958 43.853764
v -19.914001 1.544610 45.279419
v -21.035240 -0.253236 44.207150
v -19.910378 0.489420 45.238064
v -19.065445 1.332451 46.651081
v -19.988979 -0.196826 46.011662
v -19.057594 0.481038 47.166672
v -18.517603 1.154917 48.347260
v -25.268650 -4.572637 51.183823
v -24.410542 -3.649843 53.587090
v -24.124571 -2.126506 55.494743
v -27.462040 -5.286027 51.181564
v -26.896940 -4.563894 53.334877
v -26.639185 -3.209229 55.305412
v -29.059132 -5.463999 51.459774
v -28.822374 -4.920991 53.210541
v -28.661234 -3.851202 54.843227
v -26.427547 -0.882577 44.005314
v -25.354485 -1.026631 43.084110
v -24.226543 -0.971121 42.698982
v -25.497238 -1.808732 44.831661
v -24.384407 -1.536254 44.024399
v -23.337772 -1.250780 43.614994
v -23.932253 -2.370981 46.463421
v -22.731857 -1.706442 45.785580
v -21.898407 -1.233671 45.268723
v -26.427925 4.363856 54.879238
v -28.756683 3.053000 55.494507
v -30.529144 1.487458 55.433895
v -25.591248 3.136676 56.019855
v -28.058321 1.811595 56.503124
v -30.009949 0.262063 56.190903
v -24.851189 1.501005 56.635735
v -27.348774 0.232868 56.916168
v -29.326775 -1.095991 56.409950
v -19.505697 3.682656 48.797928
v -20.378725 4.656317 50.558411
v -21.932560 5.217219 52.266335
v -18.895857 3.090206 50.073044
v -19.725378 3.789102 51.826237
v -21.160000 4.129505 53.464668
v -18.591677 2.252629 51.099411
v -19.311943 2.578932 52.705154
v -20.573452 2.655982 54.226952
v -31.165388 -2.271971 48.062496
v -30.226229 -1.712791 47.201809
v -28.951761 -1.143761 46.354214
v -30.664345 -3.755831 48.191162
v -29.672857 -3.398780 47.310532
v -28.334652 -2.824058 46.587967
v -30.015114 -4.845200 48.840904
v -28.940205 -4.641466 48.053120
v -27.443645 -4.062011 47.503002
v -19.320833 -0.490777 49.301517
v -18.779423 0.063877 50.639492
v -18.568405 0.669421 51.435467
v -19.828156 -1.133470 50.287449
v -19.310659 -0.515873 51.800789
v -19.130188 0.281810 52.714611
v -20.929451 -2.138226 50.989510
v -20.325714 -1.353510 52.754177
v -20.146940 -0.267276 53.889584
v -31.652664 0.627262 49.738632
v -31.641819 1.625769 51.276756
v -31.356438 2.233577 52.857204
v -30.515871 1.821884 49.164215
v -30.321053 3.069101 50.828297
v -29.933914 3.746631 52.516262
v -28.908613 2.668128 48.369446
v -28.483063 4.127452 50.107357
v -27.939579 4.932980 51.821812
vn -0.7201 -0.6931 0.0316
vn -0.7122 -0.6399 0.2886
vn -0.9176 -0.3655 0.1562
vn -0.8965 -0.4352 -0.0826
vn -0.6566 -0.5220 0.5444
vn -0.8654 -0.2613 0.4276
vn -0.9949 -0.0900 0.0456
vn -0.9732 -0.1706 -0.1540
vn -0.9592 0.0015 0.2827
vn -0.3942 -0.9147 -0.0894
vn -0.3728 -0.9165 0.1453
vn -0.6271 -0.7406 -0.2415
vn -0.3405 -0.8521 0.3974
vn -0.3105 -0.7177 0.6233
vn -0.2898 -0.5489 0.7841
vn -0.5107 -0.3448 0.7876
vn -0.7060 -0.0924 0.7022
vn -0.8229 0.1555 0.5466
vn -0.8580 0.3543 0.3719
vn -0.9451 0.2904 0.1502
vn -0.9747 0.2140 -0.0638
vn -0.9595 0.1309 -0.2496
vn -0.8918 -0.2040 -0.4039
vn -0.9101 0.0405 -0.4124
vn -0.8025 -0.4843 -0.3484
vn -0.4094 0.6984 -0.5870
vn -0.2127 0.8344 -0.5084
vn -0.0804 0.7965 -0.5992
vn -0.2992 0.6460 -0.7023
vn -0.0371 0.9368 -0.3479
vn 0.1249 0.8694 -0.4781
vn 0.1026 0.6813 -0.7247
vn -0.0758 0.4991 -0.8632
vn 0.2799 0.7580 -0.5891
vn -0.6472 0.3792 -0.6614
vn -0.4684 0.6882 -0.5541
vn -0.6775 0.2963 -0.6732
vn -0.3417 0.8328 -0.4356
vn -0.2213 0.9542 -0.2012
vn -0.0521 0.9864 0.1560
vn 0.1725 0.9840 -0.0450
vn 0.3616 0.8984 -0.2491
vn 0.5040 0.7639 -0.4029
vn 0.6035 0.6088 -0.5150
vn 0.5165 0.5407 -0.6640
vn 0.4164 0.3917 -0.8205
vn 0.3029 0.1312 -0.9440
vn -0.2133 -0.0661 -0.9747
vn 0.1263 -0.1941 -0.9728
vn -0.5449 0.1216 -0.8296
vn 0.5829 -0.3144 -0.7493
vn 0.7137 0.0029 -0.7004
vn 0.8315 -0.2600 -0.4909
vn 0.6712 -0.5565 -0.4897
vn 0.7770 0.2627 -0.5721
vn 0.9121 0.0599 -0.4055
vn 0.8664 -0.4009 -0.2976
vn 0.7111 -0.6250 -0.3220
vn 0.9696 -0.1074 -0.2197
vn 0.3459 -0.6235 -0.7011
vn 0.7799 0.4913 -0.3877
vn 0.9090 0.3461 -0.2321
vn 0.9819 0.1783 -0.0640
vn 0.9957 0.0220 0.0902
vn 0.9702 -0.2409 -0.0258
vn 0.8690 -0.4785 -0.1261
vn 0.7277 -0.6580 -0.1934
vn 0.5300 -0.7945 -0.2964
vn 0.5942 -0.7705 -0.2307
vn 0.4554 -0.7808 -0.4278
vn 0.3742 -0.9264 0.0429
vn 0.3657 -0.8426 0.3953
vn 0.2216 -0.8891 0.4004
vn 0.2241 -0.9710 0.0834
vn 0.3382 -0.6094 0.7171
vn 0.1673 -0.7023 0.6919
vn 0.0188 -0.9083 0.4179
vn -0.0054 -0.9894 0.1450
vn -0.0030 -0.7524 0.6587
vn 0.4070 -0.8645 -0.2949
vn 0.4892 -0.8719 0.0211
vn 0.3090 -0.8951 -0.3215
vn 0.5213 -0.7688 0.3705
vn 0.5290 -0.4985 0.6868
vn 0.4930 -0.0861 0.8658
vn 0.2790 -0.2253 0.9335
vn 0.0700 -0.3788 0.9228
vn -0.1106 -0.4888 0.8653
vn -0.1425 -0.9712 -0.1911
vn 0.1184 -0.9510 -0.2857
vn -0.6217 -0.4507 -0.6406
vn -0.3996 -0.6412 -0.6551
vn 0.0251 -0.9302 -0.3663
vn -0.1280 -0.8611 -0.4920
vn -0.0300 -0.7380 -0.6741
vn 0.2281 -0.9028 -0.3647
vn 0.3179 -0.9019 -0.2925
vn 0.2630 -0.8790 -0.3977
vn 0.3873 -0.8837 -0.2628
vn -0.6248 -0.2217 -0.7487
vn 0.5556 -0.8073 -0.1991
vn 0.5260 -0.8227 -0.2156
vn 0.4747 -0.8435 -0.2515
vn 0.2041 -0.8146 -0.5429
vn -0.1950 -0.6793 -0.7075
vn -0.1088 0.7723 0.6259
vn -0.3556 0.6186 0.7007
vn -0.2104 0.3583 0.9096
vn 0.0425 0.5341 0.8443
vn -0.5985 0.3957 0.6966
vn -0.4673 0.1307 0.8744
vn -0.0649 0.0133 0.9978
vn 0.1743 0.1967 0.9649
vn -0.2906 -0.1696 0.9417
vn -0.2785 0.9117 0.3020
vn 0.1295 0.8628 0.4886
vn -0.5054 0.7731 0.3833
vn -0.7158 0.5702 0.4031
vn 0.4026 0.3266 0.8551
vn 0.2792 0.6395 0.7163
vn 0.7081 0.6806 -0.1881
vn 0.5726 0.8190 0.0379
vn 0.7109 0.6468 0.2760
vn 0.8417 0.5399 0.0093
vn 0.3690 0.8854 0.2828
vn 0.5109 0.6801 0.5257
vn 0.7971 0.4023 0.4503
vn 0.9162 0.3552 0.1853
vn 0.6151 0.3932 0.6834
vn 0.6871 0.0054 0.7265
vn 0.8498 0.0525 0.5245
vn 0.9558 0.0537 0.2892
vn -0.7352 -0.1302 -0.6653
vn -0.5853 -0.0453 -0.8095
vn -0.3829 -0.4441 -0.8101
vn -0.6106 -0.4801 -0.6298
vn -0.5453 -0.0667 -0.8356
vn -0.2389 -0.4926 -0.8368
vn -0.1130 -0.7715 -0.6261
vn -0.3918 -0.7851 -0.4796
vn 0.0997 -0.7567 -0.6462
vn -0.7970 0.1973 -0.5708
vn -0.6672 0.3203 -0.6725
vn -0.6110 0.3787 -0.6952
vn 0.7183 -0.6869 -0.1107
vn 0.8437 -0.5361 0.0286
vn 0.7795 -0.6024 0.1720
vn 0.6749 -0.7358 -0.0552
vn 0.9318 -0.2994 0.2054
vn 0.8464 -0.3361 0.4131
vn 0.6695 -0.6826 0.2931
vn 0.5968 -0.8023 -0.0104
vn 0.7054 -0.4050 0.5817
vn -0.8342 0.3962 -0.3835
vn -0.8461 0.5033 -0.1754
vn -0.6629 0.6968 -0.2738
vn -0.6725 0.5577 -0.4865
vn -0.8101 0.5814 0.0758
vn -0.6185 0.7855 0.0199
vn -0.4894 0.7945 -0.3594
vn -0.5449 0.6431 -0.5380
vn -0.4169 0.9060 -0.0728
vt 0.437500 0.062351
vt 0.500000 0.062283
vt 0.500000 0.123264
vt 0.437500 0.123806
vt 0.562500 0.062351
vt 0.562500 0.123806
vt 0.500000 0.181207
vt 0.437500 0.182983
vt 0.562500 0.182983
vt 0.375000 0.000000
vt 0.437500 0.000000
vt 0.375000 0.062500
vt 0.500000 0.000000
vt 0.562500 0.000000
vt 0.625000 0.000000
vt 0.625000 0.062500
vt 0.625000 0.125000
vt 0.625000 0.187500
vt 0.625000 0.250000
vt 0.562500 0.235677
vt 0.500000 0.232639
vt 0.437500 0.235677
vt 0.375000 0.187500
vt 0.375000 0.250000
vt 0.375000 0.125000
vt 0.437500 0.406399
vt 0.500000 0.406467
vt 0.500000 0.439236
vt 0.437500 0.438694
vt 0.562500 0.406399
vt 0.562500 0.438694
vt 0.500000 0.475043
vt 0.437609 0.473267
vt 0.562392 0.473267
vt 0.375000 0.375000
vt 0.437500 0.375000
vt 0.375000 0.406250
vt 0.500000 0.375000
vt 0.562500 0.375000
vt 0.625000 0.375000
vt 0.625000 0.406250
vt 0.625000 0.437500
vt 0.625000 0.468750
vt 0.625000 0.500000
vt 0.561252 0.514350
vt 0.500000 0.517361
vt 0.438748 0.514350
vt 0.375000 0.468750
vt 0.375000 0.500000
vt 0.375000 0.437500
vt 0.441976 0.566976
vt 0.500000 0.568576
vt 0.500000 0.625000
vt 0.443576 0.625000
vt 0.558024 0.566976
vt 0.556424 0.625000
vt 0.500000 0.681424
vt 0.441976 0.683024
vt 0.558024 0.683024
vt 0.389350 0.563748
vt 0.610650 0.563748
vt 0.607639 0.625000
vt 0.610650 0.686252
vt 0.625000 0.750000
vt 0.561252 0.735650
vt 0.500000 0.732639
vt 0.438748 0.735650
vt 0.389350 0.686252
vt 0.375000 0.750000
vt 0.392361 0.625000
vt 0.437500 0.906250
vt 0.500000 0.906250
vt 0.500000 0.937500
vt 0.437500 0.937500
vt 0.562500 0.906250
vt 0.562500 0.937500
vt 0.500000 0.968750
vt 0.437500 0.968750
vt 0.562500 0.968750
vt 0.375000 0.875000
vt 0.437500 0.875000
vt 0.375000 0.906250
vt 0.500000 0.875000
vt 0.562500 0.875000
vt 0.625000 0.875000
vt 0.625000 0.906250
vt 0.625000 0.937500
vt 0.625000 0.968750
vt 0.625000 1.000000
vt 0.562500 1.000000
vt 0.500000 1.000000
vt 0.437500 1.000000
vt 0.375000 0.968750
vt 0.375000 1.000000
vt 0.375000 0.937500
vt 0.281399 0.562500
vt 0.313694 0.562500
vt 0.314236 0.625000
vt 0.281467 0.625000
vt 0.348267 0.562609
vt 0.350043 0.625000
vt 0.313694 0.687500
vt 0.281399 0.687500
vt 0.348267 0.687392
vt 0.250000 0.500000
vt 0.281250 0.500000
vt 0.250000 0.562500
vt 0.312500 0.500000
vt 0.343750 0.500000
vt 0.343750 0.750000
vt 0.312500 0.750000
vt 0.281250 0.750000
vt 0.250000 0.687500
vt 0.250000 0.750000
vt 0.250000 0.625000
vt 0.781250 0.562500
vt 0.812500 0.562500
vt 0.812500 0.625000
vt 0.781250 0.625000
vt 0.843750 0.562500
vt 0.843750 0.625000
vt 0.812500 0.687500
vt 0.781250 0.687500
vt 0.843750 0.687500
vt 0.750000 0.500000
vt 0.781250 0.500000
vt 0.750000 0.562500
vt 0.812500 0.500000
vt 0.843750 0.500000
vt 0.875000 0.500000
vt 0.875000 0.562500
vt 0.875000 0.625000
vt 0.875000 0.687500
vt 0.875000 0.750000
vt 0.843750 0.750000
vt 0.812500 0.750000
vt 0.781250 0.750000
vt 0.750000 0.687500
vt 0.750000 0.750000
vt 0.750000 0.625000
vt 0.651733 0.562609
vt 0.686306 0.562500
vt 0.685764 0.625000
vt 0.649957 0.625000
vt 0.718601 0.562500
vt 0.718533 0.625000
vt 0.686306 0.687500
vt 0.651733 0.687391
vt 0.718601 0.687500
vt 0.656250 0.500000
vt 0.687500 0.500000
vt 0.718750 0.500000
vt 0.718750 0.750000
vt 0.687500 0.750000
vt 0.656250 0.750000
vt 0.156250 0.562500
vt 0.187500 0.562500
vt 0.187500 0.625000
vt 0.156250 0.625000
vt 0.218750 0.562500
vt 0.218750 0.625000
vt 0.187500 0.687500
vt 0.156250 0.687500
vt 0.218750 0.687500
vt 0.125000 0.500000
vt 0.156250 0.500000
vt 0.125000 0.562500
vt 0.187500 0.500000
vt 0.218750 0.500000
vt 0.218750 0.750000
vt 0.187500 0.750000
vt 0.156250 0.750000
vt 0.125000 0.687500
vt 0.125000 0.750000
vt 0.125000 0.625000
vt 0.437609 0.776733
vt 0.500000 0.774957
vt 0.500000 0.810764
vt 0.437500 0.811306
vt 0.562392 0.776734
vt 0.562500 0.811306
vt 0.500000 0.843533
vt 0.437500 0.843601
vt 0.562500 0.843601
vt 0.375000 0.781250
vt 0.625000 0.781250
vt 0.625000 0.812500
vt 0.625000 0.843750
vt 0.375000 0.843750
vt 0.375000 0.812500
vt 0.437500 0.276733
vt 0.500000 0.274957
vt 0.500000 0.310764
vt 0.437500 0.311306
vt 0.562500 0.276733
vt 0.562500 0.311306
vt 0.500000 0.343533
vt 0.437500 0.343601
vt 0.562500 0.343601
vt 0.375000 0.281250
vt 0.625000 0.281250
vt 0.625000 0.312500
vt 0.625000 0.343750
vt 0.375000 0.343750
vt 0.375000 0.312500
s 1
usemtl rock
f 73/1/1 74/2/2 77/3/3 76/4/4
f 74/2/2 75/5/5 78/6/6 77/3/3
f 76/4/4 77/3/3 80/7/7 79/8/8
f 77/3/3 78/6/6 81/9/9 80/7/7
f 1/10/10 16/11/11 73/1/1 15/12/12
f 16/11/11 17/13/13 74/2/2 73/1/1
f 17/13/13 18/14/14 75/5/5 74/2/2
f 18/14/14 2/15/15 19/16/16 75/5/5
f 75/5/5 19/16/16 20/17/17 78/6/6
f 78/6/6 20/17/17 21/18/18 81/9/9
f 81/9/9 21/18/18 4/19/19 22/20/20
f 80/7/7 81/9/9 22/20/20 23/21/21
f 79/8/8 80/7/7 23/21/21 24/22/22
f 13/23/23 79/8/8 24/22/22 3/24/24
f 14/25/25 76/4/4 79/8/8 13/23/23
f 15/12/12 73/1/1 76/4/4 14/25/25
f 82/26/26 83/27/27 86/28/28 85/29/29
f 83/27/27 84/30/30 87/31/31 86/28/28
f 85/29/29 86/28/28 89/32/32 88/33/33
f 86/28/28 87/31/31 90/34/34 89/32/32
f 9/35/35 72/36/36 82/26/26 51/37/37
f 72/36/36 71/38/38 83/27/27 82/26/26
f 71/38/38 70/39/39 84/30/30 83/27/27
f 70/39/39 10/40/40 28/41/41 84/30/30
f 84/30/30 28/41/41 29/42/42 87/31/31
f 87/31/31 29/42/42 30/43/43 90/34/34
f 90/34/34 30/43/43 8/44/44 31/45/45
f 89/32/32 90/34/34 31/45/45 32/46/46
f 88/33/33 89/32/32 32/46/46 33/47/47
f 49/48/48 88/33/33 33/47/47 7/49/49
f 50/50/50 85/29/29 88/33/33 49/48/48
f 51/37/37 82/26/26 85/29/29 50/50/50
f 91/51/51 92/52/52 95/53/53 94/54/54
f 92/52/52 93/55/55 96/56/56 95/53/53
f 94/54/54 95/53/53 98/57/57 97/58/58
f 95/53/53 96/56/56 99/59/59 98/57/57
f 7/49/49 33/47/47 91/51/51 36/60/60
f 33/47/47 32/46/46 92/52/52 91/51/51
f 32/46/46 31/45/45 93/55/55 92/52/52
f 31/45/45 8/44/44 37/61/61 93/55/55
f 93/55/55 37/61/61 38/62/62 96/56/56
f 96/56/56 38/62/62 39/63/63 99/59/59
f 99/59/59 39/63/63 6/64/64 40/65/65
f 98/57/57 99/59/59 40/65/65 41/66/66
f 97/58/58 98/57/57 41/66/66 42/67/67
f 34/68/68 97/58/58 42/67/67 5/69/69
f 35/70/70 94/54/54 97/58/58 34/68/68
f 36/60/60 91/51/51 94/54/54 35/70/70
f 100/71/71 101/72/72 104/73/73 103/74/74
f 101/72/72 102/75/75 105/76/76 104/73/73
f 103/74/74 104/73/73 107/77/77 106/78/78
f 104/73/73 105/76/76 108/79/79 107/77/77
f 11/80/80 69/81/81 100/71/71 57/82/82
f 69/81/81 68/83/83 101/72/72 100/71/71
f 68/83/83 67/84/84 102/75/75 101/72/72
f 67/84/84 12/85/85 46/86/86 102/75/75
f 102/75/75 46/86/86 47/87/87 105/76/76
f 105/76/76 47/87/87 48/88/88 108/79/79
f 108/79/79 48/88/88 2/89/15 18/90/14
f 107/77/77 108/79/79 18/90/14 17/91/13
f 106/78/78 107/77/77 17/91/13 16/92/11
f 55/93/89 106/78/78 16/92/11 1/94/10
f 56/95/90 103/74/74 106/78/78 55/93/89
f 57/82/82 100/71/71 103/74/74 56/95/90
f 109/96/91 110/97/92 113/98/93 112/99/94
f 110/97/92 111/100/95 114/101/96 113/98/93
f 112/99/94 113/98/93 116/102/97 115/103/98
f 113/98/93 114/101/96 117/104/99 116/102/97
f 9/105/35 51/106/37 109/96/91 64/107/100
f 51/106/37 50/108/50 110/97/92 109/96/91
f 50/108/50 49/109/48 111/100/95 110/97/92
f 49/109/48 7/49/49 36/60/60 111/100/95
f 111/100/95 36/60/60 35/70/70 114/101/96
f 114/101/96 35/70/70 34/68/68 117/104/99
f 117/104/99 34/68/68 5/69/69 45/110/101
f 116/102/97 117/104/99 45/110/101 44/111/102
f 115/103/98 116/102/97 44/111/102 43/112/103
f 66/113/104 115/103/98 43/112/103 11/114/80
f 65/115/105 112/99/94 115/103/98 66/113/104
f 64/107/100 109/96/91 112/99/94 65/115/105
f 118/116/106 119/117/107 122/118/108 121/119/109
f 119/117/107 120/120/110 123/121/111 122/118/108
f 121/119/109 122/118/108 125/122/112 124/123/113
f 122/118/108 123/121/111 126/124/114 125/122/112
f 10/125/40 54/126/115 118/116/106 61/127/116
f 54/126/115 53/128/117 119/117/107 118/116/106
f 53/128/117 52/129/118 120/120/110 119/117/107
f 52/129/118 4/130/19 21/131/18 120/120/110
f 120/120/110 21/131/18 20/132/17 123/121/111
f 123/121/111 20/132/17 19/133/16 126/124/114
f 126/124/114 19/133/16 2/134/15 48/135/88
f 125/122/112 126/124/114 48/135/88 47/136/87
f 124/123/113 125/122/112 47/136/87 46/137/86
f 63/138/119 124/123/113 46/137/86 12/139/85
f 62/140/120 121/119/109 124/123/113 63/138/119
f 61/127/116 118/116/106 121/119/109 62/140/120
f 127/141/121 128/142/122 131/143/123 130/144/124
f 128/142/122 129/145/125 132/146/126 131/143/123
f 130/144/124 131/143/123 134/147/127 133/148/128
f 131/143/123 132/146/126 135/149/129 134/147/127
f 8/44/44 30/150/43 127/141/121 37/61/61
f 30/150/43 29/151/42 128/142/122 127/141/121
f 29/151/42 28/152/41 129/145/125 128/142/122
f 28/152/41 10/125/40 61/127/116 129/145/125
f 129/145/125 61/127/116 62/140/120 132/146/126
f 132/146/126 62/140/120 63/138/119 135/149/129
f 135/149/129 63/138/119 12/139/85 60/153/130
f 134/147/127 135/149/129 60/153/130 59/154/131
f 133/148/128 134/147/127 59/154/131 58/155/132
f 39/63/63 133/148/128 58/155/132 6/64/64
f 38/62/62 130/144/124 133/148/128 39/63/63
f 37/61/61 127/141/121 130/144/124 38/62/62
f 136/156/133 137/157/134 140/158/135 139/159/136
f 137/157/134 138/160/137 141/161/138 140/158/135
f 139/159/136 140/158/135 143/162/139 142/163/140
f 140/158/135 141/161/138 144/164/141 143/162/139
f 3/165/24 27/166/142 136/156/133 13/167/23
f 27/166/142 26/168/143 137/157/134 136/156/133
f 26/168/143 25/169/144 138/160/137 137/157/134
f 25/169/144 9/105/35 64/107/100 138/160/137
f 138/160/137 64/107/100 65/115/105 141/161/138
f 141/161/138 65/115/105 66/113/104 144/164/141
f 144/164/141 66/113/104 11/114/80 57/170/82
f 143/162/139 144/164/141 57/170/82 56/171/90
f 142/163/140 143/162/139 56/171/90 55/172/89
f 15/173/12 142/163/140 55/172/89 1/174/10
f 14/175/25 139/159/136 142/163/140 15/173/12
f 13/167/23 136/156/133 139/159/136 14/175/25
f 145/176/145 146/177/146 149/178/147 148/179/148
f 146/177/146 147/180/149 150/181/150 149/178/147
f 148/179/148 149/178/147 152/182/151 151/183/152
f 149/178/147 150/181/150 153/184/153 152/182/151
f 5/69/69 42/67/67 145/176/145 45/185/101
f 42/67/67 41/66/66 146/177/146 145/176/145
f 41/66/66 40/65/65 147/180/149 146/177/146
f 40/65/65 6/64/64 58/186/132 147/180/149
f 147/180/149 58/186/132 59/187/131 150/181/150
f 150/181/150 59/187/131 60/188/130 153/184/153
f 153/184/153 60/188/130 12/85/85 67/84/84
f 152/182/151 153/184/153 67/84/84 68/83/83
f 151/183/152 152/182/151 68/83/83 69/81/81
f 43/189/103 151/183/152 69/81/81 11/80/80
f 44/190/102 148/179/148 151/183/152 43/189/103
f 45/185/101 145/176/145 148/179/148 44/190/102
f 154/191/154 155/192/155 158/193/156 157/194/157
f 155/192/155 156/195/158 159/196/159 158/193/156
f 157/194/157 158/193/156 161/197/160 160/198/161
f 158/193/156 159/196/159 162/199/162 161/197/160
f 3/24/24 24/22/22 154/191/154 27/200/142
f 24/22/22 23/21/21 155/192/155 154/191/154
f 23/21/21 22/20/20 156/195/158 155/192/155
f 22/20/20 4/19/19 52/201/118 156/195/158
f 156/195/158 52/201/118 53/202/117 159/196/159
f 159/196/159 53/202/117 54/203/115 162/199/162
f 162/199/162 54/203/115 10/40/40 70/39/39
f 161/197/160 162/199/162 70/39/39 71/38/38
f 160/198/161 161/197/160 71/38/38 72/36/36
f 25/204/144 160/198/161 72/36/36 9/35/35
f 26/205/143 157/194/157 160/198/161 25/204/144
f 27/200/142 154/191/154 157/194/157 26/205/143
