# Blender 4.0.1
# www.blender.org
mtllib vehicle_discs.mtl
o car_discs
v -2.023053 0.792917 -2.975347
v -2.023053 0.591285 -2.929326
v -2.023053 0.429589 -2.800377
v -2.023053 0.339855 -2.614042
v -2.023053 0.339855 -2.407225
v -2.023053 0.429589 -2.220889
v -2.023053 0.591285 -2.091941
v -2.023053 0.792917 -2.045920
v -2.023053 0.994548 -2.091941
v -2.023053 1.156244 -2.220889
v -2.023053 1.245979 -2.407225
v -2.023053 1.245979 -2.614042
v -2.023053 1.156244 -2.800378
v -2.023053 0.994548 -2.929326
v -2.075602 0.591285 -2.929326
v -2.075602 0.792917 -2.975347
v -2.075602 0.429589 -2.800377
v -2.075602 0.339855 -2.614042
v -2.075602 0.339855 -2.407225
v -2.075602 0.429589 -2.220889
v -2.075602 0.591285 -2.091941
v -2.075602 0.792917 -2.045920
v -2.075602 0.994548 -2.091941
v -2.075602 1.156244 -2.220889
v -2.075602 1.245979 -2.407225
v -2.075602 1.245979 -2.614042
v -2.075602 1.156244 -2.800378
v -2.075602 0.994548 -2.929326
v -2.023053 0.792917 3.064581
v -2.023053 0.591285 3.110602
v -2.023053 0.429589 3.239550
v -2.023053 0.339855 3.425885
v -2.023053 0.339855 3.632703
v -2.023053 0.591285 3.947986
v -2.023053 0.994548 3.947986
v -2.023053 1.156244 3.819039
v -2.023053 1.245979 3.632703
v -2.023053 1.245979 3.425885
v -2.023053 1.156244 3.239550
v -2.023053 0.994548 3.110602
v -2.075602 0.792917 3.064581
v -2.075602 0.339855 3.425885
v -2.075602 1.245979 3.425885
v -2.023053 0.429589 3.819038
v -2.023053 0.792917 3.994007
v -2.075602 0.591285 3.110602
v -2.075602 0.429589 3.239550
v -2.075602 0.339855 3.632703
v -2.075602 0.429589 3.819038
v -2.075602 0.591285 3.947986
v -2.075602 0.792917 3.994007
v -2.075602 0.994548 3.947986
v -2.075602 1.156244 3.819039
v -2.075602 1.245979 3.632703
v -2.075602 1.156244 3.239550
v -2.075602 0.994548 3.110602
v -5.518674 0.429589 3.819038
v -5.518674 0.591285 3.947986
v -5.518674 0.792917 3.994007
v -5.518674 0.994548 3.947986
v -5.518674 1.156244 3.819039
v -5.466125 0.591285 3.110602
v -5.466125 0.792917 3.064581
v -5.466125 0.429589 3.239550
v -5.466125 0.339855 3.425885
v -5.466125 0.339855 3.632703
v -5.466125 0.429589 3.819038
v -5.466125 0.591285 3.947986
v -5.466125 0.792917 3.994007
v -5.466125 0.994548 3.947986
v -5.466125 1.156244 3.819039
v -5.466125 1.245979 3.632703
v -5.466125 1.245979 3.425885
v -5.466125 1.156244 3.239550
v -5.466125 0.994548 3.110602
v -5.518674 0.792917 -2.975347
v -5.518674 0.591285 -2.929326
v -5.518674 0.429589 -2.800377
v -5.518674 0.339855 -2.614042
v -5.518674 0.339855 -2.407225
v -5.518674 0.429589 -2.220889
v -5.518674 0.591285 -2.091941
v -5.518674 0.792917 -2.045920
v -5.518674 0.994548 -2.091941
v -5.518674 1.156244 -2.220889
v -5.518674 1.245979 -2.407225
v -5.518674 1.245979 -2.614042
v -5.518674 1.156244 -2.800378
v -5.518674 0.994548 -2.929326
v -5.466125 0.591285 -2.929326
v -5.466125 0.792917 -2.975347
v -5.466125 0.429589 -2.800377
v -5.466125 0.339855 -2.614042
v -5.466125 0.339855 -2.407225
v -5.466125 0.429589 -2.220889
v -5.466125 0.591285 -2.091941
v -5.466125 0.792917 -2.045920
v -5.466125 0.994548 -2.091941
v -5.466125 1.156244 -2.220889
v -5.466125 1.245979 -2.407225
v -5.466125 1.245979 -2.614042
v -5.466125 1.156244 -2.800378
v -5.466125 0.994548 -2.929326
v -5.518674 0.792917 3.064581
v -5.518674 0.591285 3.110602
v -5.518674 0.429589 3.239550
v -5.518674 0.339855 3.425885
v -5.518674 0.339855 3.632703
v -5.518674 0.591285 3.947986
v -5.518674 0.994548 3.947986
v -5.518674 1.156244 3.819039
v -5.518674 1.245979 3.632703
v -5.518674 1.245979 3.425885
v -5.518674 1.156244 3.239550
v -5.518674 0.994548 3.110602
v -5.466125 0.792917 3.064581
v -5.466125 0.339855 3.425885
v -5.466125 1.245979 3.425885
v -5.518674 0.429589 3.819038
v -5.518674 0.792917 3.994007
v -5.466125 0.591285 3.110602
v -5.466125 0.429589 3.239550
v -5.466125 0.339855 3.632703
v -5.466125 0.429589 3.819038
v -5.466125 0.591285 3.947986
v -5.466125 0.792917 3.994007
v -5.466125 0.994548 3.947986
v -5.466125 1.156244 3.819039
v -5.466125 1.245979 3.632703
v -5.466125 1.156244 3.239550
v -5.466125 0.994548 3.110602
v -2.023053 0.429589 3.819038
v -2.023053 0.591285 3.947986
v -2.023053 0.792917 3.994007
v -2.023053 0.994548 3.947986
v -2.023053 1.156244 3.819039
v -2.075602 0.591285 3.110602
v -2.075602 0.792917 3.064581
v -2.075602 0.429589 3.239550
v -2.075602 0.339855 3.425885
v -2.075602 0.339855 3.632703
v -2.075602 0.429589 3.819038
v -2.075602 0.591285 3.947986
v -2.075602 0.792917 3.994007
v -2.075602 0.994548 3.947986
v -2.075602 1.156244 3.819039
v -2.075602 1.245979 3.632703
v -2.075602 1.245979 3.425885
v -2.075602 1.156244 3.239550
v -2.075602 0.994548 3.110602
vn 1.0000 -0.0000 -0.0000
vn -1.0000 -0.0000 -0.0000
vn -0.0000 0.6235 0.7818
vn -0.0000 -0.6235 -0.7818
vn -0.0000 0.9010 0.4339
vn -0.0000 -0.9010 -0.4339
vn -0.0000 1.0000 -0.0000
vn -0.0000 -1.0000 -0.0000
vn -0.0000 0.9010 -0.4339
vn -0.0000 -0.9010 0.4339
vn -0.0000 0.6235 -0.7818
vn -0.0000 -0.6235 0.7818
vn -0.0000 0.2225 -0.9749
vn -0.0000 -0.2225 0.9749
vn -0.0000 0.2225 0.9749
vn -0.0000 -0.2225 -0.9749
vn -0.6603 -0.3259 -0.6766
vn -0.6603 -0.5872 -0.4683
vn -0.6603 -0.7322 -0.1671
vn -0.6603 -0.7322 0.1671
vn -0.6603 -0.5872 0.4683
vn -0.6603 -0.3259 0.6766
vn -0.6603 -0.0000 0.7510
vn -0.6603 0.3259 0.6766
vn -0.6603 0.5872 0.4683
vn -0.6603 0.7322 0.1671
vn -0.6603 0.7322 -0.1671
vn -0.6603 0.5872 -0.4683
vn -0.6603 0.3259 -0.6766
vn -0.6603 -0.0000 -0.7510
vn 0.6603 0.5872 0.4683
vn 0.6603 0.3259 0.6766
vn 0.6603 -0.3259 0.6766
vn 0.6603 -0.5872 0.4683
vn 0.6603 -0.0000 0.7510
vn 0.8638 0.3142 0.3939
vn 0.8638 -0.3142 0.3939
vn -0.0000 0.4339 0.9010
vn -0.0000 -0.4339 0.9010
vn -0.0000 -0.0000 1.0000
vn 0.6603 -0.3259 -0.6766
vn 0.6603 -0.0000 -0.7510
vn 0.6603 0.3259 -0.6766
vn 0.6603 0.5872 -0.4683
vn 0.6603 0.7322 -0.1671
vn 0.6603 0.7322 0.1671
vn 0.6603 -0.7322 0.1671
vn 0.6603 -0.7322 -0.1671
vn 0.6603 -0.5872 -0.4683
vn -0.8638 -0.3142 0.3939
vn -0.8638 0.3142 0.3939
vt 0.000000 0.000000
s 0
usemtl car
f 2/1/1 1/1/1 14/1/1 13/1/1 12/1/1 11/1/1 10/1/1 9/1/1 8/1/1 7/1/1 6/1/1 5/1/1 4/1/1 3/1/1
f 15/1/2 17/1/2 18/1/2 19/1/2 20/1/2 21/1/2 22/1/2 23/1/2 24/1/2 25/1/2 26/1/2 27/1/2 28/1/2 16/1/2
f 10/1/3 24/1/3 23/1/3 9/1/3
f 3/1/4 17/1/4 15/1/4 2/1/4
f 11/1/5 25/1/5 24/1/5 10/1/5
f 4/1/6 18/1/6 17/1/6 3/1/6
f 12/1/7 26/1/7 25/1/7 11/1/7
f 5/1/8 19/1/8 18/1/8 4/1/8
f 13/1/9 27/1/9 26/1/9 12/1/9
f 6/1/10 20/1/10 19/1/10 5/1/10
f 14/1/11 28/1/11 27/1/11 13/1/11
f 7/1/12 21/1/12 20/1/12 6/1/12
f 1/1/13 16/1/13 28/1/13 14/1/13
f 8/1/14 22/1/14 21/1/14 7/1/14
f 9/1/15 23/1/15 22/1/15 8/1/15
f 2/1/16 15/1/16 16/1/16 1/1/16
f 30/1/1 29/1/1 40/1/1 39/1/1 38/1/1 37/1/1 36/1/1 35/1/1 45/1/1 34/1/1 44/1/1 33/1/1 32/1/1 31/1/1
f 31/1/4 47/1/4 46/1/4 30/1/4
f 37/1/5 54/1/5 53/1/5 36/1/5
f 32/1/6 42/1/6 47/1/6 31/1/6
f 38/1/7 43/1/7 54/1/7 37/1/7
f 33/1/8 48/1/8 42/1/8 32/1/8
f 39/1/9 55/1/9 43/1/9 38/1/9
f 44/1/10 49/1/10 48/1/10 33/1/10
f 40/1/11 56/1/11 55/1/11 39/1/11
f 29/1/13 41/1/13 56/1/13 40/1/13
f 30/1/16 46/1/16 41/1/16 29/1/16
s 1
f 46/1/17 47/1/18 42/1/19 48/1/20 49/1/21 50/1/22 51/1/23 52/1/24 53/1/25 54/1/26 43/1/27 55/1/28 56/1/29 41/1/30
f 36/1/31 53/1/25 52/1/24 35/1/32
f 34/1/33 50/1/22 49/1/21 44/1/34
f 45/1/35 51/1/23 50/1/22 34/1/33
f 35/1/32 52/1/24 51/1/23 45/1/35
f 62/1/1 63/1/1 75/1/1 74/1/1 73/1/1 72/1/1 71/1/36 70/1/32 69/1/35 68/1/33 67/1/37 66/1/1 65/1/1 64/1/1
f 61/1/3 60/1/38 70/1/32 71/1/36
f 58/1/39 57/1/12 67/1/37 68/1/33
f 59/1/40 58/1/39 68/1/33 69/1/35
f 60/1/38 59/1/40 69/1/35 70/1/32
s 0
f 77/1/2 78/1/2 79/1/2 80/1/2 81/1/2 82/1/2 83/1/2 84/1/2 85/1/2 86/1/2 87/1/2 88/1/2 89/1/2 76/1/2
f 90/1/1 91/1/1 103/1/1 102/1/1 101/1/1 100/1/1 99/1/1 98/1/1 97/1/1 96/1/1 95/1/1 94/1/1 93/1/1 92/1/1
f 85/1/3 84/1/3 98/1/3 99/1/3
f 78/1/4 77/1/4 90/1/4 92/1/4
f 86/1/5 85/1/5 99/1/5 100/1/5
f 79/1/6 78/1/6 92/1/6 93/1/6
f 87/1/7 86/1/7 100/1/7 101/1/7
f 80/1/8 79/1/8 93/1/8 94/1/8
f 88/1/9 87/1/9 101/1/9 102/1/9
f 81/1/10 80/1/10 94/1/10 95/1/10
f 89/1/11 88/1/11 102/1/11 103/1/11
f 82/1/12 81/1/12 95/1/12 96/1/12
f 76/1/13 89/1/13 103/1/13 91/1/13
f 83/1/14 82/1/14 96/1/14 97/1/14
f 84/1/15 83/1/15 97/1/15 98/1/15
f 77/1/16 76/1/16 91/1/16 90/1/16
f 105/1/2 106/1/2 107/1/2 108/1/2 119/1/2 109/1/2 120/1/2 110/1/2 111/1/2 112/1/2 113/1/2 114/1/2 115/1/2 104/1/2
f 106/1/4 105/1/4 121/1/4 122/1/4
f 112/1/5 111/1/5 128/1/5 129/1/5
f 107/1/6 106/1/6 122/1/6 117/1/6
f 113/1/7 112/1/7 129/1/7 118/1/7
f 108/1/8 107/1/8 117/1/8 123/1/8
f 114/1/9 113/1/9 118/1/9 130/1/9
f 119/1/10 108/1/10 123/1/10 124/1/10
f 115/1/11 114/1/11 130/1/11 131/1/11
f 104/1/13 115/1/13 131/1/13 116/1/13
f 105/1/16 104/1/16 116/1/16 121/1/16
s 1
f 121/1/41 116/1/42 131/1/43 130/1/44 118/1/45 129/1/46 128/1/31 127/1/32 126/1/35 125/1/33 124/1/34 123/1/47 117/1/48 122/1/49
f 111/1/25 110/1/24 127/1/32 128/1/31
f 109/1/22 119/1/21 124/1/34 125/1/33
f 120/1/23 109/1/22 125/1/33 126/1/35
f 110/1/24 120/1/23 126/1/35 127/1/32
f 137/1/2 139/1/2 140/1/2 141/1/2 142/1/50 143/1/22 144/1/23 145/1/24 146/1/51 147/1/2 148/1/2 149/1/2 150/1/2 138/1/2
f 136/1/3 146/1/51 145/1/24 135/1/38
f 133/1/39 143/1/22 142/1/50 132/1/12
f 134/1/40 144/1/23 143/1/22 133/1/39
f 135/1/38 145/1/24 144/1/23 134/1/40
