# Blender 4.0.1
# www.blender.org
mtllib wires.mtl
o wires.002
v -11.702332 10.013723 0.102597
v -11.702332 10.218918 0.102597
v -11.702332 10.013723 -0.102597
v -11.702332 10.218918 -0.102597
v -11.497138 10.013723 0.102597
v -11.497138 10.218918 0.102597
v -11.497138 10.013723 -0.102597
v -11.497138 10.218918 -0.102597
v -11.702332 10.013723 36.910114
v -11.702332 10.218918 36.910114
v -11.497138 10.013723 36.910114
v -11.497138 10.218918 36.910114
v -11.702332 10.013723 -39.948498
v -11.702332 10.218918 -39.948498
v -11.497138 10.013723 -39.948498
v -11.497138 10.218918 -39.948498
v -11.702332 9.301962 9.304476
v -11.702332 8.968523 18.506355
v -11.702332 9.301962 27.708233
v -11.497138 9.301962 27.708233
v -11.497138 8.968523 18.506353
v -11.497138 9.301962 9.304475
v -11.497138 9.096767 27.708233
v -11.497138 8.763329 18.506353
v -11.497138 9.096767 9.304475
v -11.702332 9.096767 9.304476
v -11.702332 8.763329 18.506355
v -11.702332 9.096767 27.708233
v -11.497138 9.013408 -10.064072
v -11.497138 8.413218 -20.025547
v -11.497138 9.013408 -29.987020
v -11.497138 9.218602 -29.987020
v -11.497138 8.618413 -20.025545
v -11.497138 9.218602 -10.064071
v -11.702332 9.013408 -10.064072
v -11.702332 8.413218 -20.025547
v -11.702332 9.013408 -29.987020
v -11.702332 9.218602 -29.987020
v -11.702332 8.618413 -20.025545
v -11.702332 9.218602 -10.064071
v -10.640499 10.013722 0.102597
v -10.640499 10.218917 0.102597
v -10.640499 10.013722 -0.102597
v -10.640499 10.218917 -0.102597
v -10.435305 10.013722 0.102597
v -10.435305 10.218917 0.102597
v -10.435305 10.013722 -0.102597
v -10.435305 10.218917 -0.102597
v -10.640499 10.013722 36.910110
v -10.640499 10.218917 36.910110
v -10.435305 10.013722 36.910110
v -10.435305 10.218917 36.910110
v -10.640499 10.013722 -39.948494
v -10.640499 10.218917 -39.948494
v -10.435305 10.013722 -39.948494
v -10.435305 10.218917 -39.948494
v -10.640499 9.301961 9.304475
v -10.640499 8.968522 18.506353
v -10.640499 9.301961 27.708231
v -10.435305 9.301961 27.708231
v -10.435305 8.968522 18.506351
v -10.435305 9.301961 9.304475
v -10.435305 9.096767 27.708231
v -10.435305 8.763329 18.506351
v -10.435305 9.096767 9.304475
v -10.640499 9.096767 9.304475
v -10.640499 8.763329 18.506353
v -10.640499 9.096767 27.708231
v -10.435305 9.013408 -10.064071
v -10.435305 8.413218 -20.025545
v -10.435305 9.013408 -29.987019
v -10.435305 9.218601 -29.987019
v -10.435305 8.618412 -20.025543
v -10.435305 9.218601 -10.064071
v -10.640499 9.013408 -10.064071
v -10.640499 8.413218 -20.025545
v -10.640499 9.013408 -29.987019
v -10.640499 9.218601 -29.987019
v -10.640499 8.618412 -20.025543
v -10.640499 9.218601 -10.064071
v -9.314384 10.013722 0.102597
v -9.314384 10.218917 0.102597
v -9.314384 10.013722 -0.102597
v -9.314384 10.218917 -0.102597
v -9.109191 10.013722 0.102597
v -9.109191 10.218917 0.102597
v -9.109191 10.013722 -0.102597
v -9.109191 10.218917 -0.102597
v -9.314384 10.013722 36.910110
v -9.314384 10.218917 36.910110
v -9.109191 10.013722 36.910110
v -9.109191 10.218917 36.910110
v -9.314384 10.013722 -39.948494
v -9.314384 10.218917 -39.948494
v -9.109191 10.013722 -39.948494
v -9.109191 10.218917 -39.948494
v -9.314384 9.301961 9.304475
v -9.314384 8.968522 18.506353
v -9.314384 9.301961 27.708231
v -9.109191 9.301961 27.708231
v -9.109191 8.968522 18.506351
v -9.109191 9.301961 9.304475
v -9.109191 9.096767 27.708231
v -9.109191 8.763329 18.506351
v -9.109191 9.096767 9.304475
v -9.314384 9.096767 9.304475
v -9.314384 8.763329 18.506353
v -9.314384 9.096767 27.708231
v -9.109191 9.013408 -10.064071
v -9.109191 8.413218 -20.025545
v -9.109191 9.013408 -29.987019
v -9.109191 9.218601 -29.987019
v -9.109191 8.618412 -20.025543
v -9.109191 9.218601 -10.064071
v -9.314384 9.013408 -10.064071
v -9.314384 8.413218 -20.025545
v -9.314384 9.013408 -29.987019
v -9.314384 9.218601 -29.987019
v -9.314384 8.618412 -20.025543
v -9.314384 9.218601 -10.064071
vn -1.0000 -0.0000 -0.0000
vn 1.0000 -0.0000 -0.0000
vn -0.0000 0.9951 -0.0992
vn -0.0000 -1.0000 -0.0000
vn -0.0000 1.0000 -0.0000
vn -0.0000 -0.0000 1.0000
vn -0.0000 -0.9951 0.0992
vn -0.0000 -0.0000 -1.0000
vn -0.0000 -0.9950 -0.0999
vn -0.0000 0.9950 0.0999
vn -0.0000 -0.9951 -0.0992
vn -0.0000 -0.9993 -0.0362
vn -0.0000 -0.9993 0.0362
vn -0.0000 0.9951 0.0992
vn -0.0000 0.9993 0.0362
vn -0.0000 0.9993 -0.0362
vn -0.0000 0.9950 -0.0999
vn -0.0000 0.9982 -0.0601
vn -0.0000 0.9982 0.0601
vn -0.0000 -0.9950 0.0999
vn -0.0000 -0.9982 0.0601
vn -0.0000 -0.9982 -0.0601
vt 0.729840 0.906327
vt 0.729860 0.905611
vt 0.730566 0.905606
vt 0.730586 0.906333
vt 0.836128 0.908028
vt 0.836072 0.907308
vt 0.871314 0.907414
vt 0.871384 0.908133
vt 0.730585 0.907071
vt 0.730564 0.907789
vt 0.729866 0.907792
vt 0.729842 0.907065
vt 0.632709 0.905176
vt 0.632712 0.905888
vt 0.600420 0.905990
vt 0.600418 0.905281
vt 0.730570 0.904891
vt 0.729856 0.904891
vt 0.600418 0.904170
vt 0.601139 0.904170
vt 0.601139 0.904891
vt 0.600418 0.904891
vt 0.632765 0.907319
vt 0.632718 0.908033
vt 0.600426 0.908133
vt 0.600495 0.907420
vt 0.632762 0.906599
vt 0.600493 0.906696
vt 0.601860 0.904891
vt 0.601860 0.904170
vt 0.836074 0.906580
vt 0.871316 0.906687
vt 0.836134 0.905867
vt 0.836136 0.905145
vt 0.871392 0.905250
vt 0.871390 0.905972
vt 0.697116 0.907144
vt 0.697114 0.906424
vt 0.664902 0.907232
vt 0.664900 0.906508
vt 0.697161 0.905714
vt 0.664898 0.905784
vt 0.697166 0.907859
vt 0.664904 0.907957
vt 0.697159 0.904986
vt 0.664895 0.905069
vt 0.766012 0.905697
vt 0.766068 0.906405
vt 0.801046 0.905772
vt 0.801044 0.906495
vt 0.766013 0.904980
vt 0.801048 0.905053
vt 0.766066 0.907130
vt 0.801042 0.907219
vt 0.766007 0.907845
vt 0.801040 0.907943
s 0
usemtl pillar
f 1/1/1 2/2/1 4/3/1 3/4/1
f 32/5/2 31/6/2 15/7/2 16/8/2
f 7/9/2 8/10/2 6/11/2 5/12/2
f 20/13/3 19/14/3 10/15/3 12/16/3
f 3/4/4 7/9/4 5/12/4 1/1/4
f 8/17/5 4/3/5 2/2/5 6/18/5
f 11/19/6 12/20/6 10/21/6 9/22/6
f 23/23/2 20/24/2 12/25/2 11/26/2
f 19/14/1 28/27/1 9/28/1 10/15/1
f 28/27/7 23/23/7 11/26/7 9/28/7
f 13/29/8 14/21/8 16/20/8 15/30/8
f 31/6/9 37/31/9 13/32/9 15/7/9
f 38/33/10 32/34/10 16/35/10 14/36/10
f 37/31/1 38/33/1 14/36/1 13/32/1
f 1/1/11 5/12/11 25/37/11 26/38/11
f 26/38/12 25/37/12 24/39/12 27/40/12
f 27/40/13 24/39/13 23/23/13 28/27/13
f 2/2/1 1/1/1 26/38/1 17/41/1
f 17/41/1 26/38/1 27/40/1 18/42/1
f 18/42/1 27/40/1 28/27/1 19/14/1
f 5/12/2 6/11/2 22/43/2 25/37/2
f 25/37/2 22/43/2 21/44/2 24/39/2
f 24/39/2 21/44/2 20/24/2 23/23/2
f 6/18/14 2/2/14 17/41/14 22/45/14
f 22/45/15 17/41/15 18/42/15 21/46/15
f 21/46/16 18/42/16 19/14/16 20/13/16
f 3/4/1 4/3/1 40/47/1 35/48/1
f 35/48/1 40/47/1 39/49/1 36/50/1
f 36/50/1 39/49/1 38/33/1 37/31/1
f 4/3/17 8/17/17 34/51/17 40/47/17
f 40/47/18 34/51/18 33/52/18 39/49/18
f 39/49/19 33/52/19 32/34/19 38/33/19
f 7/9/20 3/4/20 35/48/20 29/53/20
f 29/53/21 35/48/21 36/50/21 30/54/21
f 30/54/22 36/50/22 37/31/22 31/6/22
f 8/10/2 7/9/2 29/53/2 34/55/2
f 34/55/2 29/53/2 30/54/2 33/56/2
f 33/56/2 30/54/2 31/6/2 32/5/2
f 41/1/1 42/2/1 44/3/1 43/4/1
f 72/5/2 71/6/2 55/7/2 56/8/2
f 47/9/2 48/10/2 46/11/2 45/12/2
f 60/13/3 59/14/3 50/15/3 52/16/3
f 43/4/4 47/9/4 45/12/4 41/1/4
f 48/17/5 44/3/5 42/2/5 46/18/5
f 51/19/6 52/20/6 50/21/6 49/22/6
f 63/23/2 60/24/2 52/25/2 51/26/2
f 59/14/1 68/27/1 49/28/1 50/15/1
f 68/27/7 63/23/7 51/26/7 49/28/7
f 53/29/8 54/21/8 56/20/8 55/30/8
f 71/6/9 77/31/9 53/32/9 55/7/9
f 78/33/10 72/34/10 56/35/10 54/36/10
f 77/31/1 78/33/1 54/36/1 53/32/1
f 41/1/11 45/12/11 65/37/11 66/38/11
f 66/38/12 65/37/12 64/39/12 67/40/12
f 67/40/13 64/39/13 63/23/13 68/27/13
f 42/2/1 41/1/1 66/38/1 57/41/1
f 57/41/1 66/38/1 67/40/1 58/42/1
f 58/42/1 67/40/1 68/27/1 59/14/1
f 45/12/2 46/11/2 62/43/2 65/37/2
f 65/37/2 62/43/2 61/44/2 64/39/2
f 64/39/2 61/44/2 60/24/2 63/23/2
f 46/18/14 42/2/14 57/41/14 62/45/14
f 62/45/15 57/41/15 58/42/15 61/46/15
f 61/46/16 58/42/16 59/14/16 60/13/16
f 43/4/1 44/3/1 80/47/1 75/48/1
f 75/48/1 80/47/1 79/49/1 76/50/1
f 76/50/1 79/49/1 78/33/1 77/31/1
f 44/3/17 48/17/17 74/51/17 80/47/17
f 80/47/18 74/51/18 73/52/18 79/49/18
f 79/49/19 73/52/19 72/34/19 78/33/19
f 47/9/20 43/4/20 75/48/20 69/53/20
f 69/53/21 75/48/21 76/50/21 70/54/21
f 70/54/22 76/50/22 77/31/22 71/6/22
f 48/10/2 47/9/2 69/53/2 74/55/2
f 74/55/2 69/53/2 70/54/2 73/56/2
f 73/56/2 70/54/2 71/6/2 72/5/2
f 81/1/1 82/2/1 84/3/1 83/4/1
f 112/5/2 111/6/2 95/7/2 96/8/2
f 87/9/2 88/10/2 86/11/2 85/12/2
f 100/13/3 99/14/3 90/15/3 92/16/3
f 83/4/4 87/9/4 85/12/4 81/1/4
f 88/17/5 84/3/5 82/2/5 86/18/5
f 91/19/6 92/20/6 90/21/6 89/22/6
f 103/23/2 100/24/2 92/25/2 91/26/2
f 99/14/1 108/27/1 89/28/1 90/15/1
f 108/27/7 103/23/7 91/26/7 89/28/7
f 93/29/8 94/21/8 96/20/8 95/30/8
f 111/6/9 117/31/9 93/32/9 95/7/9
f 118/33/10 112/34/10 96/35/10 94/36/10
f 117/31/1 118/33/1 94/36/1 93/32/1
f 81/1/11 85/12/11 105/37/11 106/38/11
f 106/38/12 105/37/12 104/39/12 107/40/12
f 107/40/13 104/39/13 103/23/13 108/27/13
f 82/2/1 81/1/1 106/38/1 97/41/1
f 97/41/1 106/38/1 107/40/1 98/42/1
f 98/42/1 107/40/1 108/27/1 99/14/1
f 85/12/2 86/11/2 102/43/2 105/37/2
f 105/37/2 102/43/2 101/44/2 104/39/2
f 104/39/2 101/44/2 100/24/2 103/23/2
f 86/18/14 82/2/14 97/41/14 102/45/14
f 102/45/15 97/41/15 98/42/15 101/46/15
f 101/46/16 98/42/16 99/14/16 100/13/16
f 83/4/1 84/3/1 120/47/1 115/48/1
f 115/48/1 120/47/1 119/49/1 116/50/1
f 116/50/1 119/49/1 118/33/1 117/31/1
f 84/3/17 88/17/17 114/51/17 120/47/17
f 120/47/18 114/51/18 113/52/18 119/49/18
f 119/49/19 113/52/19 112/34/19 118/33/19
f 87/9/20 83/4/20 115/48/20 109/53/20
f 109/53/21 115/48/21 116/50/21 110/54/21
f 110/54/22 116/50/22 117/31/22 111/6/22
f 88/10/2 87/9/2 109/53/2 114/55/2
f 114/55/2 109/53/2 110/54/2 113/56/2
f 113/56/2 110/54/2 111/6/2 112/5/2
