# Blender 4.0.1
# www.blender.org
mtllib cactus_8.mtl
o cactus1
v -23.117350 2.836464 15.369044
v -22.819578 2.836464 15.435022
v -22.562366 2.836464 15.271120
v -22.496389 2.836464 14.973348
v -22.660292 2.836464 14.716137
v -22.958065 2.836464 14.650159
v -23.215275 2.836464 14.814062
v -23.281254 2.836464 15.111834
v -23.117350 3.282990 15.369044
v -22.819578 3.282990 15.435022
v -22.562366 3.282990 15.271120
v -22.496389 3.282990 14.973348
v -22.660292 3.282990 14.716137
v -22.958065 3.282990 14.650159
v -23.215275 3.282990 14.814062
v -23.281254 3.282990 15.111834
v -23.002733 3.634299 15.205315
v -22.854305 3.634299 15.238201
v -22.726097 3.634299 15.156503
v -22.693211 3.634299 15.008076
v -22.774908 3.634299 14.879868
v -22.923336 3.634299 14.846980
v -23.051544 3.634299 14.928679
v -23.084433 3.634299 15.077106
v -23.117350 2.373764 15.369044
v -22.822294 2.514653 15.433121
v -22.577894 2.573011 15.260250
v -22.499105 2.514653 14.971446
v -22.660292 2.373764 14.716137
v -22.963810 2.232875 14.646136
v -23.208210 2.174517 14.819007
v -23.286999 2.232875 15.107811
v -22.849358 1.809030 15.556649
v -22.554302 1.949919 15.620726
v -22.309902 2.008277 15.447855
v -22.231113 1.949919 15.159050
v -22.392300 1.809030 14.903742
v -22.695818 1.668141 14.833740
v -22.940218 1.609783 15.006611
v -23.019007 1.668141 15.295416
v -21.615364 1.434010 16.420486
v -21.535179 1.745666 16.334146
v -21.373905 1.862381 16.103085
v -21.211990 1.745666 15.872472
v -21.158306 1.434010 15.767580
v -21.242699 1.113391 15.850975
v -21.403973 0.996676 16.082037
v -21.565887 1.113391 16.312651
v -21.658300 0.000000 16.870583
v -21.273115 0.000000 17.010727
v -20.869463 0.000000 16.939505
v -20.555500 0.000000 16.675997
v -20.415356 0.000000 16.290812
v -20.486578 0.000000 15.887159
v -20.750086 0.000000 15.573196
v -21.135271 0.000000 15.433051
v -21.538923 0.000000 15.504274
v -21.852886 0.000000 15.767782
v -21.993031 0.000000 16.152967
v -21.921808 0.000000 16.556620
v -21.658300 4.953877 16.870583
v -21.273115 4.953877 17.010727
v -20.869463 4.953877 16.939505
v -20.555500 4.953877 16.675997
v -20.415356 4.953877 16.290812
v -20.486578 4.953877 15.887159
v -20.750086 4.953877 15.573196
v -21.135271 4.953877 15.433051
v -21.538923 4.953877 15.504274
v -21.852886 4.953877 15.767782
v -21.993031 4.953877 16.152967
v -21.921808 4.953877 16.556620
v -21.584698 5.504363 16.765440
v -21.261944 5.504363 16.882872
v -20.923716 5.504363 16.823193
v -20.660643 5.504363 16.602394
v -20.543211 5.504363 16.279640
v -20.602890 5.504363 15.941413
v -20.823689 5.504363 15.678338
v -21.146442 5.504363 15.560907
v -21.484671 5.504363 15.620586
v -21.747744 5.504363 15.841385
v -21.865175 5.504363 16.164139
v -21.805496 5.504363 16.502367
v -21.396259 6.026957 16.496256
v -21.233343 6.026957 16.555531
v -21.062618 6.026957 16.525406
v -20.929827 6.026957 16.413956
v -20.870552 6.026957 16.251040
v -20.900677 6.026957 16.080315
v -21.012127 6.026957 15.947523
v -21.175043 6.026957 15.888248
v -21.345768 6.026957 15.918372
v -21.478559 6.026957 16.029823
v -21.537834 6.026957 16.192739
v -21.507710 6.026957 16.363464
v -18.914709 5.537593 16.297253
v -19.213732 5.537593 16.357313
v -19.382704 5.537593 16.611221
v -19.322643 5.537593 16.910244
v -19.068733 5.537593 17.079216
v -18.769711 5.537593 17.019156
v -18.600740 5.537593 16.765245
v -18.660799 5.537593 16.466225
v -18.914709 5.984118 16.297253
v -19.213732 5.984118 16.357313
v -19.382704 5.984118 16.611221
v -19.322643 5.984118 16.910244
v -19.068733 5.984118 17.079216
v -18.769711 5.984118 17.019156
v -18.600740 5.984118 16.765245
v -18.660799 5.984118 16.466225
v -18.953335 6.335427 16.493347
v -19.102385 6.335427 16.523283
v -19.186609 6.335427 16.649847
v -19.156672 6.335427 16.798897
v -19.030109 6.335427 16.883121
v -18.881058 6.335427 16.853184
v -18.796833 6.335427 16.726622
v -18.826771 6.335427 16.577572
v -18.914709 5.074893 16.297253
v -19.210478 5.215782 16.357954
v -19.364107 5.274140 16.614885
v -19.319389 5.215782 16.910885
v -19.068733 5.074893 17.079216
v -18.762829 4.934004 17.020512
v -18.609200 4.875646 16.763580
v -18.653917 4.934004 16.467581
v -19.235674 4.510159 16.234032
v -19.531443 4.651048 16.294733
v -19.685072 4.709406 16.551664
v -19.640354 4.651048 16.847664
v -19.389698 4.510159 17.015995
v -19.083794 4.369270 16.957291
v -18.930164 4.310912 16.700359
v -18.974882 4.369270 16.404358
v -20.713583 4.135139 15.942926
v -20.752008 4.446795 16.054316
v -20.806082 4.563509 16.330858
v -20.860920 4.446795 16.607248
v -20.867607 4.135139 16.724890
v -20.824142 3.814520 16.614492
v -20.770069 3.697804 16.337952
v -20.715231 3.814520 16.061560
vn -0.5722 0.0002 0.8201
vn -0.5565 0.2415 0.7950
vn -0.9556 0.2415 0.1686
vn -0.9855 0.0004 0.1699
vn -0.8192 -0.0006 -0.5735
vn -0.7950 0.2415 -0.5565
vn -0.1686 0.2415 -0.9556
vn -0.1777 0.0004 -0.9841
vn 0.5748 0.0002 -0.8183
vn 0.5565 0.2415 -0.7950
vn 0.9556 0.2415 -0.1686
vn 0.9861 -0.0101 -0.1656
vn 0.8191 -0.0190 0.5734
vn 0.7950 0.2415 0.5565
vn 0.1686 0.2415 0.9556
vn 0.1819 -0.0101 0.9833
vn 0.4791 0.8111 0.3354
vn 0.1016 0.8111 0.5760
vn -0.5760 0.8111 0.1016
vn -0.4791 0.8111 -0.3354
vn -0.1016 0.8111 -0.5760
vn 0.3354 0.8111 -0.4791
vn 0.5760 0.8111 -0.1016
vn -0.3354 0.8111 0.4791
vn -0.9699 -0.1830 0.1607
vn -0.6206 -0.0019 0.7841
vn -0.1809 -0.1830 -0.9663
vn -0.7876 -0.2753 -0.5513
vn 0.9550 0.1614 -0.2488
vn 0.5244 -0.0019 -0.8515
vn 0.0930 0.1614 0.9825
vn 0.7989 0.2215 0.5592
vn 0.4254 0.8546 0.2978
vn 0.7295 0.5312 -0.4310
vn -0.5910 -0.0980 0.8007
vn -0.1553 0.5312 0.8329
vn -0.7629 -0.5764 0.2928
vn 0.0141 -0.5764 -0.8170
vn -0.5329 -0.7595 -0.3731
vn 0.5501 -0.0980 -0.8293
vn -0.2497 -0.9524 -0.1748
vn -0.5547 -0.7318 0.3960
vn 0.5526 -0.0361 -0.8327
vn 0.1822 -0.7318 -0.6567
vn 0.1189 0.9894 0.0832
vn 0.4907 0.7202 -0.4904
vn -0.5933 -0.0361 0.8042
vn -0.2929 0.7202 0.6289
vn 0.5735 -0.0000 -0.8192
vn 0.5699 0.1122 -0.8140
vn 0.9005 0.1122 -0.4201
vn 0.9063 -0.0000 -0.4227
vn 0.8192 -0.0000 0.5735
vn 0.8140 0.1122 0.5699
vn 0.4201 0.1122 0.9005
vn 0.4227 -0.0000 0.9063
vn -0.9962 -0.0000 -0.0870
vn -0.9899 0.1122 -0.0865
vn -0.8140 0.1122 -0.5699
vn -0.8192 -0.0000 -0.5735
vn 0.0870 -0.0000 -0.9962
vn 0.0865 0.1122 -0.9899
vn 0.9962 -0.0000 0.0870
vn 0.9899 0.1122 0.0865
vn -0.9063 -0.0000 0.4227
vn -0.9005 0.1122 0.4201
vn -0.0870 -0.0000 0.9962
vn -0.0865 0.1122 0.9899
vn -0.5699 0.1122 0.8140
vn -0.5735 -0.0000 0.8192
vn -0.4227 -0.0000 -0.9063
vn -0.4201 0.1122 -0.9005
vn 0.9233 0.3756 0.0807
vn 0.7592 0.3756 0.5315
vn -0.8399 0.3756 0.3918
vn -0.9233 0.3756 -0.0807
vn -0.0807 0.3756 0.9233
vn -0.5315 0.3756 0.7592
vn -0.3918 0.3756 -0.8399
vn 0.0807 0.3756 -0.9233
vn 0.8399 0.3756 -0.3918
vn 0.3918 0.3756 0.8399
vn -0.7592 0.3756 -0.5315
vn 0.5315 0.3756 -0.7592
vn 0.5385 0.8413 0.0470
vn 0.4428 0.8413 0.3100
vn -0.4899 0.8413 0.2285
vn -0.5385 0.8413 -0.0470
vn -0.0470 0.8413 0.5385
vn -0.3100 0.8413 0.4428
vn -0.2285 0.8413 -0.4899
vn 0.0470 0.8413 -0.5385
vn 0.4899 0.8413 -0.2285
vn 0.2285 0.8413 0.4899
vn -0.4428 0.8413 -0.3100
vn 0.3100 0.8413 -0.4428
vn 0.1917 0.0002 -0.9814
vn 0.1875 0.2415 -0.9521
vn 0.8058 0.2415 -0.5406
vn 0.8326 0.0004 -0.5538
vn 0.9811 -0.0006 0.1933
vn 0.9521 0.2415 0.1875
vn 0.5406 0.2415 0.8058
vn 0.5604 0.0004 0.8282
vn -0.1948 0.0002 0.9808
vn -0.1875 0.2415 0.9521
vn -0.8058 0.2415 0.5406
vn -0.8350 -0.0101 0.5502
vn -0.9810 -0.0190 -0.1932
vn -0.9521 0.2415 -0.1875
vn -0.5406 0.2415 -0.8058
vn -0.5639 -0.0101 -0.8257
vn -0.5738 0.8111 -0.1130
vn -0.3258 0.8111 -0.4857
vn 0.4857 0.8111 -0.3258
vn 0.5738 0.8111 0.1130
vn 0.3258 0.8111 0.4857
vn -0.1130 0.8111 0.5738
vn -0.4857 0.8111 0.3258
vn 0.1130 0.8111 -0.5738
vn 0.8221 -0.1830 -0.5392
vn 0.2505 -0.0019 -0.9681
vn 0.5562 -0.1830 0.8106
vn 0.9432 -0.2753 0.1858
vn -0.7728 0.1614 0.6137
vn -0.1353 -0.0019 0.9908
vn -0.4824 0.1614 -0.8610
vn -0.9568 0.2215 -0.1885
vn -0.5095 0.8546 -0.1004
vn -0.4929 0.5312 0.6891
vn 0.2168 -0.0980 -0.9713
vn -0.1948 0.5312 -0.8246
vn 0.5793 -0.5764 -0.5763
vn 0.3175 -0.5764 0.7529
vn 0.6383 -0.7595 0.1257
vn -0.1677 -0.0980 0.9809
vn 0.2991 -0.9524 0.0589
vn 0.3472 -0.7318 -0.5865
vn -0.1687 -0.0361 0.9850
vn 0.0989 -0.7318 0.6743
vn -0.1424 0.9894 -0.0281
vn -0.2505 0.7202 0.6470
vn 0.2174 -0.0361 -0.9754
vn 0.0136 0.7202 -0.6936
vt 0.796583 0.604396
vt 0.841371 0.557507
vt 0.809522 0.525402
vt 0.764733 0.572291
vt 0.812020 0.066347
vt 0.767273 0.017890
vt 0.742415 0.034099
vt 0.787162 0.082556
vt 0.753470 0.112903
vt 0.708722 0.064446
vt 0.685931 0.091153
vt 0.730679 0.139610
vt 0.951064 0.124774
vt 0.956971 0.060204
vt 0.911642 0.056114
vt 0.905735 0.120684
vt 0.794786 0.499956
vt 0.749997 0.546845
vt 0.994067 0.120480
vt 1.000000 0.055912
vt 0.967443 0.060409
vt 0.961509 0.124977
vt 0.826889 0.624353
vt 0.871677 0.577464
vt 0.950683 0.002039
vt 0.928088 -0.000000
vt 0.859413 0.494213
vt 0.852067 0.481529
vt 0.699645 0.008080
vt 0.682851 0.023206
vt 0.977406 -0.000000
vt 0.961178 0.002242
vt 0.890394 0.520164
vt 0.875288 0.510216
vt 0.712035 -0.000000
vt 0.036310 0.898427
vt 0.000000 0.909693
vt 0.000000 0.932379
vt 0.036310 0.943941
vt 0.631266 0.952942
vt 0.653602 0.952929
vt 0.669396 0.936879
vt 0.669396 0.914192
vt 0.653602 0.898159
vt 0.631266 0.898172
vt 0.615472 0.914222
vt 0.615472 0.936909
vt 0.703416 0.635025
vt 0.750171 0.652983
vt 0.848352 0.147348
vt 0.877491 0.139054
vt 0.763260 0.174198
vt 0.799838 0.163115
vt 0.901297 0.167098
vt 0.946542 0.162173
vt 0.684552 0.617152
vt 0.956971 0.162374
vt 0.989609 0.166892
vt 0.794243 0.657839
vt 0.967363 0.256095
vt 1.000000 0.260613
vt 0.729605 0.742505
vt 0.773678 0.747362
vt 0.682851 0.724547
vt 0.872158 0.241751
vt 0.901297 0.233458
vt 0.787066 0.268601
vt 0.823644 0.257519
vt 0.911726 0.260815
vt 0.956971 0.255890
vt 0.942297 0.481529
vt 0.925049 0.554879
vt 0.969620 0.563932
vt 0.986868 0.490583
vt 0.942108 0.848797
vt 0.986868 0.840732
vt 0.710253 0.450713
vt 0.749969 0.481530
vt 0.902287 0.274605
vt 0.901296 0.446224
vt 0.945565 0.448171
vt 0.945565 0.260815
vt 0.858121 0.921040
vt 0.890394 0.883734
vt 0.822840 0.946665
vt 0.890394 0.568694
vt 0.907642 0.845494
vt 0.682851 0.416710
vt 0.945565 0.260815
vt 0.945565 0.448171
vt 0.984294 0.447451
vt 0.985284 0.275833
vt 0.114139 0.898427
vt 0.114139 0.171956
vt 0.052972 0.171956
vt 0.052972 0.898427
vt 0.281250 0.898427
vt 0.281250 0.171956
vt 0.220083 0.171956
vt 0.220083 0.898427
vt 0.615472 0.892763
vt 0.615472 0.166293
vt 0.562500 0.171956
vt 0.562500 0.898427
vt 0.167111 0.892763
vt 0.167111 0.166293
vt 0.334222 0.892763
vt 0.334222 0.166293
vt 0.387194 0.898427
vt 0.387194 0.171956
vt 0.334222 0.166293
vt 0.334222 0.892763
vt 0.501333 0.892763
vt 0.501333 0.166293
vt 0.448361 0.171956
vt 0.448361 0.898427
vt 0.682851 0.898159
vt 0.668545 0.171829
vt 0.615472 0.167210
vt 0.629777 0.893540
vt 0.000000 0.166293
vt 0.000000 0.892763
vt 0.501333 0.171956
vt 0.501333 0.898427
vt 0.320679 0.083058
vt 0.276293 0.087804
vt 0.392151 0.087804
vt 0.347765 0.083058
vt 0.487790 0.083058
vt 0.443404 0.087804
vt 0.671844 0.087595
vt 0.627373 0.083724
vt 0.057929 0.087804
vt 0.013543 0.083058
vt 0.225040 0.087804
vt 0.180654 0.083058
vt 0.557543 0.087804
vt 0.506290 0.087804
vt 0.109182 0.087804
vt 0.601929 0.083058
vt 0.153568 0.083058
vt 0.286006 0.000000
vt 0.263602 0.002395
vt 0.404842 0.002395
vt 0.382437 0.000000
vt 0.453117 0.000000
vt 0.430713 0.002395
vt 0.682851 0.001954
vt 0.660403 -0.000000
vt 0.070620 0.002395
vt 0.048215 0.000000
vt 0.237731 0.002395
vt 0.215326 0.000000
vt 0.544851 0.002395
vt 0.518981 0.002395
vt 0.096491 0.002395
vt 0.567256 0.000000
vt 0.118895 0.000000
vt 0.925734 0.945348
vt 0.951605 0.945348
vt 0.974010 0.932412
vt 0.986945 0.910008
vt 0.986945 0.884137
vt 0.974010 0.861732
vt 0.951605 0.848797
vt 0.925734 0.848797
vt 0.903330 0.861732
vt 0.890394 0.884137
vt 0.890394 0.910008
vt 0.903330 0.932412
s 1
usemtl cactus
f 1/1/1 9/2/2 16/3/3 8/4/4
f 7/5/5 15/6/6 14/7/7 6/8/8
f 5/9/9 13/10/10 12/11/11 4/12/12
f 3/13/13 11/14/14 10/15/15 2/16/16
f 8/4/4 16/3/3 15/17/6 7/18/5
f 6/8/8 14/7/7 13/10/10 5/9/9
f 4/19/12 12/20/11 11/21/14 3/22/13
f 2/23/16 10/24/15 9/2/2 1/1/1
f 11/14/14 19/25/17 18/26/18 10/15/15
f 16/3/3 24/27/19 23/28/20 15/17/6
f 14/7/7 22/29/21 21/30/22 13/10/10
f 12/20/11 20/31/23 19/32/17 11/21/14
f 10/24/15 18/33/18 17/34/24 9/2/2
f 9/2/2 17/34/24 24/27/19 16/3/3
f 15/6/6 23/35/20 22/29/21 14/7/7
f 13/36/10 21/37/22 20/38/23 12/39/11
f 18/40/18 19/41/17 20/42/23 21/43/22 22/44/21 23/45/20 24/46/19 17/47/24
f 8/4/4 32/48/25 25/49/26 1/1/1
f 6/8/8 30/50/27 31/51/28 7/5/5
f 4/12/12 28/52/29 29/53/30 5/9/9
f 2/16/16 26/54/31 27/55/32 3/13/13
f 7/18/5 31/56/28 32/48/25 8/4/4
f 5/9/9 29/53/30 30/50/27 6/8/8
f 3/22/13 27/57/32 28/58/29 4/19/12
f 1/1/1 25/49/26 26/59/31 2/23/16
f 27/57/32 35/60/33 36/61/34 28/58/29
f 25/49/26 33/62/35 34/63/36 26/59/31
f 32/48/25 40/64/37 33/62/35 25/49/26
f 30/50/27 38/65/38 39/66/39 31/51/28
f 28/52/29 36/67/34 37/68/40 29/53/30
f 26/54/31 34/69/36 35/70/33 27/55/32
f 31/71/28 39/72/39 40/73/37 32/74/25
f 29/53/30 37/68/40 38/65/38 30/50/27
f 39/72/39 47/75/41 48/76/42 40/73/37
f 37/68/40 45/77/43 46/78/44 38/65/38
f 35/79/33 43/80/45 44/81/46 36/82/34
f 33/62/35 41/83/47 42/84/48 34/63/36
f 40/64/37 48/85/42 41/83/47 33/62/35
f 38/86/38 46/87/44 47/75/41 39/72/39
f 36/67/34 44/88/46 45/77/43 37/68/40
f 34/89/36 42/90/48 43/91/45 35/92/33
f 55/93/49 67/94/50 66/95/51 54/96/52
f 52/97/53 64/98/54 63/99/55 51/100/56
f 59/101/57 71/102/58 70/103/59 58/104/60
f 56/105/61 68/106/62 67/94/50 55/93/49
f 53/107/63 65/108/64 64/98/54 52/97/53
f 60/109/65 72/110/66 71/111/58 59/112/57
f 50/113/67 62/114/68 61/115/69 49/116/70
f 57/117/71 69/118/72 68/119/62 56/120/61
f 54/96/52 66/95/51 65/121/64 53/122/63
f 49/116/70 61/115/69 72/110/66 60/109/65
f 51/100/56 63/99/55 62/106/68 50/105/67
f 58/104/60 70/103/59 69/123/72 57/124/71
f 65/108/64 77/125/73 76/126/74 64/98/54
f 72/110/66 84/127/75 83/128/76 71/111/58
f 62/114/68 74/129/77 73/130/78 61/115/69
f 69/118/72 81/131/79 80/132/80 68/119/62
f 66/95/51 78/133/81 77/134/73 65/121/64
f 61/115/69 73/130/78 84/127/75 72/110/66
f 63/99/55 75/135/82 74/136/77 62/106/68
f 70/103/59 82/137/83 81/138/79 69/123/72
f 67/94/50 79/139/84 78/133/81 66/95/51
f 64/98/54 76/126/74 75/135/82 63/99/55
f 71/102/58 83/140/76 82/137/83 70/103/59
f 68/106/62 80/141/80 79/139/84 67/94/50
f 77/125/73 89/142/85 88/143/86 76/126/74
f 84/127/75 96/144/87 95/145/88 83/128/76
f 74/129/77 86/146/89 85/147/90 73/130/78
f 81/131/79 93/148/91 92/149/92 80/132/80
f 78/133/81 90/150/93 89/151/85 77/134/73
f 73/130/78 85/147/90 96/144/87 84/127/75
f 75/135/82 87/152/94 86/153/89 74/136/77
f 82/137/83 94/154/95 93/155/91 81/138/79
f 79/139/84 91/156/96 90/150/93 78/133/81
f 76/126/74 88/143/86 87/152/94 75/135/82
f 83/140/76 95/157/88 94/154/95 82/137/83
f 80/141/80 92/158/92 91/156/96 79/139/84
f 86/159/89 87/160/94 88/161/86 89/162/85 90/163/93 91/164/96 92/165/92 93/166/91 94/167/95 95/168/88 96/169/87 85/170/90
f 97/1/97 105/2/98 112/3/99 104/4/100
f 103/5/101 111/6/102 110/7/103 102/8/104
f 101/9/105 109/10/106 108/11/107 100/12/108
f 99/13/109 107/14/110 106/15/111 98/16/112
f 104/4/100 112/3/99 111/17/102 103/18/101
f 102/8/104 110/7/103 109/10/106 101/9/105
f 100/19/108 108/20/107 107/21/110 99/22/109
f 98/23/112 106/24/111 105/2/98 97/1/97
f 107/14/110 115/25/113 114/26/114 106/15/111
f 112/3/99 120/27/115 119/28/116 111/17/102
f 110/7/103 118/29/117 117/30/118 109/10/106
f 108/20/107 116/31/119 115/32/113 107/21/110
f 106/24/111 114/33/114 113/34/120 105/2/98
f 105/2/98 113/34/120 120/27/115 112/3/99
f 111/6/102 119/35/116 118/29/117 110/7/103
f 109/36/106 117/37/118 116/38/119 108/39/107
f 114/40/114 115/41/113 116/42/119 117/43/118 118/44/117 119/45/116 120/46/115 113/47/120
f 104/4/100 128/48/121 121/49/122 97/1/97
f 102/8/104 126/50/123 127/51/124 103/5/101
f 100/12/108 124/52/125 125/53/126 101/9/105
f 98/16/112 122/54/127 123/55/128 99/13/109
f 103/18/101 127/56/124 128/48/121 104/4/100
f 101/9/105 125/53/126 126/50/123 102/8/104
f 99/22/109 123/57/128 124/58/125 100/19/108
f 97/1/97 121/49/122 122/59/127 98/23/112
f 123/57/128 131/60/129 132/61/130 124/58/125
f 121/49/122 129/62/131 130/63/132 122/59/127
f 128/48/121 136/64/133 129/62/131 121/49/122
f 126/50/123 134/65/134 135/66/135 127/51/124
f 124/52/125 132/67/130 133/68/136 125/53/126
f 122/54/127 130/69/132 131/70/129 123/55/128
f 127/71/124 135/72/135 136/73/133 128/74/121
f 125/53/126 133/68/136 134/65/134 126/50/123
f 135/72/135 143/75/137 144/76/138 136/73/133
f 133/68/136 141/77/139 142/78/140 134/65/134
f 131/79/129 139/80/141 140/81/142 132/82/130
f 129/62/131 137/83/143 138/84/144 130/63/132
f 136/64/133 144/85/138 137/83/143 129/62/131
f 134/86/134 142/87/140 143/75/137 135/72/135
f 132/67/130 140/88/142 141/77/139 133/68/136
f 130/89/132 138/90/144 139/91/141 131/92/129
