# Blender 4.0.1
# www.blender.org
mtllib cactus_3.mtl
o cactus5
v 12.028319 -0.316200 32.750534
v 12.228885 -0.316200 32.742088
v 12.398356 -0.316200 32.634491
v 12.491324 -0.316200 32.456573
v 12.482879 -0.316200 32.256008
v 12.375281 -0.316200 32.086536
v 12.197364 -0.316200 31.993568
v 11.996799 -0.316200 32.002014
v 11.827327 -0.316200 32.109612
v 11.734359 -0.316200 32.287529
v 11.742805 -0.316200 32.488094
v 11.850402 -0.316200 32.657566
v 12.028319 2.109964 32.750534
v 12.228885 2.109964 32.742088
v 12.398356 2.109964 32.634491
v 12.491324 2.109964 32.456573
v 12.482879 2.109964 32.256008
v 12.375281 2.109964 32.086536
v 12.197364 2.109964 31.993568
v 11.996799 2.109964 32.002014
v 11.827327 2.109964 32.109612
v 11.734359 2.109964 32.287529
v 11.742805 2.109964 32.488094
v 11.850402 2.109964 32.657566
v 12.042019 2.379565 32.689190
v 12.210076 2.379565 32.682114
v 12.352079 2.379565 32.591953
v 12.429979 2.379565 32.442875
v 12.422902 2.379565 32.274815
v 12.332745 2.379565 32.132812
v 12.183664 2.379565 32.054913
v 12.015607 2.379565 32.061989
v 11.873604 2.379565 32.152149
v 11.795704 2.379565 32.301228
v 11.802781 2.379565 32.469288
v 11.892939 2.379565 32.611290
v 12.077093 2.635506 32.532131
v 12.161922 2.635506 32.528561
v 12.233601 2.635506 32.483051
v 12.272923 2.635506 32.407799
v 12.269350 2.635506 32.322971
v 12.223841 2.635506 32.251293
v 12.148590 2.635506 32.211971
v 12.063761 2.635506 32.215542
v 11.992083 2.635506 32.261051
v 11.952761 2.635506 32.336304
v 11.956333 2.635506 32.421131
v 12.001842 2.635506 32.492809
v 13.163546 2.395840 31.978804
v 13.039365 2.395840 32.061813
v 13.010254 2.395840 32.208321
v 13.093266 2.395840 32.332500
v 13.239773 2.395840 32.361614
v 13.363954 2.395840 32.278603
v 13.393064 2.395840 32.132095
v 13.310052 2.395840 32.007912
v 13.163546 2.614526 31.978804
v 13.039365 2.614526 32.061813
v 13.010254 2.614526 32.208321
v 13.093266 2.614526 32.332500
v 13.239773 2.614526 32.361614
v 13.363954 2.614526 32.278603
v 13.393064 2.614526 32.132095
v 13.310052 2.614526 32.007912
v 13.182661 2.786579 32.074799
v 13.120762 2.786579 32.116177
v 13.106252 2.786579 32.189205
v 13.147630 2.786579 32.251106
v 13.220657 2.786579 32.265614
v 13.282556 2.786579 32.224236
v 13.297067 2.786579 32.151211
v 13.255689 2.786579 32.089310
v 13.163546 2.169232 31.978804
v 13.040957 2.238232 32.061497
v 13.019358 2.266813 32.206509
v 13.094859 2.238232 32.332184
v 13.239773 2.169232 32.361614
v 13.367322 2.100232 32.277931
v 13.388923 2.071651 32.132919
v 13.313421 2.100232 32.007244
v 13.006417 1.892653 32.010090
v 12.883829 1.961653 32.092785
v 12.862229 1.990235 32.237797
v 12.937731 1.961653 32.363472
v 13.082644 1.892653 32.392902
v 13.210194 1.823653 32.309219
v 13.231794 1.795072 32.164207
v 13.156293 1.823653 32.038532
v 12.282907 1.708987 32.154160
v 12.286303 1.861620 32.211769
v 12.313440 1.918782 32.347076
v 12.340203 1.861620 32.482456
v 12.359136 1.708987 32.536972
v 12.358208 1.551964 32.478870
v 12.331070 1.494802 32.343563
v 12.304307 1.551964 32.208183
vn 0.2179 -0.0000 -0.9760
vn 0.2166 0.1122 -0.9698
vn 0.6725 0.1122 -0.7316
vn 0.6767 -0.0000 -0.7362
vn 0.9760 -0.0000 0.2179
vn 0.9698 0.1122 0.2166
vn 0.7316 0.1122 0.6725
vn 0.7362 -0.0000 0.6767
vn -0.9542 -0.0000 0.2992
vn -0.9482 0.1122 0.2973
vn -0.9698 0.1122 -0.2166
vn -0.9760 -0.0000 -0.2179
vn -0.2992 -0.0000 -0.9542
vn -0.2973 0.1122 -0.9482
vn 0.9542 -0.0000 -0.2992
vn 0.9482 0.1122 -0.2973
vn -0.6767 -0.0000 0.7362
vn -0.6725 0.1122 0.7316
vn 0.2992 -0.0000 0.9542
vn 0.2973 0.1122 0.9482
vn -0.2166 0.1122 0.9698
vn -0.2179 -0.0000 0.9760
vn -0.7362 -0.0000 -0.6767
vn -0.7316 0.1122 -0.6725
vn 0.8843 0.3756 -0.2773
vn 0.9045 0.3756 0.2020
vn -0.6272 0.3756 0.6823
vn -0.8843 0.3756 0.2773
vn 0.2773 0.3756 0.8843
vn -0.2020 0.3756 0.9045
vn -0.6823 0.3756 -0.6272
vn -0.2773 0.3756 -0.8843
vn 0.6272 0.3756 -0.6823
vn 0.6823 0.3756 0.6272
vn -0.9045 0.3756 -0.2020
vn 0.2020 0.3756 -0.9045
vn 0.5158 0.8413 -0.1617
vn 0.5275 0.8413 0.1178
vn -0.3658 0.8413 0.3979
vn -0.5158 0.8413 0.1617
vn 0.1617 0.8413 0.5158
vn -0.1178 0.8413 0.5275
vn -0.3979 0.8413 -0.3658
vn -0.1617 0.8413 -0.5158
vn 0.3658 0.8413 -0.3979
vn 0.3979 0.8413 0.3658
vn -0.5275 0.8413 -0.1178
vn 0.1178 0.8413 -0.5275
vn -0.1968 0.0002 -0.9804
vn -0.1895 0.2415 -0.9517
vn 0.5390 0.2415 -0.8070
vn 0.5587 0.0004 -0.8294
vn 0.9807 -0.0006 -0.1953
vn 0.9517 0.2415 -0.1895
vn 0.8070 0.2415 0.5390
vn 0.8338 0.0004 0.5521
vn 0.1938 0.0002 0.9810
vn 0.1895 0.2415 0.9517
vn -0.5390 0.2415 0.8070
vn -0.5622 -0.0101 0.8269
vn -0.9806 -0.0190 0.1953
vn -0.9517 0.2415 0.1895
vn -0.8070 0.2415 -0.5390
vn -0.8361 -0.0101 -0.5485
vn -0.5736 0.8111 0.1142
vn -0.4864 0.8111 -0.3248
vn 0.3248 0.8111 -0.4864
vn 0.5736 0.8111 -0.1142
vn 0.4864 0.8111 0.3248
vn 0.1142 0.8111 0.5736
vn -0.3248 0.8111 0.4864
vn -0.1142 0.8111 -0.5736
vn 0.5545 -0.1830 -0.8118
vn -0.1374 -0.0019 -0.9905
vn 0.8232 -0.1830 0.5375
vn 0.9428 -0.2753 -0.1877
vn -0.4806 0.1614 0.8620
vn 0.2525 -0.0019 0.9676
vn -0.7741 0.1614 -0.6121
vn -0.9564 0.2215 0.1904
vn -0.5093 0.8546 0.1014
vn -0.1931 0.5312 0.8250
vn -0.1698 -0.0980 -0.9806
vn -0.4944 0.5312 -0.6881
vn 0.3159 -0.5764 -0.7536
vn 0.5805 -0.5764 0.5751
vn 0.6380 -0.7595 -0.1270
vn 0.2188 -0.0980 0.9708
vn 0.2989 -0.9524 -0.0595
vn 0.0975 -0.7318 -0.6745
vn 0.2195 -0.0361 0.9750
vn 0.3484 -0.7318 0.5858
vn -0.1424 0.9894 0.0283
vn 0.0150 0.7202 0.6936
vn -0.1708 -0.0361 -0.9847
vn -0.2518 0.7202 -0.6464
vt 0.114139 0.898427
vt 0.114139 0.171956
vt 0.052972 0.171956
vt 0.052972 0.898427
vt 0.281250 0.898427
vt 0.281250 0.171956
vt 0.220083 0.171956
vt 0.220083 0.898427
vt 0.615472 0.892763
vt 0.615472 0.166293
vt 0.562500 0.171956
vt 0.562500 0.898427
vt 0.167111 0.892763
vt 0.167111 0.166293
vt 0.334222 0.892763
vt 0.334222 0.166293
vt 0.387194 0.898427
vt 0.387194 0.171956
vt 0.334222 0.166293
vt 0.334222 0.892763
vt 0.501333 0.892763
vt 0.501333 0.166293
vt 0.448361 0.171956
vt 0.448361 0.898427
vt 0.682851 0.898159
vt 0.668545 0.171829
vt 0.615472 0.167210
vt 0.629777 0.893540
vt 0.000000 0.166293
vt 0.000000 0.892763
vt 0.501333 0.171956
vt 0.501333 0.898427
vt 0.320679 0.083058
vt 0.276293 0.087804
vt 0.392151 0.087804
vt 0.347765 0.083058
vt 0.487790 0.083058
vt 0.443404 0.087804
vt 0.671844 0.087595
vt 0.627373 0.083724
vt 0.057929 0.087804
vt 0.013543 0.083058
vt 0.225040 0.087804
vt 0.180654 0.083058
vt 0.557543 0.087804
vt 0.506290 0.087804
vt 0.109182 0.087804
vt 0.601929 0.083058
vt 0.153568 0.083058
vt 0.286006 0.000000
vt 0.263602 0.002395
vt 0.404842 0.002395
vt 0.382437 0.000000
vt 0.453117 0.000000
vt 0.430713 0.002395
vt 0.682851 0.001954
vt 0.660403 -0.000000
vt 0.070620 0.002395
vt 0.048215 0.000000
vt 0.237731 0.002395
vt 0.215326 0.000000
vt 0.544851 0.002395
vt 0.518981 0.002395
vt 0.096491 0.002395
vt 0.567256 0.000000
vt 0.118895 0.000000
vt 0.925734 0.945348
vt 0.951605 0.945348
vt 0.974010 0.932412
vt 0.986945 0.910008
vt 0.986945 0.884137
vt 0.974010 0.861732
vt 0.951605 0.848797
vt 0.925734 0.848797
vt 0.903330 0.861732
vt 0.890394 0.884137
vt 0.890394 0.910008
vt 0.903330 0.932412
vt 0.796583 0.604396
vt 0.841371 0.557507
vt 0.809522 0.525402
vt 0.764733 0.572291
vt 0.812020 0.066347
vt 0.767273 0.017890
vt 0.742415 0.034099
vt 0.787162 0.082556
vt 0.753470 0.112903
vt 0.708722 0.064446
vt 0.685931 0.091153
vt 0.730679 0.139610
vt 0.951064 0.124774
vt 0.956971 0.060204
vt 0.911642 0.056114
vt 0.905735 0.120684
vt 0.794786 0.499956
vt 0.749997 0.546845
vt 0.994067 0.120480
vt 1.000000 0.055912
vt 0.967443 0.060409
vt 0.961509 0.124977
vt 0.826889 0.624353
vt 0.871677 0.577464
vt 0.950683 0.002039
vt 0.928088 -0.000000
vt 0.859413 0.494213
vt 0.852067 0.481529
vt 0.699645 0.008080
vt 0.682851 0.023206
vt 0.977406 -0.000000
vt 0.961178 0.002242
vt 0.890394 0.520164
vt 0.875288 0.510216
vt 0.712035 -0.000000
vt 0.036310 0.898427
vt 0.000000 0.909693
vt 0.000000 0.932379
vt 0.036310 0.943941
vt 0.631266 0.952942
vt 0.653602 0.952929
vt 0.669396 0.936879
vt 0.669396 0.914192
vt 0.653602 0.898159
vt 0.631266 0.898172
vt 0.615472 0.914222
vt 0.615472 0.936909
vt 0.703416 0.635025
vt 0.750171 0.652983
vt 0.848352 0.147348
vt 0.877491 0.139054
vt 0.763260 0.174198
vt 0.799838 0.163115
vt 0.901297 0.167098
vt 0.946542 0.162173
vt 0.684552 0.617152
vt 0.956971 0.162374
vt 0.989609 0.166892
vt 0.794243 0.657839
vt 0.967363 0.256095
vt 1.000000 0.260613
vt 0.729605 0.742505
vt 0.773678 0.747362
vt 0.682851 0.724547
vt 0.872158 0.241751
vt 0.901297 0.233458
vt 0.787066 0.268601
vt 0.823644 0.257519
vt 0.911726 0.260815
vt 0.956971 0.255890
vt 0.942297 0.481529
vt 0.925049 0.554879
vt 0.969620 0.563932
vt 0.986868 0.490583
vt 0.942108 0.848797
vt 0.986868 0.840732
vt 0.710253 0.450713
vt 0.749969 0.481530
vt 0.902287 0.274605
vt 0.901296 0.446224
vt 0.945565 0.448171
vt 0.945565 0.260815
vt 0.858121 0.921040
vt 0.890394 0.883734
vt 0.822840 0.946665
vt 0.890394 0.568694
vt 0.907642 0.845494
vt 0.682851 0.416710
vt 0.945565 0.260815
vt 0.945565 0.448171
vt 0.984294 0.447451
vt 0.985284 0.275833
s 1
usemtl cactus
f 7/1/1 19/2/2 18/3/3 6/4/4
f 4/5/5 16/6/6 15/7/7 3/8/8
f 11/9/9 23/10/10 22/11/11 10/12/12
f 8/13/13 20/14/14 19/2/2 7/1/1
f 5/15/15 17/16/16 16/6/6 4/5/5
f 12/17/17 24/18/18 23/19/10 11/20/9
f 2/21/19 14/22/20 13/23/21 1/24/22
f 9/25/23 21/26/24 20/27/14 8/28/13
f 6/4/4 18/3/3 17/29/16 5/30/15
f 1/24/22 13/23/21 24/18/18 12/17/17
f 3/8/8 15/7/7 14/14/20 2/13/19
f 10/12/12 22/11/11 21/31/24 9/32/23
f 17/16/16 29/33/25 28/34/26 16/6/6
f 24/18/18 36/35/27 35/36/28 23/19/10
f 14/22/20 26/37/29 25/38/30 13/23/21
f 21/26/24 33/39/31 32/40/32 20/27/14
f 18/3/3 30/41/33 29/42/25 17/29/16
f 13/23/21 25/38/30 36/35/27 24/18/18
f 15/7/7 27/43/34 26/44/29 14/14/20
f 22/11/11 34/45/35 33/46/31 21/31/24
f 19/2/2 31/47/36 30/41/33 18/3/3
f 16/6/6 28/34/26 27/43/34 15/7/7
f 23/10/10 35/48/28 34/45/35 22/11/11
f 20/14/14 32/49/32 31/47/36 19/2/2
f 29/33/25 41/50/37 40/51/38 28/34/26
f 36/35/27 48/52/39 47/53/40 35/36/28
f 26/37/29 38/54/41 37/55/42 25/38/30
f 33/39/31 45/56/43 44/57/44 32/40/32
f 30/41/33 42/58/45 41/59/37 29/42/25
f 25/38/30 37/55/42 48/52/39 36/35/27
f 27/43/34 39/60/46 38/61/41 26/44/29
f 34/45/35 46/62/47 45/63/43 33/46/31
f 31/47/36 43/64/48 42/58/45 30/41/33
f 28/34/26 40/51/38 39/60/46 27/43/34
f 35/48/28 47/65/40 46/62/47 34/45/35
f 32/49/32 44/66/44 43/64/48 31/47/36
f 38/67/41 39/68/46 40/69/38 41/70/37 42/71/45 43/72/48 44/73/44 45/74/43 46/75/47 47/76/40 48/77/39 37/78/42
f 49/79/49 57/80/50 64/81/51 56/82/52
f 55/83/53 63/84/54 62/85/55 54/86/56
f 53/87/57 61/88/58 60/89/59 52/90/60
f 51/91/61 59/92/62 58/93/63 50/94/64
f 56/82/52 64/81/51 63/95/54 55/96/53
f 54/86/56 62/85/55 61/88/58 53/87/57
f 52/97/60 60/98/59 59/99/62 51/100/61
f 50/101/64 58/102/63 57/80/50 49/79/49
f 59/92/62 67/103/65 66/104/66 58/93/63
f 64/81/51 72/105/67 71/106/68 63/95/54
f 62/85/55 70/107/69 69/108/70 61/88/58
f 60/98/59 68/109/71 67/110/65 59/99/62
f 58/102/63 66/111/66 65/112/72 57/80/50
f 57/80/50 65/112/72 72/105/67 64/81/51
f 63/84/54 71/113/68 70/107/69 62/85/55
f 61/114/58 69/115/70 68/116/71 60/117/59
f 66/118/66 67/119/65 68/120/71 69/121/70 70/122/69 71/123/68 72/124/67 65/125/72
f 56/82/52 80/126/73 73/127/74 49/79/49
f 54/86/56 78/128/75 79/129/76 55/83/53
f 52/90/60 76/130/77 77/131/78 53/87/57
f 50/94/64 74/132/79 75/133/80 51/91/61
f 55/96/53 79/134/76 80/126/73 56/82/52
f 53/87/57 77/131/78 78/128/75 54/86/56
f 51/100/61 75/135/80 76/136/77 52/97/60
f 49/79/49 73/127/74 74/137/79 50/101/64
f 75/135/80 83/138/81 84/139/82 76/136/77
f 73/127/74 81/140/83 82/141/84 74/137/79
f 80/126/73 88/142/85 81/140/83 73/127/74
f 78/128/75 86/143/86 87/144/87 79/129/76
f 76/130/77 84/145/82 85/146/88 77/131/78
f 74/132/79 82/147/84 83/148/81 75/133/80
f 79/149/76 87/150/87 88/151/85 80/152/73
f 77/131/78 85/146/88 86/143/86 78/128/75
f 87/150/87 95/153/89 96/154/90 88/151/85
f 85/146/88 93/155/91 94/156/92 86/143/86
f 83/157/81 91/158/93 92/159/94 84/160/82
f 81/140/83 89/161/95 90/162/96 82/141/84
f 88/142/85 96/163/90 89/161/95 81/140/83
f 86/164/86 94/165/92 95/153/89 87/150/87
f 84/145/82 92/166/94 93/155/91 85/146/88
f 82/167/84 90/168/96 91/169/93 83/170/81
