# Blender 4.0.1
# www.blender.org
mtllib lamps.mtl
o lamps
v -8.600000 9.990145 -39.717915
v -8.600000 10.188814 -39.717915
v -8.600000 9.990145 -40.317913
v -8.600000 10.188814 -40.317913
v -8.000000 9.990145 -39.717915
v -8.000000 10.188814 -39.717915
v -8.000000 9.990145 -40.317913
v -8.000000 10.188814 -40.317913
v -7.707251 9.868042 -39.349148
v -7.707251 10.310918 -39.349148
v -7.707251 9.868042 -40.686676
v -7.707251 10.310918 -40.686676
v -6.194705 9.868042 -39.349148
v -6.194705 10.310918 -39.349148
v -6.194705 9.868042 -40.686676
v -6.194705 10.310918 -40.686676
v -5.862921 9.929169 -39.533756
v -5.862921 10.249791 -39.533756
v -5.862921 9.929169 -40.502068
v -5.862921 10.249791 -40.502068
v -8.599999 9.990145 37.300003
v -8.599999 10.188814 37.300003
v -8.599999 9.990145 36.700005
v -8.599999 10.188814 36.700005
v -7.999999 9.990145 37.300003
v -7.999999 10.188814 37.300003
v -7.999999 9.990145 36.700005
v -7.999999 10.188814 36.700005
v -7.707250 9.868042 37.668770
v -7.707250 10.310918 37.668770
v -7.707250 9.868042 36.331245
v -7.707250 10.310918 36.331245
v -6.194704 9.868042 37.668770
v -6.194704 10.310918 37.668770
v -6.194704 9.868042 36.331245
v -6.194704 10.310918 36.331245
v -5.862920 9.929169 37.484161
v -5.862920 10.249791 37.484161
v -5.862920 9.929169 36.515846
v -5.862920 10.249791 36.515846
v -8.599999 9.990145 0.282089
v -8.599999 10.188814 0.282089
v -8.599999 9.990145 -0.317909
v -8.599999 10.188814 -0.317909
v -7.999999 9.990145 0.282089
v -7.999999 10.188814 0.282089
v -7.999999 9.990145 -0.317909
v -7.999999 10.188814 -0.317909
v -7.707250 9.868042 0.650856
v -7.707250 10.310918 0.650856
v -7.707250 9.868042 -0.686668
v -7.707250 10.310918 -0.686668
v -6.194704 9.868042 0.650856
v -6.194704 10.310918 0.650856
v -6.194704 9.868042 -0.686668
v -6.194704 10.310918 -0.686668
v -5.862920 9.929169 0.466248
v -5.862920 10.249791 0.466248
v -5.862920 9.929169 -0.502064
v -5.862920 10.249791 -0.502064
vn -1.0000 -0.0000 -0.0000
vn -0.0000 -0.0000 -1.0000
vn -0.3850 0.9229 -0.0000
vn -0.0000 -0.0000 1.0000
vn -0.0000 -1.0000 -0.0000
vn -0.0000 1.0000 -0.0000
vn -0.7832 -0.0000 -0.6218
vn -0.7832 -0.0000 0.6218
vn -0.3849 -0.9229 -0.0000
vn 0.1812 0.9834 -0.0000
vn 1.0000 -0.0000 -0.0000
vn 0.4862 -0.0000 -0.8738
vn 0.4862 -0.0000 0.8738
vn 0.1812 -0.9834 -0.0000
vn -0.3849 0.9229 -0.0000
vn -0.3850 -0.9229 -0.0000
vt 0.933513 0.129021
vt 0.951783 0.129021
vt 0.951783 0.184196
vt 0.933513 0.184196
vt 0.681395 0.228451
vt 0.681158 0.212424
vt 0.746945 0.206570
vt 0.748324 0.232155
vt 0.720602 0.137152
vt 0.757535 0.103035
vt 0.788959 0.216826
vt 0.705432 0.118288
vt 0.662092 0.164541
vt 0.653299 0.148512
vt 0.706699 0.281668
vt 0.669991 0.264798
vt 0.734859 0.064899
vt 0.891510 0.039897
vt 0.884326 0.083751
vt 0.786851 0.236568
vt 0.711818 0.338649
vt 0.877510 0.208130
vt 0.924196 0.094762
vt 0.914040 0.204317
vt 0.878277 0.238988
vt 0.962997 0.128942
vt 0.933513 0.128942
vt 0.933513 0.039898
vt 0.962997 0.039898
vt 0.912858 0.240774
vt 0.933435 0.057871
vt 0.893383 0.381978
vt 0.933435 0.352522
s 0
usemtl pillar
f 1/1/1 2/2/1 4/3/1 3/4/1
f 3/5/2 4/6/2 8/7/2 7/8/2
f 8/7/3 6/9/3 10/10/3 12/11/3
f 5/12/4 6/9/4 2/13/4 1/14/4
f 3/5/5 7/8/5 5/15/5 1/16/5
f 8/7/6 4/6/6 2/13/6 6/9/6
f 10/10/4 9/17/4 13/18/4 14/19/4
f 7/8/7 8/7/7 12/11/7 11/20/7
f 6/9/8 5/12/8 9/17/8 10/10/8
f 5/15/9 7/8/9 11/20/9 9/21/9
f 16/22/10 14/19/10 18/23/10 20/24/10
f 12/11/6 10/10/6 14/19/6 16/22/6
f 11/20/2 12/11/2 16/22/2 15/25/2
f 19/26/11 20/27/11 18/28/11 17/29/11
f 15/25/12 16/22/12 20/24/12 19/30/12
f 14/19/13 13/18/13 17/31/13 18/23/13
f 13/32/14 15/25/14 19/30/14 17/33/14
f 21/1/1 22/2/1 24/3/1 23/4/1
f 23/5/2 24/6/2 28/7/2 27/8/2
f 28/7/15 26/9/15 30/10/15 32/11/15
f 25/12/4 26/9/4 22/13/4 21/14/4
f 23/5/5 27/8/5 25/15/5 21/16/5
f 28/7/6 24/6/6 22/13/6 26/9/6
f 30/10/4 29/17/4 33/18/4 34/19/4
f 27/8/7 28/7/7 32/11/7 31/20/7
f 26/9/8 25/12/8 29/17/8 30/10/8
f 25/15/9 27/8/9 31/20/9 29/21/9
f 36/22/10 34/19/10 38/23/10 40/24/10
f 29/21/5 31/20/5 35/25/5 33/32/5
f 32/11/6 30/10/6 34/19/6 36/22/6
f 31/20/2 32/11/2 36/22/2 35/25/2
f 39/26/11 40/27/11 38/28/11 37/29/11
f 35/25/12 36/22/12 40/24/12 39/30/12
f 34/19/13 33/18/13 37/31/13 38/23/13
f 33/32/14 35/25/14 39/30/14 37/33/14
f 41/1/1 42/2/1 44/3/1 43/4/1
f 43/5/2 44/6/2 48/7/2 47/8/2
f 48/7/3 46/9/3 50/10/3 52/11/3
f 45/12/4 46/9/4 42/13/4 41/14/4
f 43/5/5 47/8/5 45/15/5 41/16/5
f 48/7/6 44/6/6 42/13/6 46/9/6
f 50/10/4 49/17/4 53/18/4 54/19/4
f 47/8/7 48/7/7 52/11/7 51/20/7
f 46/9/8 45/12/8 49/17/8 50/10/8
f 45/15/16 47/8/16 51/20/16 49/21/16
f 56/22/10 54/19/10 58/23/10 60/24/10
f 52/11/6 50/10/6 54/19/6 56/22/6
f 51/20/2 52/11/2 56/22/2 55/25/2
f 59/26/11 60/27/11 58/28/11 57/29/11
f 55/25/12 56/22/12 60/24/12 59/30/12
f 54/19/13 53/18/13 57/31/13 58/23/13
f 53/32/14 55/25/14 59/30/14 57/33/14
