# Blender 4.0.1
# www.blender.org
mtllib rock_6.mtl
o light_source_pillar1
v -7.707250 9.868042 0.650856
v -7.707250 9.868042 -0.686668
v -6.194704 9.868042 0.650856
v -6.194704 9.868042 -0.686668
vn -0.0000 -1.0000 -0.0000
vt 0.711818 0.338649
vt 0.786851 0.236568
vt 0.878277 0.238988
vt 0.893383 0.381978
s 0
usemtl pillar
f 1/1/1 2/2/1 4/3/1 3/4/1
o rock1
v -15.695992 -0.311287 -14.644273
v -15.690132 0.673135 -15.023525
v -14.626629 -0.156199 -14.520864
v -14.649208 0.773883 -14.899802
v -15.224491 0.399161 -12.254428
v -15.317868 1.225369 -12.187746
v -14.587149 -0.263088 -12.010418
v -14.561173 0.798874 -11.836114
v -14.306538 -0.121753 -13.312263
v -14.198607 1.415213 -13.350330
v -15.570153 -0.010489 -13.363740
v -15.568655 1.317511 -13.479842
v -14.857327 -0.279215 -14.573927
v -15.181043 -0.370927 -14.625483
v -15.491944 -0.371722 -14.649678
v -15.787529 -0.147038 -14.803961
v -15.832781 0.125851 -14.962229
v -15.784751 0.435329 -15.034005
v -15.499593 0.727042 -15.109664
v -15.202673 0.771381 -15.127959
v -14.883304 0.784527 -15.033711
v -14.587719 0.559843 -14.879429
v -14.550935 0.274603 -14.791212
v -14.572169 0.012498 -14.649587
v -14.313039 -0.091542 -13.690282
v -14.377383 -0.112808 -14.029540
v -14.499198 -0.145502 -14.321022
v -14.226901 1.343431 -12.810884
v -14.318544 1.170617 -12.340077
v -14.447196 0.961432 -12.005514
v -14.533764 0.505148 -11.774034
v -14.527056 0.147058 -11.778893
v -14.550479 -0.127698 -11.881569
v -15.089635 0.196275 -12.156424
v -14.903738 -0.045467 -12.058493
v -14.719700 -0.212171 -12.009637
v -14.728736 0.929109 -11.829955
v -14.958863 1.079438 -11.900634
v -15.175591 1.185616 -12.046103
v -15.344812 1.101142 -12.174171
v -15.335546 0.886913 -12.180233
v -15.284607 0.620236 -12.212346
v -15.464429 0.155074 -13.000450
v -15.366752 0.288648 -12.680637
v -15.284232 0.367149 -12.421824
v -15.638626 1.197245 -13.977734
v -15.697563 1.031878 -14.453788
v -15.714899 0.836395 -14.821846
v -14.510256 -0.326075 -12.203211
v -14.421646 -0.315499 -12.521214
v -14.347975 -0.221058 -12.907876
v -14.512976 0.954160 -14.703461
v -14.362257 1.169593 -14.351732
v -14.248881 1.343635 -13.883791
v -15.738185 -0.333994 -14.437657
v -15.735789 -0.293904 -14.120618
v -15.670875 -0.174460 -13.749207
v -15.389089 1.323036 -12.374709
v -15.459499 1.388375 -12.669456
v -15.513477 1.384799 -13.038828
v -14.497573 1.601867 -13.387770
v -14.873372 1.634953 -13.429540
v -15.254301 1.533743 -13.464084
v -14.604261 -0.305334 -13.315828
v -14.948605 -0.334711 -13.323547
v -15.287818 -0.229793 -13.338494
v -15.757915 1.010243 -13.469007
v -15.816310 0.654783 -13.438759
v -15.751252 0.298686 -13.400027
v -14.034139 1.073387 -13.326237
v -14.005667 0.645459 -13.314329
v -14.100647 0.218166 -13.310905
v -15.547425 -0.183082 -14.901840
v -15.582325 0.091385 -15.093612
v -15.557288 0.411142 -15.174275
v -15.224201 -0.175212 -14.892592
v -15.247192 0.106512 -15.096244
v -15.242424 0.435250 -15.189765
v -14.879210 -0.099060 -14.807243
v -14.884300 0.168653 -14.988746
v -14.898464 0.477218 -15.079575
v -14.157945 0.091441 -12.867203
v -14.062753 0.520697 -12.827654
v -14.079710 0.970645 -12.804692
v -14.261560 -0.056827 -12.444408
v -14.179319 0.339715 -12.371399
v -14.190916 0.783751 -12.333803
v -14.394629 -0.139734 -12.099482
v -14.337993 0.190210 -12.007073
v -14.347583 0.594812 -11.980948
v -14.730577 -0.018554 -11.820380
v -14.735492 0.257185 -11.713583
v -14.743560 0.596205 -11.717534
v -14.925878 0.180581 -11.880163
v -14.949413 0.468522 -11.785207
v -14.963862 0.780775 -11.787755
v -15.118148 0.426354 -12.021938
v -15.154248 0.704172 -11.954334
v -15.170547 0.963255 -11.954634
v -15.855841 0.122161 -13.811408
v -15.912690 0.489429 -13.879374
v -15.840399 0.867930 -13.938663
v -15.918979 -0.019581 -14.216558
v -15.972040 0.335379 -14.317883
v -15.896055 0.709148 -14.398066
v -15.904802 -0.102651 -14.564056
v -15.956697 0.210095 -14.693554
v -15.888699 0.549587 -14.773525
v -14.611825 -0.343886 -12.937341
v -14.642252 -0.372488 -12.573715
v -14.684150 -0.331584 -12.260162
v -14.912870 -0.294966 -12.958673
v -14.894497 -0.255976 -12.611078
v -14.892108 -0.183884 -12.306193
v -15.210583 -0.114993 -12.978276
v -15.146603 -0.017664 -12.647572
v -15.102638 0.068291 -12.368121
v -14.556106 1.509646 -13.934555
v -14.663930 1.316951 -14.428841
v -14.789737 1.067401 -14.809509
v -14.935194 1.532785 -13.972189
v -15.028736 1.338854 -14.479078
v -15.125689 1.079143 -14.881001
v -15.318357 1.425098 -13.988301
v -15.392478 1.244469 -14.484697
v -15.450787 1.006690 -14.873604
v -14.658278 1.199828 -12.048691
v -14.570146 1.414278 -12.390568
v -14.507436 1.560906 -12.853067
v -14.929240 1.330703 -12.132465
v -14.890426 1.517493 -12.476353
v -14.863734 1.625519 -12.918063
v -15.192066 1.371992 -12.260048
v -15.209143 1.503461 -12.581267
v -15.223152 1.559650 -12.987070
v -14.778832 -0.343332 -14.307526
v -14.688677 -0.336581 -14.007229
v -14.628648 -0.310029 -13.675532
v -15.125154 -0.454460 -14.333245
v -15.062959 -0.450281 -14.019386
v -15.001166 -0.396447 -13.680897
v -15.465330 -0.452604 -14.370420
v -15.433105 -0.438887 -14.055538
v -15.368961 -0.350939 -13.705204
v -15.413332 0.673306 -12.435863
v -15.483355 0.956610 -12.431585
v -15.481587 1.180142 -12.420728
v -15.525832 0.612864 -12.704336
v -15.605602 0.921801 -12.716032
v -15.589835 1.187800 -12.710574
v -15.638309 0.475268 -13.026651
v -15.713851 0.809857 -13.049083
v -15.677032 1.124323 -13.057209
v -14.340920 0.113771 -14.407604
v -14.294146 0.414588 -14.520693
v -14.350264 0.717448 -14.615872
v -14.185101 0.198740 -14.093860
v -14.119655 0.553195 -14.180582
v -14.178058 0.897645 -14.267820
v -14.106606 0.247140 -13.725171
v -14.023670 0.646908 -13.773711
v -14.069226 1.036545 -13.828351
vn -0.1694 -0.6873 -0.7064
vn -0.2459 -0.3947 -0.8853
vn 0.1607 -0.4176 -0.8943
vn 0.1731 -0.6780 -0.7144
vn -0.2762 -0.0041 -0.9611
vn 0.1237 -0.0463 -0.9912
vn 0.4387 -0.3677 -0.8200
vn 0.4202 -0.6021 -0.6789
vn 0.4178 -0.0623 -0.9064
vn -0.4828 -0.8021 -0.3514
vn -0.6365 -0.5828 -0.5053
vn -0.1357 -0.8956 -0.4237
vn -0.7316 -0.2511 -0.6338
vn -0.7183 0.1200 -0.6854
vn -0.6220 0.4214 -0.6600
vn -0.3004 0.4450 -0.8436
vn 0.0607 0.4087 -0.9107
vn 0.3607 0.3338 -0.8709
vn 0.5644 0.2607 -0.7833
vn 0.6428 -0.0122 -0.7659
vn 0.6660 -0.2735 -0.6940
vn 0.6411 -0.5025 -0.5801
vn 0.4067 -0.7911 -0.4569
vn 0.5805 -0.6831 -0.4432
vn 0.1696 -0.8746 -0.4543
vn 0.9258 -0.3740 0.0552
vn 0.9847 -0.0923 0.1476
vn 0.9530 -0.1174 0.2792
vn 0.8998 -0.4019 0.1697
vn 0.9559 0.2082 0.2072
vn 0.9150 0.1546 0.3728
vn 0.8580 -0.1468 0.4922
vn 0.7997 -0.4545 0.3924
vn 0.8165 0.1116 0.5665
vn 0.7163 -0.6948 -0.0653
vn 0.9325 -0.3609 -0.0115
vn 0.6727 -0.7376 -0.0589
vn 0.9977 -0.0639 0.0230
vn 0.9639 0.2656 0.0176
vn 0.7453 0.6665 -0.0146
vn 0.7622 0.6029 0.2356
vn 0.7338 0.5115 0.4471
vn 0.6414 0.4190 0.6427
vn 0.4888 0.3152 0.8135
vn 0.5286 0.0934 0.8437
vn 0.4925 -0.2079 0.8451
vn 0.3449 -0.5574 0.7552
vn 0.3892 -0.8779 0.2789
vn 0.1487 -0.8293 0.5387
vn 0.5758 -0.8161 0.0487
vn -0.3219 -0.4920 0.8089
vn -0.1400 -0.1846 0.9728
vn -0.5700 -0.1402 0.8096
vn -0.6937 -0.3708 0.6174
vn 0.0234 0.1334 0.9908
vn -0.3660 0.1663 0.9156
vn -0.7621 -0.1309 0.6341
vn -0.8106 -0.2973 0.5045
vn -0.6284 0.1469 0.7639
vn -0.4391 -0.7429 0.5052
vn 0.1885 0.4448 0.8756
vn -0.1378 0.5171 0.8447
vn -0.4296 0.5174 0.7401
vn -0.6425 0.4683 0.6065
vn -0.7948 0.1274 0.5933
vn -0.8453 -0.1240 0.5197
vn -0.8524 -0.2689 0.4484
vn -0.8170 -0.4277 0.3867
vn -0.8470 -0.3607 0.3905
vn -0.7242 -0.5512 0.4143
vn -0.9137 -0.2854 0.2891
vn -0.9861 0.0410 0.1612
vn -0.9990 0.0289 0.0346
vn -0.9343 -0.3268 0.1423
vn -0.9311 0.3639 0.0249
vn -0.9325 0.3507 -0.0859
vn -0.9727 -0.0620 -0.2236
vn -0.8985 -0.4210 -0.1246
vn -0.9128 0.2778 -0.2993
vn -0.7107 -0.5663 0.4174
vn -0.8888 -0.2827 0.3608
vn -0.6894 -0.6275 0.3620
vn -0.9730 0.0143 0.2304
vn -0.9319 0.3537 0.0805
vn -0.7176 0.6955 -0.0354
vn -0.7266 0.6793 -0.1032
vn -0.7237 0.6528 -0.2240
vn -0.6976 0.5813 -0.4189
vn -0.6169 -0.7852 -0.0543
vn -0.6756 -0.7075 0.2072
vn 0.1427 -0.9881 -0.0572
vn -0.0695 -0.9973 0.0240
vn -0.5393 -0.8292 0.1470
vn -0.3383 -0.9327 0.1247
vn -0.3007 -0.9302 0.2105
vn -0.6705 -0.7006 0.2442
vn -0.7237 -0.6227 0.2974
vn -0.6020 -0.7297 0.3244
vn -0.7916 -0.5295 0.3048
vn 0.3062 -0.9516 -0.0280
vn -0.8373 -0.4006 0.3720
vn -0.8025 -0.4498 0.3920
vn -0.7537 -0.5075 0.4175
vn -0.4563 -0.8198 0.3459
vn -0.1240 -0.9800 0.1558
vn 0.3077 0.9050 -0.2936
vn 0.3067 0.8127 -0.4953
vn -0.0512 0.8943 -0.4446
vn -0.0722 0.9622 -0.2625
vn 0.3192 0.6510 -0.6887
vn -0.0054 0.7421 -0.6702
vn -0.3986 0.8468 -0.3521
vn -0.4114 0.8892 -0.2003
vn -0.3571 0.7385 -0.5720
vn 0.7030 0.6575 -0.2711
vn 0.3369 0.9400 -0.0540
vn 0.6598 0.5750 -0.4838
vn 0.6191 0.4318 -0.6559
vn -0.3960 0.9146 -0.0816
vn -0.0583 0.9952 -0.0792
vn 0.3228 0.6714 0.6671
vn 0.3802 0.8136 0.4398
vn 0.0184 0.9330 0.3594
vn 0.0004 0.7896 0.6136
vn 0.3729 0.9057 0.2016
vn -0.0170 0.9916 0.1285
vn -0.3122 0.9131 0.2622
vn -0.3022 0.8040 0.5121
vn -0.3551 0.9329 0.0601
vn -0.6994 0.7130 0.0492
vn -0.6785 0.7029 0.2133
vn -0.6615 0.6141 0.4306
vn 0.4254 -0.8819 -0.2034
vn 0.4337 -0.8999 -0.0458
vn 0.1113 -0.9913 0.0702
vn 0.1515 -0.9768 -0.1510
vn 0.3976 -0.9175 0.0088
vn 0.0287 -0.9861 0.1638
vn -0.2688 -0.9471 0.1753
vn -0.1964 -0.9768 -0.0850
vn -0.3416 -0.8858 0.3142
vn 0.6638 -0.6911 -0.2859
vn 0.7140 -0.6849 -0.1453
vn 0.7287 -0.6813 -0.0696
vn -0.8651 -0.2751 0.4194
vn -0.8958 -0.1016 0.4326
vn -0.9337 -0.0666 0.3518
vn -0.8672 -0.2866 0.4073
vn -0.8826 0.2150 0.4180
vn -0.9191 0.2965 0.2595
vn -0.9582 -0.0259 0.2850
vn -0.8730 -0.2877 0.3938
vn -0.9321 0.3334 0.1418
vn 0.8058 -0.4319 -0.4052
vn 0.8416 -0.1649 -0.5142
vn 0.9443 -0.0861 -0.3177
vn 0.8916 -0.3894 -0.2310
vn 0.7961 0.1212 -0.5929
vn 0.8821 0.2342 -0.4087
vn 0.9895 -0.0547 -0.1334
vn 0.9264 -0.3643 -0.0956
vn 0.9382 0.2820 -0.2007
vt 0.437500 0.062351
vt 0.500000 0.062283
vt 0.500000 0.123264
vt 0.437500 0.123806
vt 0.562500 0.062351
vt 0.562500 0.123806
vt 0.500000 0.181207
vt 0.437500 0.182983
vt 0.562500 0.182983
vt 0.375000 0.000000
vt 0.437500 0.000000
vt 0.375000 0.062500
vt 0.500000 0.000000
vt 0.562500 0.000000
vt 0.625000 0.000000
vt 0.625000 0.062500
vt 0.625000 0.125000
vt 0.625000 0.187500
vt 0.625000 0.250000
vt 0.562500 0.235677
vt 0.500000 0.232639
vt 0.437500 0.235677
vt 0.375000 0.187500
vt 0.375000 0.250000
vt 0.375000 0.125000
vt 0.437500 0.406399
vt 0.500000 0.406467
vt 0.500000 0.439236
vt 0.437500 0.438694
vt 0.562500 0.406399
vt 0.562500 0.438694
vt 0.500000 0.475043
vt 0.437609 0.473267
vt 0.562392 0.473267
vt 0.375000 0.375000
vt 0.437500 0.375000
vt 0.375000 0.406250
vt 0.500000 0.375000
vt 0.562500 0.375000
vt 0.625000 0.375000
vt 0.625000 0.406250
vt 0.625000 0.437500
vt 0.625000 0.468750
vt 0.625000 0.500000
vt 0.561252 0.514350
vt 0.500000 0.517361
vt 0.438748 0.514350
vt 0.375000 0.468750
vt 0.375000 0.500000
vt 0.375000 0.437500
vt 0.441976 0.566976
vt 0.500000 0.568576
vt 0.500000 0.625000
vt 0.443576 0.625000
vt 0.558024 0.566976
vt 0.556424 0.625000
vt 0.500000 0.681424
vt 0.441976 0.683024
vt 0.558024 0.683024
vt 0.389350 0.563748
vt 0.610650 0.563748
vt 0.607639 0.625000
vt 0.610650 0.686252
vt 0.625000 0.750000
vt 0.561252 0.735650
vt 0.500000 0.732639
vt 0.438748 0.735650
vt 0.389350 0.686252
vt 0.375000 0.750000
vt 0.392361 0.625000
vt 0.437500 0.906250
vt 0.500000 0.906250
vt 0.500000 0.937500
vt 0.437500 0.937500
vt 0.562500 0.906250
vt 0.562500 0.937500
vt 0.500000 0.968750
vt 0.437500 0.968750
vt 0.562500 0.968750
vt 0.375000 0.875000
vt 0.437500 0.875000
vt 0.375000 0.906250
vt 0.500000 0.875000
vt 0.562500 0.875000
vt 0.625000 0.875000
vt 0.625000 0.906250
vt 0.625000 0.937500
vt 0.625000 0.968750
vt 0.625000 1.000000
vt 0.562500 1.000000
vt 0.500000 1.000000
vt 0.437500 1.000000
vt 0.375000 0.968750
vt 0.375000 1.000000
vt 0.375000 0.937500
vt 0.281399 0.562500
vt 0.313694 0.562500
vt 0.314236 0.625000
vt 0.281467 0.625000
vt 0.348267 0.562609
vt 0.350043 0.625000
vt 0.313694 0.687500
vt 0.281399 0.687500
vt 0.348267 0.687392
vt 0.250000 0.500000
vt 0.281250 0.500000
vt 0.250000 0.562500
vt 0.312500 0.500000
vt 0.343750 0.500000
vt 0.343750 0.750000
vt 0.312500 0.750000
vt 0.281250 0.750000
vt 0.250000 0.687500
vt 0.250000 0.750000
vt 0.250000 0.625000
vt 0.781250 0.562500
vt 0.812500 0.562500
vt 0.812500 0.625000
vt 0.781250 0.625000
vt 0.843750 0.562500
vt 0.843750 0.625000
vt 0.812500 0.687500
vt 0.781250 0.687500
vt 0.843750 0.687500
vt 0.750000 0.500000
vt 0.781250 0.500000
vt 0.750000 0.562500
vt 0.812500 0.500000
vt 0.843750 0.500000
vt 0.875000 0.500000
vt 0.875000 0.562500
vt 0.875000 0.625000
vt 0.875000 0.687500
vt 0.875000 0.750000
vt 0.843750 0.750000
vt 0.812500 0.750000
vt 0.781250 0.750000
vt 0.750000 0.687500
vt 0.750000 0.750000
vt 0.750000 0.625000
vt 0.651733 0.562609
vt 0.686306 0.562500
vt 0.685764 0.625000
vt 0.649957 0.625000
vt 0.718601 0.562500
vt 0.718533 0.625000
vt 0.686306 0.687500
vt 0.651733 0.687391
vt 0.718601 0.687500
vt 0.656250 0.500000
vt 0.687500 0.500000
vt 0.718750 0.500000
vt 0.718750 0.750000
vt 0.687500 0.750000
vt 0.656250 0.750000
vt 0.156250 0.562500
vt 0.187500 0.562500
vt 0.187500 0.625000
vt 0.156250 0.625000
vt 0.218750 0.562500
vt 0.218750 0.625000
vt 0.187500 0.687500
vt 0.156250 0.687500
vt 0.218750 0.687500
vt 0.125000 0.500000
vt 0.156250 0.500000
vt 0.125000 0.562500
vt 0.187500 0.500000
vt 0.218750 0.500000
vt 0.218750 0.750000
vt 0.187500 0.750000
vt 0.156250 0.750000
vt 0.125000 0.687500
vt 0.125000 0.750000
vt 0.125000 0.625000
vt 0.437609 0.776733
vt 0.500000 0.774957
vt 0.500000 0.810764
vt 0.437500 0.811306
vt 0.562392 0.776734
vt 0.562500 0.811306
vt 0.500000 0.843533
vt 0.437500 0.843601
vt 0.562500 0.843601
vt 0.375000 0.781250
vt 0.625000 0.781250
vt 0.625000 0.812500
vt 0.625000 0.843750
vt 0.375000 0.843750
vt 0.375000 0.812500
vt 0.437500 0.276733
vt 0.500000 0.274957
vt 0.500000 0.310764
vt 0.437500 0.311306
vt 0.562500 0.276733
vt 0.562500 0.311306
vt 0.500000 0.343533
vt 0.437500 0.343601
vt 0.562500 0.343601
vt 0.375000 0.281250
vt 0.625000 0.281250
vt 0.625000 0.312500
vt 0.625000 0.343750
vt 0.375000 0.343750
vt 0.375000 0.312500
s 1
usemtl rock
f 77/5/2 78/6/3 81/7/4 80/8/5
f 78/6/3 79/9/6 82/10/7 81/7/4
f 80/8/5 81/7/4 84/11/8 83/12/9
f 81/7/4 82/10/7 85/13/10 84/11/8
f 5/14/11 20/15/12 77/5/2 19/16/13
f 20/15/12 21/17/14 78/6/3 77/5/2
f 21/17/14 22/18/15 79/9/6 78/6/3
f 22/18/15 6/19/16 23/20/17 79/9/6
f 79/9/6 23/20/17 24/21/18 82/10/7
f 82/10/7 24/21/18 25/22/19 85/13/10
f 85/13/10 25/22/19 8/23/20 26/24/21
f 84/11/8 85/13/10 26/24/21 27/25/22
f 83/12/9 84/11/8 27/25/22 28/26/23
f 17/27/24 83/12/9 28/26/23 7/28/25
f 18/29/26 80/8/5 83/12/9 17/27/24
f 19/16/13 77/5/2 80/8/5 18/29/26
f 86/30/27 87/31/28 90/32/29 89/33/30
f 87/31/28 88/34/31 91/35/32 90/32/29
f 89/33/30 90/32/29 93/36/33 92/37/34
f 90/32/29 91/35/32 94/38/35 93/36/33
f 13/39/36 76/40/37 86/30/27 55/41/38
f 76/40/37 75/42/39 87/31/28 86/30/27
f 75/42/39 74/43/40 88/34/31 87/31/28
f 74/43/40 14/44/41 32/45/42 88/34/31
f 88/34/31 32/45/42 33/46/43 91/35/32
f 91/35/32 33/46/43 34/47/44 94/38/35
f 94/38/35 34/47/44 12/48/45 35/49/46
f 93/36/33 94/38/35 35/49/46 36/50/47
f 92/37/34 93/36/33 36/50/47 37/51/48
f 53/52/49 92/37/34 37/51/48 11/53/50
f 54/54/51 89/33/30 92/37/34 53/52/49
f 55/41/38 86/30/27 89/33/30 54/54/51
f 95/55/52 96/56/53 99/57/54 98/58/55
f 96/56/53 97/59/56 100/60/57 99/57/54
f 98/58/55 99/57/54 102/61/58 101/62/59
f 99/57/54 100/60/57 103/63/60 102/61/58
f 11/53/50 37/51/48 95/55/52 40/64/61
f 37/51/48 36/50/47 96/56/53 95/55/52
f 36/50/47 35/49/46 97/59/56 96/56/53
f 35/49/46 12/48/45 41/65/62 97/59/56
f 97/59/56 41/65/62 42/66/63 100/60/57
f 100/60/57 42/66/63 43/67/64 103/63/60
f 103/63/60 43/67/64 10/68/65 44/69/66
f 102/61/58 103/63/60 44/69/66 45/70/67
f 101/62/59 102/61/58 45/70/67 46/71/68
f 38/72/69 101/62/59 46/71/68 9/73/70
f 39/74/71 98/58/55 101/62/59 38/72/69
f 40/64/61 95/55/52 98/58/55 39/74/71
f 104/75/72 105/76/73 108/77/74 107/78/75
f 105/76/73 106/79/76 109/80/77 108/77/74
f 107/78/75 108/77/74 111/81/78 110/82/79
f 108/77/74 109/80/77 112/83/80 111/81/78
f 15/84/81 73/85/82 104/75/72 61/86/83
f 73/85/82 72/87/84 105/76/73 104/75/72
f 72/87/84 71/88/85 106/79/76 105/76/73
f 71/88/85 16/89/86 50/90/87 106/79/76
f 106/79/76 50/90/87 51/91/88 109/80/77
f 109/80/77 51/91/88 52/92/89 112/83/80
f 112/83/80 52/92/89 6/93/16 22/94/15
f 111/81/78 112/83/80 22/94/15 21/95/14
f 110/82/79 111/81/78 21/95/14 20/96/12
f 59/97/90 110/82/79 20/96/12 5/98/11
f 60/99/91 107/78/75 110/82/79 59/97/90
f 61/86/83 104/75/72 107/78/75 60/99/91
f 113/100/92 114/101/93 117/102/94 116/103/95
f 114/101/93 115/104/96 118/105/97 117/102/94
f 116/103/95 117/102/94 120/106/98 119/107/99
f 117/102/94 118/105/97 121/108/100 120/106/98
f 13/109/36 55/110/38 113/100/92 68/111/101
f 55/110/38 54/112/51 114/101/93 113/100/92
f 54/112/51 53/113/49 115/104/96 114/101/93
f 53/113/49 11/53/50 40/64/61 115/104/96
f 115/104/96 40/64/61 39/74/71 118/105/97
f 118/105/97 39/74/71 38/72/69 121/108/100
f 121/108/100 38/72/69 9/73/70 49/114/102
f 120/106/98 121/108/100 49/114/102 48/115/103
f 119/107/99 120/106/98 48/115/103 47/116/104
f 70/117/105 119/107/99 47/116/104 15/118/81
f 69/119/106 116/103/95 119/107/99 70/117/105
f 68/111/101 113/100/92 116/103/95 69/119/106
f 122/120/107 123/121/108 126/122/109 125/123/110
f 123/121/108 124/124/111 127/125/112 126/122/109
f 125/123/110 126/122/109 129/126/113 128/127/114
f 126/122/109 127/125/112 130/128/115 129/126/113
f 14/129/41 58/130/116 122/120/107 65/131/117
f 58/130/116 57/132/118 123/121/108 122/120/107
f 57/132/118 56/133/119 124/124/111 123/121/108
f 56/133/119 8/134/20 25/135/19 124/124/111
f 124/124/111 25/135/19 24/136/18 127/125/112
f 127/125/112 24/136/18 23/137/17 130/128/115
f 130/128/115 23/137/17 6/138/16 52/139/89
f 129/126/113 130/128/115 52/139/89 51/140/88
f 128/127/114 129/126/113 51/140/88 50/141/87
f 67/142/120 128/127/114 50/141/87 16/143/86
f 66/144/121 125/123/110 128/127/114 67/142/120
f 65/131/117 122/120/107 125/123/110 66/144/121
f 131/145/122 132/146/123 135/147/124 134/148/125
f 132/146/123 133/149/126 136/150/127 135/147/124
f 134/148/125 135/147/124 138/151/128 137/152/129
f 135/147/124 136/150/127 139/153/130 138/151/128
f 12/48/45 34/154/44 131/145/122 41/65/62
f 34/154/44 33/155/43 132/146/123 131/145/122
f 33/155/43 32/156/42 133/149/126 132/146/123
f 32/156/42 14/129/41 65/131/117 133/149/126
f 133/149/126 65/131/117 66/144/121 136/150/127
f 136/150/127 66/144/121 67/142/120 139/153/130
f 139/153/130 67/142/120 16/143/86 64/157/131
f 138/151/128 139/153/130 64/157/131 63/158/132
f 137/152/129 138/151/128 63/158/132 62/159/133
f 43/67/64 137/152/129 62/159/133 10/68/65
f 42/66/63 134/148/125 137/152/129 43/67/64
f 41/65/62 131/145/122 134/148/125 42/66/63
f 140/160/134 141/161/135 144/162/136 143/163/137
f 141/161/135 142/164/138 145/165/139 144/162/136
f 143/163/137 144/162/136 147/166/140 146/167/141
f 144/162/136 145/165/139 148/168/142 147/166/140
f 7/169/25 31/170/143 140/160/134 17/171/24
f 31/170/143 30/172/144 141/161/135 140/160/134
f 30/172/144 29/173/145 142/164/138 141/161/135
f 29/173/145 13/109/36 68/111/101 142/164/138
f 142/164/138 68/111/101 69/119/106 145/165/139
f 145/165/139 69/119/106 70/117/105 148/168/142
f 148/168/142 70/117/105 15/118/81 61/174/83
f 147/166/140 148/168/142 61/174/83 60/175/91
f 146/167/141 147/166/140 60/175/91 59/176/90
f 19/177/13 146/167/141 59/176/90 5/178/11
f 18/179/26 143/163/137 146/167/141 19/177/13
f 17/171/24 140/160/134 143/163/137 18/179/26
f 149/180/146 150/181/147 153/182/148 152/183/149
f 150/181/147 151/184/150 154/185/151 153/182/148
f 152/183/149 153/182/148 156/186/152 155/187/153
f 153/182/148 154/185/151 157/188/154 156/186/152
f 9/73/70 46/71/68 149/180/146 49/189/102
f 46/71/68 45/70/67 150/181/147 149/180/146
f 45/70/67 44/69/66 151/184/150 150/181/147
f 44/69/66 10/68/65 62/190/133 151/184/150
f 151/184/150 62/190/133 63/191/132 154/185/151
f 154/185/151 63/191/132 64/192/131 157/188/154
f 157/188/154 64/192/131 16/89/86 71/88/85
f 156/186/152 157/188/154 71/88/85 72/87/84
f 155/187/153 156/186/152 72/87/84 73/85/82
f 47/193/104 155/187/153 73/85/82 15/84/81
f 48/194/103 152/183/149 155/187/153 47/193/104
f 49/189/102 149/180/146 152/183/149 48/194/103
f 158/195/155 159/196/156 162/197/157 161/198/158
f 159/196/156 160/199/159 163/200/160 162/197/157
f 161/198/158 162/197/157 165/201/161 164/202/162
f 162/197/157 163/200/160 166/203/163 165/201/161
f 7/28/25 28/26/23 158/195/155 31/204/143
f 28/26/23 27/25/22 159/196/156 158/195/155
f 27/25/22 26/24/21 160/199/159 159/196/156
f 26/24/21 8/23/20 56/205/119 160/199/159
f 160/199/159 56/205/119 57/206/118 163/200/160
f 163/200/160 57/206/118 58/207/116 166/203/163
f 166/203/163 58/207/116 14/44/41 74/43/40
f 165/201/161 166/203/163 74/43/40 75/42/39
f 164/202/162 165/201/161 75/42/39 76/40/37
f 29/208/145 164/202/162 76/40/37 13/39/36
f 30/209/144 161/198/158 164/202/162 29/208/145
f 31/204/143 158/195/155 161/198/158 30/209/144
