# Blender 4.0.2
# www.blender.org
mtllib rock2.mtl
o rock2
v -26.043320 -1.896941 -22.422838
v -27.154358 -0.958068 -21.950001
v -24.580942 -0.448383 -23.117252
v -25.984703 0.342431 -22.444086
v -23.770487 -1.099053 -19.316565
v -24.644648 -0.388361 -18.066280
v -21.684513 -1.117293 -20.281673
v -23.299618 0.020982 -18.370358
v -21.858734 -0.082243 -22.403639
v -24.535110 1.441034 -19.946789
v -24.694309 -1.712809 -21.102093
v -26.033779 -0.472919 -19.742010
v -24.902929 -0.841040 -23.040070
v -25.357641 -1.321829 -22.856573
v -25.776882 -1.702755 -22.622444
v -26.419262 -1.828174 -22.378815
v -26.820045 -1.608646 -22.276304
v -27.074877 -1.269374 -22.110966
v -27.100475 -0.674562 -22.093002
v -26.861328 -0.287437 -22.247774
v -26.428419 0.087249 -22.365444
v -25.680769 0.241271 -22.695450
v -25.245798 0.041625 -22.951893
v -24.836164 -0.220898 -23.094273
v -22.588741 -0.030617 -22.774967
v -23.366785 -0.125511 -23.006746
v -24.071114 -0.296148 -23.108347
v -24.200148 1.326572 -18.988798
v -23.794172 0.950735 -18.471085
v -23.471077 0.433996 -18.335772
v -22.798203 -0.312090 -18.793140
v -22.139551 -0.707011 -19.401646
v -21.776361 -0.990233 -19.938604
v -23.238495 -1.183145 -19.557644
v -22.557915 -1.257399 -19.871431
v -22.013969 -1.232427 -20.128777
v -23.592649 -0.048257 -18.127581
v -23.974720 -0.150481 -17.958435
v -24.368006 -0.275983 -17.960407
v -24.560898 -0.556390 -18.194397
v -24.380190 -0.760017 -18.469015
v -24.098497 -0.960250 -18.893463
v -24.288498 -1.473934 -20.605297
v -24.016413 -1.267926 -20.055956
v -23.869444 -1.149289 -19.588453
v -26.471424 -0.637745 -20.465866
v -26.869492 -0.779344 -21.086025
v -27.101305 -0.889136 -21.602179
v -21.405565 -0.979790 -20.724737
v -21.221331 -0.691108 -21.316181
v -21.355244 -0.336012 -21.902784
v -25.738169 0.632917 -22.215200
v -25.317511 0.978894 -21.781092
v -24.849531 1.286236 -21.034981
v -25.855961 -2.008256 -22.223705
v -25.542421 -2.031905 -21.907148
v -25.140385 -1.920073 -21.529451
v -24.940426 -0.338868 -18.175995
v -25.302576 -0.314645 -18.486076
v -25.657227 -0.351974 -19.021910
v -25.135698 1.227206 -19.594156
v -25.570944 0.773921 -19.491518
v -25.885242 0.163944 -19.564772
v -22.292606 -0.664003 -22.324413
v -23.032309 -1.160352 -22.022554
v -23.930956 -1.532241 -21.581520
v -25.960047 -1.013615 -19.987854
v -25.692467 -1.418962 -20.297890
v -25.269506 -1.664110 -20.669037
v -23.496836 1.395112 -20.618044
v -22.242777 1.098923 -21.473349
v -21.759243 0.551963 -22.145132
v -26.247730 -1.556708 -22.651430
v -26.684107 -1.321021 -22.575871
v -26.980896 -0.999137 -22.393740
v -25.879421 -1.160895 -22.868044
v -26.351505 -0.910929 -22.779963
v -26.703115 -0.607745 -22.576941
v -25.392586 -0.681019 -23.023058
v -25.852182 -0.433882 -22.907822
v -26.238369 -0.178883 -22.680914
v -21.146528 0.273511 -21.578676
v -21.689821 0.852421 -20.732851
v -23.241650 1.194981 -19.696390
v -20.992565 -0.197940 -20.990135
v -21.490280 0.335216 -20.186180
v -22.923084 0.728487 -19.174713
v -21.285915 -0.663531 -20.416904
v -21.678526 -0.256568 -19.777546
v -22.694878 0.152607 -18.968674
v -22.316629 -1.139096 -19.585508
v -22.724522 -0.895936 -19.033260
v -23.203030 -0.513420 -18.504763
v -22.937410 -1.133122 -19.273466
v -23.333836 -0.890360 -18.704790
v -23.659954 -0.549627 -18.246300
v -23.585695 -1.034046 -18.996511
v -23.889078 -0.805429 -18.488535
v -24.120651 -0.543401 -18.137949
v -25.670927 -1.878010 -21.177029
v -26.089989 -1.613370 -20.874771
v -26.373611 -1.183185 -20.627977
v -26.049465 -1.992870 -21.637365
v -26.469315 -1.725400 -21.401062
v -26.757832 -1.298284 -21.201286
v -26.326710 -1.976480 -22.043560
v -26.734276 -1.735681 -21.876961
v -27.000881 -1.345788 -21.705120
v -21.816111 -0.807993 -21.845837
v -21.657280 -1.019645 -21.279959
v -21.765259 -1.181712 -20.692451
v -22.496317 -1.150643 -21.563810
v -22.259426 -1.204860 -21.020025
v -22.310879 -1.263789 -20.449734
v -23.399734 -1.378749 -21.125158
v -23.095608 -1.280158 -20.593777
v -23.064640 -1.238732 -20.067924
v -25.514351 1.029879 -20.670692
v -25.955742 0.724252 -21.452932
v -26.309578 0.398524 -21.973513
v -26.004910 0.562541 -20.481384
v -26.449646 0.293845 -21.232988
v -26.766283 0.016514 -21.796818
v -26.337414 -0.027529 -20.418465
v -26.763014 -0.229232 -21.103100
v -27.029484 -0.427552 -21.655005
v -23.912975 0.448147 -17.997667
v -24.279856 0.901411 -18.146444
v -24.718794 1.187758 -18.670311
v -24.322636 0.257780 -17.890852
v -24.717274 0.600721 -18.087502
v -25.147657 0.792466 -18.616503
v -24.699301 -0.031543 -17.979046
v -25.084997 0.153795 -18.231634
v -25.480682 0.233643 -18.762991
v -24.340517 -0.829442 -22.998913
v -23.694763 -0.736103 -22.890139
v -22.979258 -0.657670 -22.672932
v -24.840006 -1.369414 -22.761248
v -24.301844 -1.330163 -22.598888
v -23.698154 -1.242956 -22.362888
v -25.368267 -1.791322 -22.473558
v -24.956669 -1.793469 -22.235933
v -24.479620 -1.694182 -21.941875
v -24.432123 -1.006684 -19.087543
v -24.771103 -0.820700 -18.681969
v -24.950584 -0.602564 -18.396648
v -24.678020 -1.164133 -19.529181
v -25.082474 -0.971982 -19.103916
v -25.296154 -0.693782 -18.771263
v -24.934645 -1.406526 -20.107668
v -25.367283 -1.188468 -19.683397
v -25.614244 -0.835418 -19.327766
v -24.197742 0.135606 -23.064407
v -24.608427 0.454135 -22.868118
v -25.153370 0.637207 -22.549438
v -23.451780 0.403860 -22.913382
v -23.899775 0.792612 -22.628361
v -24.585175 0.996020 -22.209791
v -22.601192 0.565068 -22.610886
v -23.060583 1.034320 -22.178606
v -23.950808 1.285743 -21.585546
vn -0.2593 -0.4518 -0.8536
vn -0.5252 -0.2820 -0.8029
vn -0.3678 -0.0295 -0.9295
vn -0.1788 -0.2439 -0.9532
vn -0.7732 -0.0332 -0.6333
vn -0.5844 0.2155 -0.7823
vn -0.2915 0.1598 -0.9431
vn -0.1570 -0.0620 -0.9856
vn -0.4362 0.3768 -0.8172
vn -0.1168 -0.8015 -0.5864
vn -0.3813 -0.7612 -0.5246
vn -0.0147 -0.6295 -0.7768
vn -0.6880 -0.6054 -0.4002
vn -0.9135 -0.3405 -0.2227
vn -0.9973 -0.0559 -0.0484
vn -0.9314 0.2390 -0.2747
vn -0.7583 0.4741 -0.4475
vn -0.5724 0.6102 -0.5477
vn -0.4368 0.6745 -0.5951
vn -0.3318 0.5476 -0.7681
vn -0.2274 0.3643 -0.9031
vn -0.1133 0.1428 -0.9833
vn 0.0025 -0.2767 -0.9610
vn 0.0067 -0.0884 -0.9961
vn 0.0093 -0.4549 -0.8905
vn 0.8776 0.3804 -0.2916
vn 0.5926 0.7907 0.1538
vn 0.7586 0.4490 0.4721
vn 0.9960 0.0202 0.0873
vn 0.3462 0.9010 0.2614
vn 0.5613 0.6373 0.5280
vn 0.7545 0.0631 0.6533
vn 0.8744 -0.2879 0.3905
vn 0.6590 0.2721 0.7012
vn 0.5633 -0.1048 -0.8196
vn 0.5808 0.5613 -0.5896
vn 0.7452 -0.2861 -0.6024
vn 0.3522 0.9169 -0.1876
vn 0.1369 0.9904 -0.0170
vn -0.1140 0.9928 0.0364
vn 0.1172 0.9510 0.2863
vn 0.4228 0.7230 0.5463
vn 0.6090 0.3671 0.7031
vn 0.6436 0.0725 0.7619
vn 0.6451 -0.0488 0.7625
vn 0.6542 -0.2527 0.7129
vn 0.6573 -0.5384 0.5274
vn 0.7093 -0.7034 0.0460
vn 0.5893 -0.7702 0.2441
vn 0.7991 -0.5392 -0.2659
vn 0.3805 -0.7867 0.4861
vn 0.4664 -0.5557 0.6882
vn 0.2279 -0.7640 0.6037
vn 0.1176 -0.9176 0.3797
vn 0.5318 -0.3170 0.7853
vn 0.3142 -0.5209 0.7936
vn 0.0296 -0.8470 0.5308
vn -0.0243 -0.9444 0.3278
vn 0.0598 -0.6552 0.7531
vn 0.2988 -0.9332 0.1997
vn 0.5184 -0.0392 0.8542
vn 0.2381 -0.2082 0.9487
vn -0.0595 -0.3630 0.9299
vn -0.2566 -0.4824 0.8375
vn -0.1587 -0.7247 0.6706
vn -0.0876 -0.8702 0.4848
vn -0.0627 -0.9420 0.3297
vn -0.0492 -0.9859 0.1597
vn -0.0600 -0.9748 0.2149
vn 0.0493 -0.9882 0.1453
vn -0.0660 -0.9344 0.3502
vn -0.3805 -0.7842 0.4901
vn -0.4948 -0.7716 0.3997
vn -0.1868 -0.9563 0.2249
vn -0.6580 -0.5042 0.5593
vn -0.7302 -0.4765 0.4897
vn -0.6369 -0.7619 0.1178
vn -0.3293 -0.9425 -0.0579
vn -0.8452 -0.4674 0.2591
vn 0.2200 -0.9541 0.2031
vn 0.0124 -0.9249 0.3799
vn 0.2049 -0.9717 0.1176
vn -0.3045 -0.8191 0.4861
vn -0.6421 -0.5492 0.5349
vn -0.8561 -0.1234 0.5018
vn -0.8377 -0.0893 0.5388
vn -0.8727 -0.0592 0.4847
vn -0.9580 -0.0482 0.2828
vn 0.0064 -0.9512 -0.3086
vn 0.1274 -0.9906 -0.0489
vn 0.4333 -0.7369 -0.5190
vn 0.4103 -0.8626 -0.2961
vn 0.1580 -0.9769 -0.1441
vn 0.2504 -0.9326 -0.2600
vn 0.3209 -0.9440 -0.0763
vn 0.0667 -0.9974 -0.0272
vn 0.0928 -0.9938 0.0607
vn 0.2080 -0.9777 0.0274
vn -0.0110 -0.9971 0.0758
vn 0.3974 -0.6263 -0.6707
vn -0.0071 -0.9790 0.2036
vn 0.0896 -0.9684 0.2328
vn 0.1767 -0.9544 0.2407
vn 0.2906 -0.9555 -0.0513
vn 0.3082 -0.8779 -0.3665
vn -0.5287 0.8487 0.0116
vn -0.5493 0.8326 -0.0714
vn -0.7405 0.6554 0.1487
vn -0.7523 0.6258 0.2060
vn -0.5875 0.7731 -0.2391
vn -0.7764 0.6270 -0.0640
vn -0.8626 0.3622 0.3531
vn -0.8576 0.3222 0.4009
vn -0.9225 0.3619 0.1338
vn -0.2376 0.9616 -0.1376
vn -0.4828 0.8624 0.1521
vn -0.3259 0.9053 -0.2725
vn -0.3934 0.8125 -0.4301
vn -0.8758 0.2695 0.4004
vn -0.7619 0.5819 0.2844
vn 0.3513 0.3134 0.8823
vn 0.0303 0.6679 0.7436
vn -0.4147 0.3993 0.8177
vn -0.0496 0.1244 0.9910
vn -0.3028 0.8494 0.4323
vn -0.6721 0.5349 0.5120
vn -0.6617 0.1137 0.7411
vn -0.3630 -0.0696 0.9292
vn -0.8305 0.2140 0.5143
vn -0.8412 -0.1609 0.5163
vn -0.7248 -0.2366 0.6470
vn -0.4993 -0.3603 0.7879
vn 0.1664 -0.4201 -0.8921
vn 0.2714 -0.4909 -0.8279
vn 0.2964 -0.7437 -0.5992
vn 0.1867 -0.6319 -0.7523
vn 0.3429 -0.5535 -0.7590
vn 0.3292 -0.8181 -0.4715
vn 0.2879 -0.8941 -0.3430
vn 0.1745 -0.8029 -0.5700
vn 0.3244 -0.9305 -0.1698
vn 0.1148 -0.0714 -0.9908
vn 0.2415 -0.0525 -0.9690
vn 0.3854 -0.0495 -0.9214
vn -0.0410 -0.9441 0.3271
vn -0.1620 -0.8784 0.4497
vn -0.2197 -0.8745 0.4324
vn 0.0071 -0.9404 0.3400
vn -0.3773 -0.6956 0.6114
vn -0.5432 -0.6399 0.5436
vn -0.2612 -0.8543 0.4495
vn 0.0348 -0.9295 0.3672
vn -0.6268 -0.5932 0.5052
vn 0.0017 0.3214 -0.9469
vn -0.1288 0.5816 -0.8032
vn -0.0017 0.7588 -0.6513
vn 0.1451 0.4536 -0.8793
vn -0.2457 0.7394 -0.6268
vn -0.1447 0.8809 -0.4506
vn 0.1508 0.8777 -0.4548
vn 0.3259 0.5504 -0.7687
vn -0.0188 0.9661 -0.2576
vt 0.437500 0.062351
vt 0.500000 0.062283
vt 0.500000 0.123264
vt 0.437500 0.123806
vt 0.562500 0.062351
vt 0.562500 0.123806
vt 0.500000 0.181207
vt 0.437500 0.182983
vt 0.562500 0.182983
vt 0.375000 0.000000
vt 0.437500 0.000000
vt 0.375000 0.062500
vt 0.500000 0.000000
vt 0.562500 0.000000
vt 0.625000 0.000000
vt 0.625000 0.062500
vt 0.625000 0.125000
vt 0.625000 0.187500
vt 0.625000 0.250000
vt 0.562500 0.235677
vt 0.500000 0.232639
vt 0.437500 0.235677
vt 0.375000 0.187500
vt 0.375000 0.250000
vt 0.375000 0.125000
vt 0.437500 0.406399
vt 0.500000 0.406467
vt 0.500000 0.439236
vt 0.437500 0.438694
vt 0.562500 0.406399
vt 0.562500 0.438694
vt 0.500000 0.475043
vt 0.437609 0.473267
vt 0.562392 0.473267
vt 0.375000 0.375000
vt 0.437500 0.375000
vt 0.375000 0.406250
vt 0.500000 0.375000
vt 0.562500 0.375000
vt 0.625000 0.375000
vt 0.625000 0.406250
vt 0.625000 0.437500
vt 0.625000 0.468750
vt 0.625000 0.500000
vt 0.561252 0.514350
vt 0.500000 0.517361
vt 0.438748 0.514350
vt 0.375000 0.468750
vt 0.375000 0.500000
vt 0.375000 0.437500
vt 0.441976 0.566976
vt 0.500000 0.568576
vt 0.500000 0.625000
vt 0.443576 0.625000
vt 0.558024 0.566976
vt 0.556424 0.625000
vt 0.500000 0.681424
vt 0.441976 0.683024
vt 0.558024 0.683024
vt 0.389350 0.563748
vt 0.610650 0.563748
vt 0.607639 0.625000
vt 0.610650 0.686252
vt 0.625000 0.750000
vt 0.561252 0.735650
vt 0.500000 0.732639
vt 0.438748 0.735650
vt 0.389350 0.686252
vt 0.375000 0.750000
vt 0.392361 0.625000
vt 0.437500 0.906250
vt 0.500000 0.906250
vt 0.500000 0.937500
vt 0.437500 0.937500
vt 0.562500 0.906250
vt 0.562500 0.937500
vt 0.500000 0.968750
vt 0.437500 0.968750
vt 0.562500 0.968750
vt 0.375000 0.875000
vt 0.437500 0.875000
vt 0.375000 0.906250
vt 0.500000 0.875000
vt 0.562500 0.875000
vt 0.625000 0.875000
vt 0.625000 0.906250
vt 0.625000 0.937500
vt 0.625000 0.968750
vt 0.625000 1.000000
vt 0.562500 1.000000
vt 0.500000 1.000000
vt 0.437500 1.000000
vt 0.375000 0.968750
vt 0.375000 1.000000
vt 0.375000 0.937500
vt 0.281399 0.562500
vt 0.313694 0.562500
vt 0.314236 0.625000
vt 0.281467 0.625000
vt 0.348267 0.562609
vt 0.350043 0.625000
vt 0.313694 0.687500
vt 0.281399 0.687500
vt 0.348267 0.687392
vt 0.250000 0.500000
vt 0.281250 0.500000
vt 0.250000 0.562500
vt 0.312500 0.500000
vt 0.343750 0.500000
vt 0.343750 0.750000
vt 0.312500 0.750000
vt 0.281250 0.750000
vt 0.250000 0.687500
vt 0.250000 0.750000
vt 0.250000 0.625000
vt 0.781250 0.562500
vt 0.812500 0.562500
vt 0.812500 0.625000
vt 0.781250 0.625000
vt 0.843750 0.562500
vt 0.843750 0.625000
vt 0.812500 0.687500
vt 0.781250 0.687500
vt 0.843750 0.687500
vt 0.750000 0.500000
vt 0.781250 0.500000
vt 0.750000 0.562500
vt 0.812500 0.500000
vt 0.843750 0.500000
vt 0.875000 0.500000
vt 0.875000 0.562500
vt 0.875000 0.625000
vt 0.875000 0.687500
vt 0.875000 0.750000
vt 0.843750 0.750000
vt 0.812500 0.750000
vt 0.781250 0.750000
vt 0.750000 0.687500
vt 0.750000 0.750000
vt 0.750000 0.625000
vt 0.651733 0.562609
vt 0.686306 0.562500
vt 0.685764 0.625000
vt 0.649957 0.625000
vt 0.718601 0.562500
vt 0.718533 0.625000
vt 0.686306 0.687500
vt 0.651733 0.687391
vt 0.718601 0.687500
vt 0.656250 0.500000
vt 0.687500 0.500000
vt 0.718750 0.500000
vt 0.718750 0.750000
vt 0.687500 0.750000
vt 0.656250 0.750000
vt 0.156250 0.562500
vt 0.187500 0.562500
vt 0.187500 0.625000
vt 0.156250 0.625000
vt 0.218750 0.562500
vt 0.218750 0.625000
vt 0.187500 0.687500
vt 0.156250 0.687500
vt 0.218750 0.687500
vt 0.125000 0.500000
vt 0.156250 0.500000
vt 0.125000 0.562500
vt 0.187500 0.500000
vt 0.218750 0.500000
vt 0.218750 0.750000
vt 0.187500 0.750000
vt 0.156250 0.750000
vt 0.125000 0.687500
vt 0.125000 0.750000
vt 0.125000 0.625000
vt 0.437609 0.776733
vt 0.500000 0.774957
vt 0.500000 0.810764
vt 0.437500 0.811306
vt 0.562392 0.776734
vt 0.562500 0.811306
vt 0.500000 0.843533
vt 0.437500 0.843601
vt 0.562500 0.843601
vt 0.375000 0.781250
vt 0.625000 0.781250
vt 0.625000 0.812500
vt 0.625000 0.843750
vt 0.375000 0.843750
vt 0.375000 0.812500
vt 0.437500 0.276733
vt 0.500000 0.274957
vt 0.500000 0.310764
vt 0.437500 0.311306
vt 0.562500 0.276733
vt 0.562500 0.311306
vt 0.500000 0.343533
vt 0.437500 0.343601
vt 0.562500 0.343601
vt 0.375000 0.281250
vt 0.625000 0.281250
vt 0.625000 0.312500
vt 0.625000 0.343750
vt 0.375000 0.343750
vt 0.375000 0.312500
s 1
usemtl rock
f 73/1/1 74/2/2 77/3/3 76/4/4
f 74/2/2 75/5/5 78/6/6 77/3/3
f 76/4/4 77/3/3 80/7/7 79/8/8
f 77/3/3 78/6/6 81/9/9 80/7/7
f 1/10/10 16/11/11 73/1/1 15/12/12
f 16/11/11 17/13/13 74/2/2 73/1/1
f 17/13/13 18/14/14 75/5/5 74/2/2
f 18/14/14 2/15/15 19/16/16 75/5/5
f 75/5/5 19/16/16 20/17/17 78/6/6
f 78/6/6 20/17/17 21/18/18 81/9/9
f 81/9/9 21/18/18 4/19/19 22/20/20
f 80/7/7 81/9/9 22/20/20 23/21/21
f 79/8/8 80/7/7 23/21/21 24/22/22
f 13/23/23 79/8/8 24/22/22 3/24/24
f 14/25/25 76/4/4 79/8/8 13/23/23
f 15/12/12 73/1/1 76/4/4 14/25/25
f 82/26/26 83/27/27 86/28/28 85/29/29
f 83/27/27 84/30/30 87/31/31 86/28/28
f 85/29/29 86/28/28 89/32/32 88/33/33
f 86/28/28 87/31/31 90/34/34 89/32/32
f 9/35/35 72/36/36 82/26/26 51/37/37
f 72/36/36 71/38/38 83/27/27 82/26/26
f 71/38/38 70/39/39 84/30/30 83/27/27
f 70/39/39 10/40/40 28/41/41 84/30/30
f 84/30/30 28/41/41 29/42/42 87/31/31
f 87/31/31 29/42/42 30/43/43 90/34/34
f 90/34/34 30/43/43 8/44/44 31/45/45
f 89/32/32 90/34/34 31/45/45 32/46/46
f 88/33/33 89/32/32 32/46/46 33/47/47
f 49/48/48 88/33/33 33/47/47 7/49/49
f 50/50/50 85/29/29 88/33/33 49/48/48
f 51/37/37 82/26/26 85/29/29 50/50/50
f 91/51/51 92/52/52 95/53/53 94/54/54
f 92/52/52 93/55/55 96/56/56 95/53/53
f 94/54/54 95/53/53 98/57/57 97/58/58
f 95/53/53 96/56/56 99/59/59 98/57/57
f 7/49/49 33/47/47 91/51/51 36/60/60
f 33/47/47 32/46/46 92/52/52 91/51/51
f 32/46/46 31/45/45 93/55/55 92/52/52
f 31/45/45 8/44/44 37/61/61 93/55/55
f 93/55/55 37/61/61 38/62/62 96/56/56
f 96/56/56 38/62/62 39/63/63 99/59/59
f 99/59/59 39/63/63 6/64/64 40/65/65
f 98/57/57 99/59/59 40/65/65 41/66/66
f 97/58/58 98/57/57 41/66/66 42/67/67
f 34/68/68 97/58/58 42/67/67 5/69/69
f 35/70/70 94/54/54 97/58/58 34/68/68
f 36/60/60 91/51/51 94/54/54 35/70/70
f 100/71/71 101/72/72 104/73/73 103/74/74
f 101/72/72 102/75/75 105/76/76 104/73/73
f 103/74/74 104/73/73 107/77/77 106/78/78
f 104/73/73 105/76/76 108/79/79 107/77/77
f 11/80/80 69/81/81 100/71/71 57/82/82
f 69/81/81 68/83/83 101/72/72 100/71/71
f 68/83/83 67/84/84 102/75/75 101/72/72
f 67/84/84 12/85/85 46/86/86 102/75/75
f 102/75/75 46/86/86 47/87/87 105/76/76
f 105/76/76 47/87/87 48/88/88 108/79/79
f 108/79/79 48/88/88 2/89/15 18/90/14
f 107/77/77 108/79/79 18/90/14 17/91/13
f 106/78/78 107/77/77 17/91/13 16/92/11
f 55/93/89 106/78/78 16/92/11 1/94/10
f 56/95/90 103/74/74 106/78/78 55/93/89
f 57/82/82 100/71/71 103/74/74 56/95/90
f 109/96/91 110/97/92 113/98/93 112/99/94
f 110/97/92 111/100/95 114/101/96 113/98/93
f 112/99/94 113/98/93 116/102/97 115/103/98
f 113/98/93 114/101/96 117/104/99 116/102/97
f 9/105/35 51/106/37 109/96/91 64/107/100
f 51/106/37 50/108/50 110/97/92 109/96/91
f 50/108/50 49/109/48 111/100/95 110/97/92
f 49/109/48 7/49/49 36/60/60 111/100/95
f 111/100/95 36/60/60 35/70/70 114/101/96
f 114/101/96 35/70/70 34/68/68 117/104/99
f 117/104/99 34/68/68 5/69/69 45/110/101
f 116/102/97 117/104/99 45/110/101 44/111/102
f 115/103/98 116/102/97 44/111/102 43/112/103
f 66/113/104 115/103/98 43/112/103 11/114/80
f 65/115/105 112/99/94 115/103/98 66/113/104
f 64/107/100 109/96/91 112/99/94 65/115/105
f 118/116/106 119/117/107 122/118/108 121/119/109
f 119/117/107 120/120/110 123/121/111 122/118/108
f 121/119/109 122/118/108 125/122/112 124/123/113
f 122/118/108 123/121/111 126/124/114 125/122/112
f 10/125/40 54/126/115 118/116/106 61/127/116
f 54/126/115 53/128/117 119/117/107 118/116/106
f 53/128/117 52/129/118 120/120/110 119/117/107
f 52/129/118 4/130/19 21/131/18 120/120/110
f 120/120/110 21/131/18 20/132/17 123/121/111
f 123/121/111 20/132/17 19/133/16 126/124/114
f 126/124/114 19/133/16 2/134/15 48/135/88
f 125/122/112 126/124/114 48/135/88 47/136/87
f 124/123/113 125/122/112 47/136/87 46/137/86
f 63/138/119 124/123/113 46/137/86 12/139/85
f 62/140/120 121/119/109 124/123/113 63/138/119
f 61/127/116 118/116/106 121/119/109 62/140/120
f 127/141/121 128/142/122 131/143/123 130/144/124
f 128/142/122 129/145/125 132/146/126 131/143/123
f 130/144/124 131/143/123 134/147/127 133/148/128
f 131/143/123 132/146/126 135/149/129 134/147/127
f 8/44/44 30/150/43 127/141/121 37/61/61
f 30/150/43 29/151/42 128/142/122 127/141/121
f 29/151/42 28/152/41 129/145/125 128/142/122
f 28/152/41 10/125/40 61/127/116 129/145/125
f 129/145/125 61/127/116 62/140/120 132/146/126
f 132/146/126 62/140/120 63/138/119 135/149/129
f 135/149/129 63/138/119 12/139/85 60/153/130
f 134/147/127 135/149/129 60/153/130 59/154/131
f 133/148/128 134/147/127 59/154/131 58/155/132
f 39/63/63 133/148/128 58/155/132 6/64/64
f 38/62/62 130/144/124 133/148/128 39/63/63
f 37/61/61 127/141/121 130/144/124 38/62/62
f 136/156/133 137/157/134 140/158/135 139/159/136
f 137/157/134 138/160/137 141/161/138 140/158/135
f 139/159/136 140/158/135 143/162/139 142/163/140
f 140/158/135 141/161/138 144/164/141 143/162/139
f 3/165/24 27/166/142 136/156/133 13/167/23
f 27/166/142 26/168/143 137/157/134 136/156/133
f 26/168/143 25/169/144 138/160/137 137/157/134
f 25/169/144 9/105/35 64/107/100 138/160/137
f 138/160/137 64/107/100 65/115/105 141/161/138
f 141/161/138 65/115/105 66/113/104 144/164/141
f 144/164/141 66/113/104 11/114/80 57/170/82
f 143/162/139 144/164/141 57/170/82 56/171/90
f 142/163/140 143/162/139 56/171/90 55/172/89
f 15/173/12 142/163/140 55/172/89 1/174/10
f 14/175/25 139/159/136 142/163/140 15/173/12
f 13/167/23 136/156/133 139/159/136 14/175/25
f 145/176/145 146/177/146 149/178/147 148/179/148
f 146/177/146 147/180/149 150/181/150 149/178/147
f 148/179/148 149/178/147 152/182/151 151/183/152
f 149/178/147 150/181/150 153/184/153 152/182/151
f 5/69/69 42/67/67 145/176/145 45/185/101
f 42/67/67 41/66/66 146/177/146 145/176/145
f 41/66/66 40/65/65 147/180/149 146/177/146
f 40/65/65 6/64/64 58/186/132 147/180/149
f 147/180/149 58/186/132 59/187/131 150/181/150
f 150/181/150 59/187/131 60/188/130 153/184/153
f 153/184/153 60/188/130 12/85/85 67/84/84
f 152/182/151 153/184/153 67/84/84 68/83/83
f 151/183/152 152/182/151 68/83/83 69/81/81
f 43/189/103 151/183/152 69/81/81 11/80/80
f 44/190/102 148/179/148 151/183/152 43/189/103
f 45/185/101 145/176/145 148/179/148 44/190/102
f 154/191/154 155/192/155 158/193/156 157/194/157
f 155/192/155 156/195/158 159/196/159 158/193/156
f 157/194/157 158/193/156 161/197/160 160/198/161
f 158/193/156 159/196/159 162/199/162 161/197/160
f 3/24/24 24/22/22 154/191/154 27/200/142
f 24/22/22 23/21/21 155/192/155 154/191/154
f 23/21/21 22/20/20 156/195/158 155/192/155
f 22/20/20 4/19/19 52/201/118 156/195/158
f 156/195/158 52/201/118 53/202/117 159/196/159
f 159/196/159 53/202/117 54/203/115 162/199/162
f 162/199/162 54/203/115 10/40/40 70/39/39
f 161/197/160 162/199/162 70/39/39 71/38/38
f 160/198/161 161/197/160 71/38/38 72/36/36
f 25/204/144 160/198/161 72/36/36 9/35/35
f 26/205/143 157/194/157 160/198/161 25/204/144
f 27/200/142 154/191/154 157/194/157 26/205/143
