# Blender 4.0.1
# www.blender.org
mtllib rock_1.mtl
o light_source_pillar1
v -7.707250 9.868042 0.650856
v -7.707250 9.868042 -0.686668
v -6.194704 9.868042 0.650856
v -6.194704 9.868042 -0.686668
vn -0.0000 -1.0000 -0.0000
vt 0.711818 0.338649
vt 0.786851 0.236568
vt 0.878277 0.238988
vt 0.893383 0.381978
s 0
usemtl pillar
f 1/1/1 2/2/1 4/3/1 3/4/1
o rock6
v -23.858730 -2.065933 -0.267681
v -25.903873 -0.957799 -0.397603
v -22.942936 0.032763 -0.992216
v -24.924280 1.021492 -1.126222
v -22.092632 0.818628 4.199740
v -23.502918 1.765039 4.912817
v -20.100304 1.169761 3.636399
v -21.677391 2.679738 4.576548
v -21.423874 1.209270 0.991991
v -23.940989 3.375779 1.736378
v -22.902378 -0.842119 2.202669
v -25.254122 0.832110 2.779132
v -23.017630 -0.549223 -0.939474
v -23.234468 -1.249602 -0.773758
v -23.562950 -1.796522 -0.514515
v -24.391357 -2.086415 -0.380211
v -25.059750 -1.885357 -0.470340
v -25.607845 -1.434781 -0.467109
v -25.897884 -0.601714 -0.714730
v -25.700695 -0.042623 -1.014203
v -25.311447 0.568630 -1.142322
v -24.483038 0.858523 -1.276627
v -23.875414 0.593131 -1.317621
v -23.307667 0.283844 -1.187096
v -21.876183 1.055468 0.304036
v -22.258114 0.753962 -0.284944
v -22.627188 0.361829 -0.734295
v -23.284147 3.493401 2.737810
v -22.591316 3.337703 3.611470
v -22.016033 3.005531 4.242871
v -21.092009 2.374623 4.490409
v -20.488712 1.917988 4.259820
v -20.157230 1.470908 3.924462
v -21.517120 0.833601 4.130291
v -20.826391 0.885700 3.987265
v -20.314892 1.008601 3.798593
v -22.053953 2.564188 4.830849
v -22.605888 2.330283 5.013830
v -23.148682 2.025979 5.016202
v -23.306343 1.563672 4.890332
v -22.943569 1.297996 4.741276
v -22.479065 1.023166 4.470729
v -22.697296 -0.270233 2.882878
v -22.491789 0.225290 3.469853
v -22.272339 0.593765 3.923706
v -25.641014 0.315805 1.837300
v -25.918472 -0.229699 0.898731
v -25.991678 -0.690917 0.104782
v -20.120670 1.127169 3.159731
v -20.384081 1.140144 2.479708
v -20.874840 1.203504 1.735263
v -24.888569 1.584595 -0.781799
v -24.735317 2.293108 -0.137647
v -24.427595 2.939538 0.737374
v -23.645908 -2.068537 0.149546
v -23.379515 -1.859686 0.768782
v -23.128412 -1.414012 1.476704
v -23.932261 1.679727 4.688982
v -24.419151 1.501879 4.241813
v -24.852142 1.226706 3.596509
v -24.586651 3.086838 2.071403
v -25.054010 2.464014 2.381585
v -25.293144 1.661155 2.629852
v -21.410692 0.457143 1.167509
v -21.706671 -0.176494 1.473500
v -22.230877 -0.630097 1.841406
v -24.911777 0.112396 2.801068
v -24.339966 -0.435791 2.702160
v -23.637295 -0.768585 2.497622
v -23.180231 3.225326 1.415187
v -22.420715 2.723311 1.152925
v -21.792057 2.005903 0.996293
v -24.197922 -1.767825 -0.822107
v -24.893850 -1.563047 -0.984601
v -25.491032 -1.142891 -0.969374
v -23.884888 -1.197719 -1.117382
v -24.593763 -0.968757 -1.309606
v -25.239336 -0.577932 -1.293319
v -23.585735 -0.464760 -1.249636
v -24.230375 -0.212604 -1.426100
v -24.857775 0.120742 -1.398250
v -21.171375 1.956135 1.812791
v -21.758205 2.697142 2.051386
v -22.506996 3.264370 2.381269
v -20.581715 1.788688 2.622445
v -21.091270 2.480989 2.917198
v -21.809576 3.056781 3.265850
v -20.212145 1.618183 3.353479
v -20.614578 2.189185 3.669980
v -21.276638 2.711607 3.971385
v -20.453098 1.332861 4.282136
v -20.809679 1.734510 4.653680
v -21.391470 2.159759 4.857560
v -21.041555 1.227537 4.480733
v -21.449259 1.607362 4.855569
v -21.990850 1.987503 5.052298
v -21.791136 1.148629 4.549801
v -22.222729 1.480531 4.879352
v -22.674421 1.789410 5.050235
v -23.873112 -1.375925 1.719082
v -24.617077 -1.028561 1.867164
v -25.244356 -0.440500 1.911514
v -24.120270 -1.863792 0.932447
v -24.874712 -1.541986 1.006550
v -25.512264 -0.963786 1.005056
v -24.330038 -2.114734 0.213746
v -25.041842 -1.859393 0.208278
v -25.629391 -1.339408 0.194459
v -20.957653 0.576152 1.865154
v -20.559269 0.661661 2.563212
v -20.341272 0.793779 3.219863
v -21.357040 0.112218 2.149943
v -21.041208 0.361797 2.810416
v -20.841311 0.606415 3.425948
v -21.971601 -0.174678 2.513345
v -21.726801 0.221033 3.132198
v -21.536066 0.542885 3.667280
v -25.060583 2.603140 1.043012
v -25.359058 1.929304 0.101696
v -25.460827 1.205291 -0.641936
v -25.510124 1.963716 1.358254
v -25.805710 1.306749 0.378413
v -25.884356 0.608871 -0.439708
v -25.721292 1.157463 1.639565
v -26.009239 0.556223 0.668412
v -26.073288 -0.040456 -0.149971
v -22.668570 2.932154 4.511819
v -23.300035 3.198029 3.909585
v -23.968515 3.273942 3.064285
v -23.241499 2.596474 4.698548
v -23.876884 2.740652 4.124363
v -24.494038 2.714464 3.330457
v -23.701693 2.137151 4.740973
v -24.275156 2.124234 4.231207
v -24.807522 1.977954 3.513847
v -22.554506 -0.369538 -0.552933
v -22.163626 -0.061311 -0.071441
v -21.802710 0.236017 0.510697
v -22.733849 -1.121582 -0.327974
v -22.351856 -0.858222 0.204996
v -22.027958 -0.519105 0.814572
v -23.109024 -1.721606 -0.062849
v -22.771349 -1.496846 0.507201
v -22.490101 -1.103610 1.157260
v -22.927996 0.763433 4.207715
v -23.468231 1.013704 4.454517
v -23.830820 1.312747 4.607357
v -23.217260 0.362282 3.775933
v -23.826822 0.621461 4.017582
v -24.252712 0.997207 4.171975
v -23.433121 -0.165105 3.196361
v -24.092873 0.129540 3.429014
v -24.593798 0.597971 3.566210
v -22.998404 0.929415 -0.897363
v -23.576363 1.346683 -0.975960
v -24.239813 1.598419 -0.918529
v -22.660603 1.458697 -0.408085
v -23.282854 1.990514 -0.423142
v -24.010139 2.296250 -0.323549
v -22.279646 1.833981 0.238747
v -22.921007 2.473171 0.305662
v -23.677574 2.875455 0.481189
vn 0.1135 -0.6906 -0.7142
vn -0.2278 -0.6168 -0.7534
vn -0.0342 -0.3158 -0.9482
vn 0.2546 -0.4204 -0.8709
vn -0.5744 -0.4268 -0.6985
vn -0.3791 -0.1471 -0.9136
vn 0.0862 -0.0540 -0.9948
vn 0.3232 -0.1757 -0.9299
vn -0.1963 0.0909 -0.9763
vn 0.2300 -0.9248 -0.3031
vn -0.0780 -0.9487 -0.3065
vn 0.4208 -0.7255 -0.5446
vn -0.4334 -0.8554 -0.2838
vn -0.7343 -0.6376 -0.2329
vn -0.9090 -0.3796 -0.1722
vn -0.8713 -0.1555 -0.4655
vn -0.7152 0.0895 -0.6932
vn -0.5063 0.2875 -0.8130
vn -0.3189 0.4220 -0.8487
vn -0.0682 0.3261 -0.9429
vn 0.1751 0.2059 -0.9628
vn 0.3922 0.0764 -0.9167
vn 0.5662 -0.2491 -0.7857
vn 0.5676 -0.0473 -0.8220
vn 0.5258 -0.4822 -0.7007
vn 0.7214 0.5121 -0.4662
vn 0.5769 0.7440 -0.3370
vn 0.6443 0.7333 -0.2174
vn 0.7853 0.5004 -0.3645
vn 0.3636 0.9116 -0.1917
vn 0.4646 0.8843 -0.0468
vn 0.7253 0.6885 -0.0014
vn 0.8863 0.4400 -0.1442
vn 0.5454 0.8246 0.1507
vn 0.8155 0.1339 -0.5630
vn 0.6829 0.5105 -0.5225
vn 0.8318 0.0761 -0.5498
vn 0.5021 0.7437 -0.4414
vn 0.2337 0.9104 -0.3415
vn -0.1836 0.9694 -0.1628
vn -0.0093 0.9996 0.0259
vn 0.1478 0.9697 0.1943
vn 0.2698 0.8860 0.3771
vn 0.3620 0.7433 0.5626
vn 0.5628 0.6502 0.5104
vn 0.7767 0.4449 0.4458
vn 0.9347 0.1046 0.3398
vn 0.9728 -0.1536 -0.1736
vn 0.9521 -0.2554 0.1683
vn 0.8996 -0.0221 -0.4362
vn 0.6145 -0.3640 0.6999
vn 0.5389 -0.0057 0.8423
vn 0.2371 -0.3496 0.9064
vn 0.2668 -0.6237 0.7347
vn 0.3778 0.3127 0.8715
vn 0.1446 0.0127 0.9894
vn 0.0618 -0.5320 0.8445
vn 0.1056 -0.6959 0.7103
vn -0.0289 -0.2359 0.9713
vn 0.6098 -0.6692 0.4246
vn 0.1596 0.5995 0.7843
vn -0.0548 0.3815 0.9228
vn -0.2340 0.1318 0.9633
vn -0.3542 -0.0920 0.9306
vn -0.1687 -0.4141 0.8945
vn -0.0345 -0.6176 0.7858
vn 0.0388 -0.7240 0.6887
vn 0.1462 -0.8034 0.5772
vn 0.0837 -0.7865 0.6119
vn 0.2944 -0.7979 0.5259
vn -0.0512 -0.8161 0.5756
vn -0.3922 -0.7080 0.5872
vn -0.4487 -0.7528 0.4817
vn -0.0984 -0.8885 0.4482
vn -0.6782 -0.5047 0.5342
vn -0.7212 -0.5377 0.4367
vn -0.4901 -0.8422 0.2249
vn -0.1371 -0.9743 0.1788
vn -0.7580 -0.6119 0.2260
vn 0.3133 -0.7956 0.5185
vn -0.0083 -0.7795 0.6264
vn 0.3431 -0.8271 0.4451
vn -0.3334 -0.6985 0.6332
vn -0.6444 -0.4993 0.5792
vn -0.8644 -0.1564 0.4779
vn -0.8881 -0.1877 0.4196
vn -0.9238 -0.2274 0.3080
vn -0.9501 -0.2917 0.1106
vn 0.2982 -0.9544 0.0147
vn 0.3369 -0.8973 0.2851
vn 0.7882 -0.4835 -0.3808
vn 0.7395 -0.6363 -0.2196
vn 0.4614 -0.8761 0.1400
vn 0.6188 -0.7855 0.0035
vn 0.6742 -0.7361 0.0606
vn 0.3513 -0.8812 0.3162
vn 0.2937 -0.8652 0.4065
vn 0.4419 -0.8276 0.3463
vn 0.1962 -0.8615 0.4683
vn 0.8467 -0.3284 -0.4186
vn 0.1096 -0.8065 0.5810
vn 0.1720 -0.8040 0.5693
vn 0.2496 -0.7945 0.5536
vn 0.5853 -0.7626 0.2754
vn 0.7645 -0.6398 -0.0781
vn -0.6913 0.7086 -0.1415
vn -0.7170 0.6095 -0.3384
vn -0.9138 0.3900 -0.1137
vn -0.8886 0.4535 0.0694
vn -0.6799 0.4817 -0.5529
vn -0.8845 0.2869 -0.3680
vn -0.9880 0.1120 0.1068
vn -0.9540 0.1600 0.2536
vn -0.9911 0.0325 -0.1287
vn -0.3169 0.8753 -0.3654
vn -0.5915 0.8041 0.0595
vn -0.3740 0.7467 -0.5501
vn -0.3645 0.5932 -0.7178
vn -0.9104 0.2128 0.3549
vn -0.8207 0.5236 0.2287
vn -0.0521 0.7921 0.6082
vn -0.2423 0.8710 0.4273
vn -0.5318 0.6423 0.5520
vn -0.3103 0.5992 0.7380
vn -0.4284 0.8676 0.2524
vn -0.7014 0.5988 0.3866
vn -0.7092 0.3521 0.6107
vn -0.5035 0.3501 0.7899
vn -0.8390 0.2863 0.4626
vn -0.8296 -0.1135 0.5468
vn -0.7349 -0.0674 0.6748
vn -0.5569 -0.0591 0.8285
vn 0.7635 -0.2328 -0.6024
vn 0.8556 -0.2026 -0.4764
vn 0.8370 -0.4821 -0.2590
vn 0.7391 -0.4904 -0.4617
vn 0.8788 -0.2292 -0.4186
vn 0.8407 -0.5229 -0.1408
vn 0.6846 -0.7289 0.0118
vn 0.6160 -0.7468 -0.2506
vn 0.6713 -0.7192 0.1794
vn 0.6850 0.0471 -0.7270
vn 0.7692 0.1204 -0.6276
vn 0.8088 0.1506 -0.5685
vn 0.0241 -0.7438 0.6679
vn -0.1152 -0.6626 0.7400
vn -0.1969 -0.6891 0.6974
vn 0.0262 -0.7548 0.6554
vn -0.3573 -0.4690 0.8077
vn -0.5105 -0.4839 0.7108
vn -0.2704 -0.6987 0.6624
vn 0.0181 -0.7630 0.6462
vn -0.6000 -0.4979 0.6261
vn 0.4943 0.2843 -0.8215
vn 0.2553 0.4457 -0.8580
vn 0.3339 0.6148 -0.7145
vn 0.5824 0.4141 -0.6995
vn -0.0199 0.5616 -0.8271
vn 0.0196 0.7353 -0.6775
vn 0.4174 0.7087 -0.5688
vn 0.6429 0.4854 -0.5925
vn 0.1065 0.8524 -0.5119
vt 0.437500 0.062351
vt 0.500000 0.062283
vt 0.500000 0.123264
vt 0.437500 0.123806
vt 0.562500 0.062351
vt 0.562500 0.123806
vt 0.500000 0.181207
vt 0.437500 0.182983
vt 0.562500 0.182983
vt 0.375000 0.000000
vt 0.437500 0.000000
vt 0.375000 0.062500
vt 0.500000 0.000000
vt 0.562500 0.000000
vt 0.625000 0.000000
vt 0.625000 0.062500
vt 0.625000 0.125000
vt 0.625000 0.187500
vt 0.625000 0.250000
vt 0.562500 0.235677
vt 0.500000 0.232639
vt 0.437500 0.235677
vt 0.375000 0.187500
vt 0.375000 0.250000
vt 0.375000 0.125000
vt 0.437500 0.406399
vt 0.500000 0.406467
vt 0.500000 0.439236
vt 0.437500 0.438694
vt 0.562500 0.406399
vt 0.562500 0.438694
vt 0.500000 0.475043
vt 0.437609 0.473267
vt 0.562392 0.473267
vt 0.375000 0.375000
vt 0.437500 0.375000
vt 0.375000 0.406250
vt 0.500000 0.375000
vt 0.562500 0.375000
vt 0.625000 0.375000
vt 0.625000 0.406250
vt 0.625000 0.437500
vt 0.625000 0.468750
vt 0.625000 0.500000
vt 0.561252 0.514350
vt 0.500000 0.517361
vt 0.438748 0.514350
vt 0.375000 0.468750
vt 0.375000 0.500000
vt 0.375000 0.437500
vt 0.441976 0.566976
vt 0.500000 0.568576
vt 0.500000 0.625000
vt 0.443576 0.625000
vt 0.558024 0.566976
vt 0.556424 0.625000
vt 0.500000 0.681424
vt 0.441976 0.683024
vt 0.558024 0.683024
vt 0.389350 0.563748
vt 0.610650 0.563748
vt 0.607639 0.625000
vt 0.610650 0.686252
vt 0.625000 0.750000
vt 0.561252 0.735650
vt 0.500000 0.732639
vt 0.438748 0.735650
vt 0.389350 0.686252
vt 0.375000 0.750000
vt 0.392361 0.625000
vt 0.437500 0.906250
vt 0.500000 0.906250
vt 0.500000 0.937500
vt 0.437500 0.937500
vt 0.562500 0.906250
vt 0.562500 0.937500
vt 0.500000 0.968750
vt 0.437500 0.968750
vt 0.562500 0.968750
vt 0.375000 0.875000
vt 0.437500 0.875000
vt 0.375000 0.906250
vt 0.500000 0.875000
vt 0.562500 0.875000
vt 0.625000 0.875000
vt 0.625000 0.906250
vt 0.625000 0.937500
vt 0.625000 0.968750
vt 0.625000 1.000000
vt 0.562500 1.000000
vt 0.500000 1.000000
vt 0.437500 1.000000
vt 0.375000 0.968750
vt 0.375000 1.000000
vt 0.375000 0.937500
vt 0.281399 0.562500
vt 0.313694 0.562500
vt 0.314236 0.625000
vt 0.281467 0.625000
vt 0.348267 0.562609
vt 0.350043 0.625000
vt 0.313694 0.687500
vt 0.281399 0.687500
vt 0.348267 0.687392
vt 0.250000 0.500000
vt 0.281250 0.500000
vt 0.250000 0.562500
vt 0.312500 0.500000
vt 0.343750 0.500000
vt 0.343750 0.750000
vt 0.312500 0.750000
vt 0.281250 0.750000
vt 0.250000 0.687500
vt 0.250000 0.750000
vt 0.250000 0.625000
vt 0.781250 0.562500
vt 0.812500 0.562500
vt 0.812500 0.625000
vt 0.781250 0.625000
vt 0.843750 0.562500
vt 0.843750 0.625000
vt 0.812500 0.687500
vt 0.781250 0.687500
vt 0.843750 0.687500
vt 0.750000 0.500000
vt 0.781250 0.500000
vt 0.750000 0.562500
vt 0.812500 0.500000
vt 0.843750 0.500000
vt 0.875000 0.500000
vt 0.875000 0.562500
vt 0.875000 0.625000
vt 0.875000 0.687500
vt 0.875000 0.750000
vt 0.843750 0.750000
vt 0.812500 0.750000
vt 0.781250 0.750000
vt 0.750000 0.687500
vt 0.750000 0.750000
vt 0.750000 0.625000
vt 0.651733 0.562609
vt 0.686306 0.562500
vt 0.685764 0.625000
vt 0.649957 0.625000
vt 0.718601 0.562500
vt 0.718533 0.625000
vt 0.686306 0.687500
vt 0.651733 0.687391
vt 0.718601 0.687500
vt 0.656250 0.500000
vt 0.687500 0.500000
vt 0.718750 0.500000
vt 0.718750 0.750000
vt 0.687500 0.750000
vt 0.656250 0.750000
vt 0.156250 0.562500
vt 0.187500 0.562500
vt 0.187500 0.625000
vt 0.156250 0.625000
vt 0.218750 0.562500
vt 0.218750 0.625000
vt 0.187500 0.687500
vt 0.156250 0.687500
vt 0.218750 0.687500
vt 0.125000 0.500000
vt 0.156250 0.500000
vt 0.125000 0.562500
vt 0.187500 0.500000
vt 0.218750 0.500000
vt 0.218750 0.750000
vt 0.187500 0.750000
vt 0.156250 0.750000
vt 0.125000 0.687500
vt 0.125000 0.750000
vt 0.125000 0.625000
vt 0.437609 0.776733
vt 0.500000 0.774957
vt 0.500000 0.810764
vt 0.437500 0.811306
vt 0.562392 0.776734
vt 0.562500 0.811306
vt 0.500000 0.843533
vt 0.437500 0.843601
vt 0.562500 0.843601
vt 0.375000 0.781250
vt 0.625000 0.781250
vt 0.625000 0.812500
vt 0.625000 0.843750
vt 0.375000 0.843750
vt 0.375000 0.812500
vt 0.437500 0.276733
vt 0.500000 0.274957
vt 0.500000 0.310764
vt 0.437500 0.311306
vt 0.562500 0.276733
vt 0.562500 0.311306
vt 0.500000 0.343533
vt 0.437500 0.343601
vt 0.562500 0.343601
vt 0.375000 0.281250
vt 0.625000 0.281250
vt 0.625000 0.312500
vt 0.625000 0.343750
vt 0.375000 0.343750
vt 0.375000 0.312500
s 1
usemtl rock
f 77/5/2 78/6/3 81/7/4 80/8/5
f 78/6/3 79/9/6 82/10/7 81/7/4
f 80/8/5 81/7/4 84/11/8 83/12/9
f 81/7/4 82/10/7 85/13/10 84/11/8
f 5/14/11 20/15/12 77/5/2 19/16/13
f 20/15/12 21/17/14 78/6/3 77/5/2
f 21/17/14 22/18/15 79/9/6 78/6/3
f 22/18/15 6/19/16 23/20/17 79/9/6
f 79/9/6 23/20/17 24/21/18 82/10/7
f 82/10/7 24/21/18 25/22/19 85/13/10
f 85/13/10 25/22/19 8/23/20 26/24/21
f 84/11/8 85/13/10 26/24/21 27/25/22
f 83/12/9 84/11/8 27/25/22 28/26/23
f 17/27/24 83/12/9 28/26/23 7/28/25
f 18/29/26 80/8/5 83/12/9 17/27/24
f 19/16/13 77/5/2 80/8/5 18/29/26
f 86/30/27 87/31/28 90/32/29 89/33/30
f 87/31/28 88/34/31 91/35/32 90/32/29
f 89/33/30 90/32/29 93/36/33 92/37/34
f 90/32/29 91/35/32 94/38/35 93/36/33
f 13/39/36 76/40/37 86/30/27 55/41/38
f 76/40/37 75/42/39 87/31/28 86/30/27
f 75/42/39 74/43/40 88/34/31 87/31/28
f 74/43/40 14/44/41 32/45/42 88/34/31
f 88/34/31 32/45/42 33/46/43 91/35/32
f 91/35/32 33/46/43 34/47/44 94/38/35
f 94/38/35 34/47/44 12/48/45 35/49/46
f 93/36/33 94/38/35 35/49/46 36/50/47
f 92/37/34 93/36/33 36/50/47 37/51/48
f 53/52/49 92/37/34 37/51/48 11/53/50
f 54/54/51 89/33/30 92/37/34 53/52/49
f 55/41/38 86/30/27 89/33/30 54/54/51
f 95/55/52 96/56/53 99/57/54 98/58/55
f 96/56/53 97/59/56 100/60/57 99/57/54
f 98/58/55 99/57/54 102/61/58 101/62/59
f 99/57/54 100/60/57 103/63/60 102/61/58
f 11/53/50 37/51/48 95/55/52 40/64/61
f 37/51/48 36/50/47 96/56/53 95/55/52
f 36/50/47 35/49/46 97/59/56 96/56/53
f 35/49/46 12/48/45 41/65/62 97/59/56
f 97/59/56 41/65/62 42/66/63 100/60/57
f 100/60/57 42/66/63 43/67/64 103/63/60
f 103/63/60 43/67/64 10/68/65 44/69/66
f 102/61/58 103/63/60 44/69/66 45/70/67
f 101/62/59 102/61/58 45/70/67 46/71/68
f 38/72/69 101/62/59 46/71/68 9/73/70
f 39/74/71 98/58/55 101/62/59 38/72/69
f 40/64/61 95/55/52 98/58/55 39/74/71
f 104/75/72 105/76/73 108/77/74 107/78/75
f 105/76/73 106/79/76 109/80/77 108/77/74
f 107/78/75 108/77/74 111/81/78 110/82/79
f 108/77/74 109/80/77 112/83/80 111/81/78
f 15/84/81 73/85/82 104/75/72 61/86/83
f 73/85/82 72/87/84 105/76/73 104/75/72
f 72/87/84 71/88/85 106/79/76 105/76/73
f 71/88/85 16/89/86 50/90/87 106/79/76
f 106/79/76 50/90/87 51/91/88 109/80/77
f 109/80/77 51/91/88 52/92/89 112/83/80
f 112/83/80 52/92/89 6/93/16 22/94/15
f 111/81/78 112/83/80 22/94/15 21/95/14
f 110/82/79 111/81/78 21/95/14 20/96/12
f 59/97/90 110/82/79 20/96/12 5/98/11
f 60/99/91 107/78/75 110/82/79 59/97/90
f 61/86/83 104/75/72 107/78/75 60/99/91
f 113/100/92 114/101/93 117/102/94 116/103/95
f 114/101/93 115/104/96 118/105/97 117/102/94
f 116/103/95 117/102/94 120/106/98 119/107/99
f 117/102/94 118/105/97 121/108/100 120/106/98
f 13/109/36 55/110/38 113/100/92 68/111/101
f 55/110/38 54/112/51 114/101/93 113/100/92
f 54/112/51 53/113/49 115/104/96 114/101/93
f 53/113/49 11/53/50 40/64/61 115/104/96
f 115/104/96 40/64/61 39/74/71 118/105/97
f 118/105/97 39/74/71 38/72/69 121/108/100
f 121/108/100 38/72/69 9/73/70 49/114/102
f 120/106/98 121/108/100 49/114/102 48/115/103
f 119/107/99 120/106/98 48/115/103 47/116/104
f 70/117/105 119/107/99 47/116/104 15/118/81
f 69/119/106 116/103/95 119/107/99 70/117/105
f 68/111/101 113/100/92 116/103/95 69/119/106
f 122/120/107 123/121/108 126/122/109 125/123/110
f 123/121/108 124/124/111 127/125/112 126/122/109
f 125/123/110 126/122/109 129/126/113 128/127/114
f 126/122/109 127/125/112 130/128/115 129/126/113
f 14/129/41 58/130/116 122/120/107 65/131/117
f 58/130/116 57/132/118 123/121/108 122/120/107
f 57/132/118 56/133/119 124/124/111 123/121/108
f 56/133/119 8/134/20 25/135/19 124/124/111
f 124/124/111 25/135/19 24/136/18 127/125/112
f 127/125/112 24/136/18 23/137/17 130/128/115
f 130/128/115 23/137/17 6/138/16 52/139/89
f 129/126/113 130/128/115 52/139/89 51/140/88
f 128/127/114 129/126/113 51/140/88 50/141/87
f 67/142/120 128/127/114 50/141/87 16/143/86
f 66/144/121 125/123/110 128/127/114 67/142/120
f 65/131/117 122/120/107 125/123/110 66/144/121
f 131/145/122 132/146/123 135/147/124 134/148/125
f 132/146/123 133/149/126 136/150/127 135/147/124
f 134/148/125 135/147/124 138/151/128 137/152/129
f 135/147/124 136/150/127 139/153/130 138/151/128
f 12/48/45 34/154/44 131/145/122 41/65/62
f 34/154/44 33/155/43 132/146/123 131/145/122
f 33/155/43 32/156/42 133/149/126 132/146/123
f 32/156/42 14/129/41 65/131/117 133/149/126
f 133/149/126 65/131/117 66/144/121 136/150/127
f 136/150/127 66/144/121 67/142/120 139/153/130
f 139/153/130 67/142/120 16/143/86 64/157/131
f 138/151/128 139/153/130 64/157/131 63/158/132
f 137/152/129 138/151/128 63/158/132 62/159/133
f 43/67/64 137/152/129 62/159/133 10/68/65
f 42/66/63 134/148/125 137/152/129 43/67/64
f 41/65/62 131/145/122 134/148/125 42/66/63
f 140/160/134 141/161/135 144/162/136 143/163/137
f 141/161/135 142/164/138 145/165/139 144/162/136
f 143/163/137 144/162/136 147/166/140 146/167/141
f 144/162/136 145/165/139 148/168/142 147/166/140
f 7/169/25 31/170/143 140/160/134 17/171/24
f 31/170/143 30/172/144 141/161/135 140/160/134
f 30/172/144 29/173/145 142/164/138 141/161/135
f 29/173/145 13/109/36 68/111/101 142/164/138
f 142/164/138 68/111/101 69/119/106 145/165/139
f 145/165/139 69/119/106 70/117/105 148/168/142
f 148/168/142 70/117/105 15/118/81 61/174/83
f 147/166/140 148/168/142 61/174/83 60/175/91
f 146/167/141 147/166/140 60/175/91 59/176/90
f 19/177/13 146/167/141 59/176/90 5/178/11
f 18/179/26 143/163/137 146/167/141 19/177/13
f 17/171/24 140/160/134 143/163/137 18/179/26
f 149/180/146 150/181/147 153/182/148 152/183/149
f 150/181/147 151/184/150 154/185/151 153/182/148
f 152/183/149 153/182/148 156/186/152 155/187/153
f 153/182/148 154/185/151 157/188/154 156/186/152
f 9/73/70 46/71/68 149/180/146 49/189/102
f 46/71/68 45/70/67 150/181/147 149/180/146
f 45/70/67 44/69/66 151/184/150 150/181/147
f 44/69/66 10/68/65 62/190/133 151/184/150
f 151/184/150 62/190/133 63/191/132 154/185/151
f 154/185/151 63/191/132 64/192/131 157/188/154
f 157/188/154 64/192/131 16/89/86 71/88/85
f 156/186/152 157/188/154 71/88/85 72/87/84
f 155/187/153 156/186/152 72/87/84 73/85/82
f 47/193/104 155/187/153 73/85/82 15/84/81
f 48/194/103 152/183/149 155/187/153 47/193/104
f 49/189/102 149/180/146 152/183/149 48/194/103
f 158/195/155 159/196/156 162/197/157 161/198/158
f 159/196/156 160/199/159 163/200/160 162/197/157
f 161/198/158 162/197/157 165/201/161 164/202/162
f 162/197/157 163/200/160 166/203/163 165/201/161
f 7/28/25 28/26/23 158/195/155 31/204/143
f 28/26/23 27/25/22 159/196/156 158/195/155
f 27/25/22 26/24/21 160/199/159 159/196/156
f 26/24/21 8/23/20 56/205/119 160/199/159
f 160/199/159 56/205/119 57/206/118 163/200/160
f 163/200/160 57/206/118 58/207/116 166/203/163
f 166/203/163 58/207/116 14/44/41 74/43/40
f 165/201/161 166/203/163 74/43/40 75/42/39
f 164/202/162 165/201/161 75/42/39 76/40/37
f 29/208/145 164/202/162 76/40/37 13/39/36
f 30/209/144 161/198/158 164/202/162 29/208/145
f 31/204/143 158/195/155 161/198/158 30/209/144
