# Blender 4.0.1
# www.blender.org
mtllib rock_3.mtl
o light_source_pillar1
v -7.707250 9.868042 0.650856
v -7.707250 9.868042 -0.686668
v -6.194704 9.868042 0.650856
v -6.194704 9.868042 -0.686668
vn -0.0000 -1.0000 -0.0000
vt 0.711818 0.338649
vt 0.786851 0.236568
vt 0.878277 0.238988
vt 0.893383 0.381978
s 0
usemtl pillar
f 1/1/1 2/2/1 4/3/1 3/4/1
o rock4
v -15.166135 0.100472 26.491276
v -15.129334 1.370608 26.477766
v -14.956441 0.236167 27.777264
v -14.909983 1.444178 27.724960
v -17.838558 -0.039667 27.967754
v -18.260101 0.872268 27.981459
v -17.610287 -0.884582 28.706734
v -18.192858 0.253459 28.923069
v -16.153616 -0.203336 28.579346
v -16.656990 1.559900 28.869223
v -16.615334 -0.066432 27.127945
v -16.994951 1.489472 27.243679
v -14.939054 0.115611 27.479900
v -14.970172 0.029298 27.080296
v -15.060607 0.035549 26.715775
v -15.090716 0.350041 26.348711
v -15.040786 0.722914 26.272339
v -15.063068 1.103689 26.337900
v -14.985275 1.467706 26.671354
v -14.870811 1.527762 27.009796
v -14.857498 1.507728 27.410479
v -14.827389 1.193237 27.777542
v -14.800199 0.834146 27.817751
v -14.861261 0.479627 27.813354
v -15.759585 -0.018533 28.440405
v -15.409534 0.091857 28.243088
v -15.128295 0.169775 27.995733
v -17.222492 1.263287 29.021145
v -17.699268 0.878646 29.064222
v -18.029072 0.506612 29.012020
v -18.137754 -0.104947 28.942221
v -17.993687 -0.510033 28.906233
v -17.787098 -0.781680 28.810579
v -17.816418 -0.308254 28.133333
v -17.760223 -0.620574 28.352745
v -17.680328 -0.828068 28.561287
v -18.312054 0.397722 28.748766
v -18.379488 0.594921 28.477770
v -18.344364 0.771815 28.190220
v -18.237595 0.725427 27.940928
v -18.146027 0.484380 27.924282
v -17.990717 0.194414 27.939878
v -17.030693 -0.022025 27.398096
v -17.389978 0.003265 27.639763
v -17.668165 -0.009885 27.835842
v -16.438129 1.550435 26.971664
v -15.883560 1.551520 26.714796
v -15.418446 1.475704 26.540586
v -17.349340 -0.878810 28.718481
v -16.976864 -0.739465 28.707520
v -16.567820 -0.477565 28.664759
v -15.139299 1.572028 27.972107
v -15.544252 1.678090 28.295458
v -16.072908 1.690530 28.612741
v -15.396337 -0.007943 26.514141
v -15.752858 -0.088582 26.634834
v -16.174767 -0.100161 26.855783
v -18.122269 1.057167 27.844604
v -17.855499 1.248239 27.666386
v -17.475786 1.390812 27.472246
v -16.799995 1.784609 28.535578
v -16.908751 1.835855 28.094477
v -16.976116 1.731516 27.634365
v -16.191788 -0.412984 28.215872
v -16.301695 -0.446053 27.815620
v -16.452991 -0.323537 27.434381
v -16.960821 1.134347 26.994989
v -16.880112 0.717752 26.897348
v -16.761919 0.298041 26.943941
v -16.491066 1.163031 29.026018
v -16.330332 0.672050 29.012749
v -16.207083 0.184184 28.855247
v -14.881120 0.349952 26.584291
v -14.791741 0.738043 26.507984
v -14.816987 1.133856 26.545259
v -14.772614 0.357794 26.958403
v -14.668701 0.758959 26.892328
v -14.691106 1.169942 26.902870
v -14.764049 0.413133 27.392605
v -14.671978 0.789693 27.353289
v -14.696726 1.176521 27.340763
v -16.659243 -0.136997 28.933344
v -16.829538 0.335993 29.106667
v -17.031958 0.838214 29.148149
v -17.098045 -0.474712 28.948442
v -17.296869 -0.052338 29.115068
v -17.510818 0.437379 29.167221
v -17.488760 -0.707357 28.909674
v -17.692793 -0.368619 29.046129
v -17.878597 0.080853 29.091864
v -17.962368 -0.683405 28.639118
v -18.184429 -0.412508 28.703932
v -18.312241 -0.025602 28.732983
v -18.047049 -0.434784 28.417583
v -18.267975 -0.145449 28.458286
v -18.389509 0.210419 28.477402
v -18.059853 -0.100474 28.175686
v -18.252129 0.188143 28.191053
v -18.356546 0.482657 28.202633
v -16.290058 0.260328 26.656626
v -16.377869 0.704445 26.610294
v -16.430782 1.158905 26.716160
v -15.822583 0.260007 26.423044
v -15.868282 0.703443 26.367689
v -15.895457 1.160874 26.469765
v -15.410603 0.304045 26.305405
v -15.409389 0.710720 26.236378
v -15.426747 1.129036 26.325375
v -16.588434 -0.607568 28.337910
v -16.981422 -0.785106 28.429638
v -17.351137 -0.863784 28.498491
v -16.697180 -0.545863 27.991510
v -17.080254 -0.639790 28.141273
v -17.435839 -0.679210 28.261362
v -16.856421 -0.335840 27.664888
v -17.226330 -0.356359 27.867640
v -17.544117 -0.369561 28.027843
v -16.196779 1.897013 28.262468
v -15.630507 1.873901 27.939941
v -15.171970 1.740777 27.630768
v -16.307451 1.935278 27.817917
v -15.721735 1.915893 27.507088
v -15.225550 1.779911 27.222151
v -16.393082 1.816219 27.361074
v -15.816457 1.807933 27.077774
v -15.328140 1.692009 26.844278
v -18.152550 0.793127 28.782957
v -17.832087 1.173737 28.786793
v -17.365183 1.525071 28.710506
v -18.213793 0.973100 28.458273
v -17.899168 1.322672 28.401714
v -17.453545 1.621560 28.287117
v -18.190599 1.068739 28.116762
v -17.900387 1.345951 27.997864
v -17.489082 1.571289 27.843447
v -15.172658 -0.062721 27.657385
v -15.465436 -0.173892 27.868622
v -15.810961 -0.275297 28.058918
v -15.232764 -0.181571 27.238869
v -15.549708 -0.301290 27.422649
v -15.912286 -0.374372 27.620586
v -15.321205 -0.167374 26.836519
v -15.654147 -0.276896 26.987486
v -16.041609 -0.315894 27.196339
v -17.818069 0.342713 27.718937
v -17.956841 0.662510 27.673506
v -18.052977 0.912311 27.705580
v -17.547600 0.380000 27.487211
v -17.682550 0.735219 27.427921
v -17.783764 1.035558 27.479061
v -17.189644 0.351017 27.227245
v -17.321184 0.739704 27.171963
v -17.418274 1.100717 27.248014
v -15.074052 0.500252 28.176289
v -15.048923 0.887620 28.224640
v -15.082573 1.269358 28.161882
v -15.386435 0.473167 28.476631
v -15.403162 0.911161 28.562050
v -15.462071 1.336999 28.504383
v -15.773259 0.382018 28.703833
v -15.841867 0.856461 28.828209
v -15.948330 1.320791 28.802181
vn 0.7972 -0.4163 -0.4373
vn 0.8412 -0.0815 -0.5346
vn 0.9834 -0.0975 -0.1531
vn 0.9083 -0.4026 -0.1134
vn 0.7762 0.3120 -0.5479
vn 0.9414 0.2848 -0.1810
vn 0.9878 -0.0731 0.1378
vn 0.9297 -0.3410 0.1393
vn 0.9622 0.2436 0.1221
vn 0.4177 -0.6441 -0.6409
vn 0.4383 -0.3872 -0.8112
vn 0.6203 -0.7061 -0.3416
vn 0.4189 -0.0323 -0.9075
vn 0.3520 0.3350 -0.8740
vn 0.2641 0.6117 -0.7457
vn 0.5215 0.6969 -0.4923
vn 0.7057 0.6871 -0.1727
vn 0.7874 0.6053 0.1169
vn 0.7955 0.5087 0.3292
vn 0.8907 0.2459 0.3824
vn 0.9160 -0.0244 0.4004
vn 0.8786 -0.2783 0.3882
vn 0.7863 -0.5929 0.1740
vn 0.7941 -0.4943 0.3537
vn 0.7363 -0.6741 -0.0586
vn 0.3576 -0.3651 0.8596
vn 0.2042 -0.1294 0.9703
vn 0.0843 -0.1968 0.9768
vn 0.2557 -0.4294 0.8661
vn 0.0468 0.1343 0.9898
vn -0.0973 0.0287 0.9948
vn -0.1269 -0.2955 0.9469
vn 0.0416 -0.5534 0.8319
vn -0.2881 -0.0765 0.9546
vn 0.5015 -0.6294 0.5936
vn 0.4153 -0.3307 0.8475
vn 0.4957 -0.6722 0.5499
vn 0.3109 -0.0613 0.9485
vn 0.2011 0.2513 0.9468
vn 0.0350 0.6388 0.7686
vn -0.1638 0.4962 0.8526
vn -0.3333 0.3398 0.8794
vn -0.5081 0.1872 0.8407
vn -0.6760 0.0318 0.7363
vn -0.6205 -0.1873 0.7615
vn -0.5379 -0.4723 0.6983
vn -0.3929 -0.7734 0.4974
vn 0.1490 -0.9182 0.3671
vn -0.1742 -0.9597 0.2204
vn 0.3939 -0.7825 0.4821
vn -0.6698 -0.7338 -0.1137
vn -0.8569 -0.4967 0.1376
vn -0.8590 -0.4037 -0.3150
vn -0.6525 -0.5587 -0.5120
vn -0.9226 -0.2014 0.3290
vn -0.9871 -0.1482 -0.0600
vn -0.7645 -0.3382 -0.5487
vn -0.6110 -0.4527 -0.6494
vn -0.9269 -0.1181 -0.3561
vn -0.3549 -0.8710 -0.3396
vn -0.8662 0.1316 0.4820
vn -0.9633 0.2079 0.1698
vn -0.9606 0.2409 -0.1384
vn -0.8919 0.2372 -0.3851
vn -0.8199 -0.0811 -0.5668
vn -0.6902 -0.2945 -0.6610
vn -0.5828 -0.4076 -0.7030
vn -0.4663 -0.5369 -0.7031
vn -0.5001 -0.4751 -0.7240
vn -0.4230 -0.6620 -0.6187
vn -0.4540 -0.3710 -0.8101
vn -0.4651 -0.0211 -0.8850
vn -0.3519 0.0092 -0.9360
vn -0.3158 -0.3616 -0.8772
vn -0.4279 0.3291 -0.8418
vn -0.3248 0.3533 -0.8773
vn -0.0836 0.0089 -0.9965
vn -0.0357 -0.3621 -0.9315
vn -0.1044 0.3550 -0.9290
vn -0.4168 -0.6771 -0.6064
vn -0.5112 -0.3919 -0.7649
vn -0.3412 -0.7164 -0.6086
vn -0.5145 -0.0691 -0.8547
vn -0.4747 0.3010 -0.8271
vn -0.4120 0.6633 -0.6247
vn -0.3489 0.6704 -0.6549
vn -0.2314 0.6853 -0.6905
vn -0.0260 0.6824 -0.7305
vn 0.1043 -0.7272 -0.6785
vn -0.1729 -0.7407 -0.6492
vn 0.4081 -0.9127 0.0225
vn 0.2720 -0.9496 -0.1559
vn -0.0380 -0.8347 -0.5494
vn 0.0775 -0.9237 -0.3751
vn 0.0116 -0.9495 -0.3137
vn -0.2066 -0.7463 -0.6327
vn -0.2955 -0.6908 -0.6599
vn -0.2479 -0.7998 -0.5466
vn -0.3528 -0.6058 -0.7132
vn 0.4213 -0.8868 0.1901
vn -0.4680 -0.5066 -0.7241
vn -0.4595 -0.5594 -0.6899
vn -0.4489 -0.6220 -0.6416
vn -0.1932 -0.8911 -0.4106
vn 0.1314 -0.9772 -0.1669
vn 0.0731 0.9532 0.2933
vn 0.2827 0.9328 0.2235
vn 0.0998 0.9906 -0.0936
vn -0.0914 0.9944 -0.0529
vn 0.5110 0.8441 0.1623
vn 0.3643 0.9219 -0.1318
vn -0.0765 0.9130 -0.4008
vn -0.2299 0.9027 -0.3638
vn 0.1677 0.8837 -0.4371
vn 0.2545 0.7148 0.6514
vn -0.1436 0.9072 0.3954
vn 0.4576 0.7070 0.5392
vn 0.6444 0.6285 0.4357
vn -0.3394 0.8875 -0.3116
vn -0.2617 0.9650 0.0179
vn -0.7091 0.4153 0.5697
vn -0.5325 0.6250 0.5708
vn -0.6111 0.7619 0.2148
vn -0.7992 0.5424 0.2591
vn -0.3505 0.7906 0.5021
vn -0.4338 0.8932 0.1183
vn -0.6209 0.7730 -0.1301
vn -0.8072 0.5875 -0.0571
vn -0.4594 0.8582 -0.2289
vn -0.4877 0.6520 -0.5806
vn -0.6250 0.5884 -0.5130
vn -0.7862 0.4328 -0.4410
vn 0.5937 -0.7622 0.2581
vn 0.4607 -0.8313 0.3110
vn 0.2851 -0.9580 0.0302
vn 0.4913 -0.8710 0.0042
vn 0.4061 -0.8662 0.2911
vn 0.1737 -0.9846 -0.0200
vn 0.0584 -0.9536 -0.2954
vn 0.3236 -0.8951 -0.3068
vn -0.1082 -0.9421 -0.3175
vn 0.6817 -0.5533 0.4787
vn 0.5694 -0.5937 0.5686
vn 0.5050 -0.6151 0.6055
vn -0.5588 -0.4040 -0.7243
vn -0.6350 -0.2448 -0.7327
vn -0.5855 -0.1854 -0.7892
vn -0.5449 -0.4108 -0.7310
vn -0.7179 0.0589 -0.6937
vn -0.6130 0.1880 -0.7674
vn -0.5462 -0.1250 -0.8283
vn -0.5343 -0.4074 -0.7406
vn -0.5232 0.2616 -0.8110
vn 0.7509 -0.2684 0.6034
vn 0.7755 0.0200 0.6311
vn 0.6065 0.0300 0.7945
vn 0.6083 -0.2852 0.7407
vn 0.7413 0.3157 0.5922
vn 0.5674 0.3619 0.7396
vn 0.4456 -0.0010 0.8952
vn 0.4898 -0.3061 0.8163
vn 0.3834 0.3387 0.8592
vt 0.437500 0.062351
vt 0.500000 0.062283
vt 0.500000 0.123264
vt 0.437500 0.123806
vt 0.562500 0.062351
vt 0.562500 0.123806
vt 0.500000 0.181207
vt 0.437500 0.182983
vt 0.562500 0.182983
vt 0.375000 0.000000
vt 0.437500 0.000000
vt 0.375000 0.062500
vt 0.500000 0.000000
vt 0.562500 0.000000
vt 0.625000 0.000000
vt 0.625000 0.062500
vt 0.625000 0.125000
vt 0.625000 0.187500
vt 0.625000 0.250000
vt 0.562500 0.235677
vt 0.500000 0.232639
vt 0.437500 0.235677
vt 0.375000 0.187500
vt 0.375000 0.250000
vt 0.375000 0.125000
vt 0.437500 0.406399
vt 0.500000 0.406467
vt 0.500000 0.439236
vt 0.437500 0.438694
vt 0.562500 0.406399
vt 0.562500 0.438694
vt 0.500000 0.475043
vt 0.437609 0.473267
vt 0.562392 0.473267
vt 0.375000 0.375000
vt 0.437500 0.375000
vt 0.375000 0.406250
vt 0.500000 0.375000
vt 0.562500 0.375000
vt 0.625000 0.375000
vt 0.625000 0.406250
vt 0.625000 0.437500
vt 0.625000 0.468750
vt 0.625000 0.500000
vt 0.561252 0.514350
vt 0.500000 0.517361
vt 0.438748 0.514350
vt 0.375000 0.468750
vt 0.375000 0.500000
vt 0.375000 0.437500
vt 0.441976 0.566976
vt 0.500000 0.568576
vt 0.500000 0.625000
vt 0.443576 0.625000
vt 0.558024 0.566976
vt 0.556424 0.625000
vt 0.500000 0.681424
vt 0.441976 0.683024
vt 0.558024 0.683024
vt 0.389350 0.563748
vt 0.610650 0.563748
vt 0.607639 0.625000
vt 0.610650 0.686252
vt 0.625000 0.750000
vt 0.561252 0.735650
vt 0.500000 0.732639
vt 0.438748 0.735650
vt 0.389350 0.686252
vt 0.375000 0.750000
vt 0.392361 0.625000
vt 0.437500 0.906250
vt 0.500000 0.906250
vt 0.500000 0.937500
vt 0.437500 0.937500
vt 0.562500 0.906250
vt 0.562500 0.937500
vt 0.500000 0.968750
vt 0.437500 0.968750
vt 0.562500 0.968750
vt 0.375000 0.875000
vt 0.437500 0.875000
vt 0.375000 0.906250
vt 0.500000 0.875000
vt 0.562500 0.875000
vt 0.625000 0.875000
vt 0.625000 0.906250
vt 0.625000 0.937500
vt 0.625000 0.968750
vt 0.625000 1.000000
vt 0.562500 1.000000
vt 0.500000 1.000000
vt 0.437500 1.000000
vt 0.375000 0.968750
vt 0.375000 1.000000
vt 0.375000 0.937500
vt 0.281399 0.562500
vt 0.313694 0.562500
vt 0.314236 0.625000
vt 0.281467 0.625000
vt 0.348267 0.562609
vt 0.350043 0.625000
vt 0.313694 0.687500
vt 0.281399 0.687500
vt 0.348267 0.687392
vt 0.250000 0.500000
vt 0.281250 0.500000
vt 0.250000 0.562500
vt 0.312500 0.500000
vt 0.343750 0.500000
vt 0.343750 0.750000
vt 0.312500 0.750000
vt 0.281250 0.750000
vt 0.250000 0.687500
vt 0.250000 0.750000
vt 0.250000 0.625000
vt 0.781250 0.562500
vt 0.812500 0.562500
vt 0.812500 0.625000
vt 0.781250 0.625000
vt 0.843750 0.562500
vt 0.843750 0.625000
vt 0.812500 0.687500
vt 0.781250 0.687500
vt 0.843750 0.687500
vt 0.750000 0.500000
vt 0.781250 0.500000
vt 0.750000 0.562500
vt 0.812500 0.500000
vt 0.843750 0.500000
vt 0.875000 0.500000
vt 0.875000 0.562500
vt 0.875000 0.625000
vt 0.875000 0.687500
vt 0.875000 0.750000
vt 0.843750 0.750000
vt 0.812500 0.750000
vt 0.781250 0.750000
vt 0.750000 0.687500
vt 0.750000 0.750000
vt 0.750000 0.625000
vt 0.651733 0.562609
vt 0.686306 0.562500
vt 0.685764 0.625000
vt 0.649957 0.625000
vt 0.718601 0.562500
vt 0.718533 0.625000
vt 0.686306 0.687500
vt 0.651733 0.687391
vt 0.718601 0.687500
vt 0.656250 0.500000
vt 0.687500 0.500000
vt 0.718750 0.500000
vt 0.718750 0.750000
vt 0.687500 0.750000
vt 0.656250 0.750000
vt 0.156250 0.562500
vt 0.187500 0.562500
vt 0.187500 0.625000
vt 0.156250 0.625000
vt 0.218750 0.562500
vt 0.218750 0.625000
vt 0.187500 0.687500
vt 0.156250 0.687500
vt 0.218750 0.687500
vt 0.125000 0.500000
vt 0.156250 0.500000
vt 0.125000 0.562500
vt 0.187500 0.500000
vt 0.218750 0.500000
vt 0.218750 0.750000
vt 0.187500 0.750000
vt 0.156250 0.750000
vt 0.125000 0.687500
vt 0.125000 0.750000
vt 0.125000 0.625000
vt 0.437609 0.776733
vt 0.500000 0.774957
vt 0.500000 0.810764
vt 0.437500 0.811306
vt 0.562392 0.776734
vt 0.562500 0.811306
vt 0.500000 0.843533
vt 0.437500 0.843601
vt 0.562500 0.843601
vt 0.375000 0.781250
vt 0.625000 0.781250
vt 0.625000 0.812500
vt 0.625000 0.843750
vt 0.375000 0.843750
vt 0.375000 0.812500
vt 0.437500 0.276733
vt 0.500000 0.274957
vt 0.500000 0.310764
vt 0.437500 0.311306
vt 0.562500 0.276733
vt 0.562500 0.311306
vt 0.500000 0.343533
vt 0.437500 0.343601
vt 0.562500 0.343601
vt 0.375000 0.281250
vt 0.625000 0.281250
vt 0.625000 0.312500
vt 0.625000 0.343750
vt 0.375000 0.343750
vt 0.375000 0.312500
s 1
usemtl rock
f 77/5/2 78/6/3 81/7/4 80/8/5
f 78/6/3 79/9/6 82/10/7 81/7/4
f 80/8/5 81/7/4 84/11/8 83/12/9
f 81/7/4 82/10/7 85/13/10 84/11/8
f 5/14/11 20/15/12 77/5/2 19/16/13
f 20/15/12 21/17/14 78/6/3 77/5/2
f 21/17/14 22/18/15 79/9/6 78/6/3
f 22/18/15 6/19/16 23/20/17 79/9/6
f 79/9/6 23/20/17 24/21/18 82/10/7
f 82/10/7 24/21/18 25/22/19 85/13/10
f 85/13/10 25/22/19 8/23/20 26/24/21
f 84/11/8 85/13/10 26/24/21 27/25/22
f 83/12/9 84/11/8 27/25/22 28/26/23
f 17/27/24 83/12/9 28/26/23 7/28/25
f 18/29/26 80/8/5 83/12/9 17/27/24
f 19/16/13 77/5/2 80/8/5 18/29/26
f 86/30/27 87/31/28 90/32/29 89/33/30
f 87/31/28 88/34/31 91/35/32 90/32/29
f 89/33/30 90/32/29 93/36/33 92/37/34
f 90/32/29 91/35/32 94/38/35 93/36/33
f 13/39/36 76/40/37 86/30/27 55/41/38
f 76/40/37 75/42/39 87/31/28 86/30/27
f 75/42/39 74/43/40 88/34/31 87/31/28
f 74/43/40 14/44/41 32/45/42 88/34/31
f 88/34/31 32/45/42 33/46/43 91/35/32
f 91/35/32 33/46/43 34/47/44 94/38/35
f 94/38/35 34/47/44 12/48/45 35/49/46
f 93/36/33 94/38/35 35/49/46 36/50/47
f 92/37/34 93/36/33 36/50/47 37/51/48
f 53/52/49 92/37/34 37/51/48 11/53/50
f 54/54/51 89/33/30 92/37/34 53/52/49
f 55/41/38 86/30/27 89/33/30 54/54/51
f 95/55/52 96/56/53 99/57/54 98/58/55
f 96/56/53 97/59/56 100/60/57 99/57/54
f 98/58/55 99/57/54 102/61/58 101/62/59
f 99/57/54 100/60/57 103/63/60 102/61/58
f 11/53/50 37/51/48 95/55/52 40/64/61
f 37/51/48 36/50/47 96/56/53 95/55/52
f 36/50/47 35/49/46 97/59/56 96/56/53
f 35/49/46 12/48/45 41/65/62 97/59/56
f 97/59/56 41/65/62 42/66/63 100/60/57
f 100/60/57 42/66/63 43/67/64 103/63/60
f 103/63/60 43/67/64 10/68/65 44/69/66
f 102/61/58 103/63/60 44/69/66 45/70/67
f 101/62/59 102/61/58 45/70/67 46/71/68
f 38/72/69 101/62/59 46/71/68 9/73/70
f 39/74/71 98/58/55 101/62/59 38/72/69
f 40/64/61 95/55/52 98/58/55 39/74/71
f 104/75/72 105/76/73 108/77/74 107/78/75
f 105/76/73 106/79/76 109/80/77 108/77/74
f 107/78/75 108/77/74 111/81/78 110/82/79
f 108/77/74 109/80/77 112/83/80 111/81/78
f 15/84/81 73/85/82 104/75/72 61/86/83
f 73/85/82 72/87/84 105/76/73 104/75/72
f 72/87/84 71/88/85 106/79/76 105/76/73
f 71/88/85 16/89/86 50/90/87 106/79/76
f 106/79/76 50/90/87 51/91/88 109/80/77
f 109/80/77 51/91/88 52/92/89 112/83/80
f 112/83/80 52/92/89 6/93/16 22/94/15
f 111/81/78 112/83/80 22/94/15 21/95/14
f 110/82/79 111/81/78 21/95/14 20/96/12
f 59/97/90 110/82/79 20/96/12 5/98/11
f 60/99/91 107/78/75 110/82/79 59/97/90
f 61/86/83 104/75/72 107/78/75 60/99/91
f 113/100/92 114/101/93 117/102/94 116/103/95
f 114/101/93 115/104/96 118/105/97 117/102/94
f 116/103/95 117/102/94 120/106/98 119/107/99
f 117/102/94 118/105/97 121/108/100 120/106/98
f 13/109/36 55/110/38 113/100/92 68/111/101
f 55/110/38 54/112/51 114/101/93 113/100/92
f 54/112/51 53/113/49 115/104/96 114/101/93
f 53/113/49 11/53/50 40/64/61 115/104/96
f 115/104/96 40/64/61 39/74/71 118/105/97
f 118/105/97 39/74/71 38/72/69 121/108/100
f 121/108/100 38/72/69 9/73/70 49/114/102
f 120/106/98 121/108/100 49/114/102 48/115/103
f 119/107/99 120/106/98 48/115/103 47/116/104
f 70/117/105 119/107/99 47/116/104 15/118/81
f 69/119/106 116/103/95 119/107/99 70/117/105
f 68/111/101 113/100/92 116/103/95 69/119/106
f 122/120/107 123/121/108 126/122/109 125/123/110
f 123/121/108 124/124/111 127/125/112 126/122/109
f 125/123/110 126/122/109 129/126/113 128/127/114
f 126/122/109 127/125/112 130/128/115 129/126/113
f 14/129/41 58/130/116 122/120/107 65/131/117
f 58/130/116 57/132/118 123/121/108 122/120/107
f 57/132/118 56/133/119 124/124/111 123/121/108
f 56/133/119 8/134/20 25/135/19 124/124/111
f 124/124/111 25/135/19 24/136/18 127/125/112
f 127/125/112 24/136/18 23/137/17 130/128/115
f 130/128/115 23/137/17 6/138/16 52/139/89
f 129/126/113 130/128/115 52/139/89 51/140/88
f 128/127/114 129/126/113 51/140/88 50/141/87
f 67/142/120 128/127/114 50/141/87 16/143/86
f 66/144/121 125/123/110 128/127/114 67/142/120
f 65/131/117 122/120/107 125/123/110 66/144/121
f 131/145/122 132/146/123 135/147/124 134/148/125
f 132/146/123 133/149/126 136/150/127 135/147/124
f 134/148/125 135/147/124 138/151/128 137/152/129
f 135/147/124 136/150/127 139/153/130 138/151/128
f 12/48/45 34/154/44 131/145/122 41/65/62
f 34/154/44 33/155/43 132/146/123 131/145/122
f 33/155/43 32/156/42 133/149/126 132/146/123
f 32/156/42 14/129/41 65/131/117 133/149/126
f 133/149/126 65/131/117 66/144/121 136/150/127
f 136/150/127 66/144/121 67/142/120 139/153/130
f 139/153/130 67/142/120 16/143/86 64/157/131
f 138/151/128 139/153/130 64/157/131 63/158/132
f 137/152/129 138/151/128 63/158/132 62/159/133
f 43/67/64 137/152/129 62/159/133 10/68/65
f 42/66/63 134/148/125 137/152/129 43/67/64
f 41/65/62 131/145/122 134/148/125 42/66/63
f 140/160/134 141/161/135 144/162/136 143/163/137
f 141/161/135 142/164/138 145/165/139 144/162/136
f 143/163/137 144/162/136 147/166/140 146/167/141
f 144/162/136 145/165/139 148/168/142 147/166/140
f 7/169/25 31/170/143 140/160/134 17/171/24
f 31/170/143 30/172/144 141/161/135 140/160/134
f 30/172/144 29/173/145 142/164/138 141/161/135
f 29/173/145 13/109/36 68/111/101 142/164/138
f 142/164/138 68/111/101 69/119/106 145/165/139
f 145/165/139 69/119/106 70/117/105 148/168/142
f 148/168/142 70/117/105 15/118/81 61/174/83
f 147/166/140 148/168/142 61/174/83 60/175/91
f 146/167/141 147/166/140 60/175/91 59/176/90
f 19/177/13 146/167/141 59/176/90 5/178/11
f 18/179/26 143/163/137 146/167/141 19/177/13
f 17/171/24 140/160/134 143/163/137 18/179/26
f 149/180/146 150/181/147 153/182/148 152/183/149
f 150/181/147 151/184/150 154/185/151 153/182/148
f 152/183/149 153/182/148 156/186/152 155/187/153
f 153/182/148 154/185/151 157/188/154 156/186/152
f 9/73/70 46/71/68 149/180/146 49/189/102
f 46/71/68 45/70/67 150/181/147 149/180/146
f 45/70/67 44/69/66 151/184/150 150/181/147
f 44/69/66 10/68/65 62/190/133 151/184/150
f 151/184/150 62/190/133 63/191/132 154/185/151
f 154/185/151 63/191/132 64/192/131 157/188/154
f 157/188/154 64/192/131 16/89/86 71/88/85
f 156/186/152 157/188/154 71/88/85 72/87/84
f 155/187/153 156/186/152 72/87/84 73/85/82
f 47/193/104 155/187/153 73/85/82 15/84/81
f 48/194/103 152/183/149 155/187/153 47/193/104
f 49/189/102 149/180/146 152/183/149 48/194/103
f 158/195/155 159/196/156 162/197/157 161/198/158
f 159/196/156 160/199/159 163/200/160 162/197/157
f 161/198/158 162/197/157 165/201/161 164/202/162
f 162/197/157 163/200/160 166/203/163 165/201/161
f 7/28/25 28/26/23 158/195/155 31/204/143
f 28/26/23 27/25/22 159/196/156 158/195/155
f 27/25/22 26/24/21 160/199/159 159/196/156
f 26/24/21 8/23/20 56/205/119 160/199/159
f 160/199/159 56/205/119 57/206/118 163/200/160
f 163/200/160 57/206/118 58/207/116 166/203/163
f 166/203/163 58/207/116 14/44/41 74/43/40
f 165/201/161 166/203/163 74/43/40 75/42/39
f 164/202/162 165/201/161 75/42/39 76/40/37
f 29/208/145 164/202/162 76/40/37 13/39/36
f 30/209/144 161/198/158 164/202/162 29/208/145
f 31/204/143 158/195/155 161/198/158 30/209/144
