# Blender 4.0.1
# www.blender.org
mtllib rock_2.mtl
o light_source_pillar1
v -7.707250 9.868042 0.650856
v -7.707250 9.868042 -0.686668
v -6.194704 9.868042 0.650856
v -6.194704 9.868042 -0.686668
vn -0.0000 -1.0000 -0.0000
vt 0.711818 0.338649
vt 0.786851 0.236568
vt 0.878277 0.238988
vt 0.893383 0.381978
s 0
usemtl pillar
f 1/1/1 2/2/1 4/3/1 3/4/1
o rock5
v 20.002926 -1.914944 3.331766
v 18.265450 -0.446704 4.071206
v 22.289841 0.350358 2.245818
v 20.094593 1.587060 3.298537
v 23.557261 -0.667181 8.189461
v 22.190216 0.444223 10.144696
v 26.819374 -0.695705 6.680191
v 24.293619 1.084368 9.669172
v 26.546921 0.922940 3.361791
v 22.361515 3.305091 7.203896
v 22.112556 -1.626993 5.397194
v 20.017847 0.311989 7.524135
v 21.786308 -0.263691 2.366520
v 21.075214 -1.015566 2.653477
v 20.419592 -1.611271 3.019616
v 19.415016 -1.807404 3.400612
v 18.788260 -1.464098 3.560922
v 18.389746 -0.933534 3.819485
v 18.349714 -0.003348 3.847575
v 18.723700 0.602051 3.605539
v 19.400696 1.187997 3.421522
v 20.569899 1.428863 2.905447
v 21.250120 1.116650 2.504415
v 21.890718 0.706108 2.281755
v 25.405312 1.003675 2.781097
v 24.188581 0.855277 2.418633
v 23.087130 0.588429 2.259745
v 22.885340 3.126093 8.702033
v 23.520220 2.538345 9.511651
v 24.025484 1.730252 9.723256
v 25.077749 0.563498 9.008010
v 26.107771 -0.054092 8.056408
v 26.675739 -0.497004 7.216693
v 24.389206 -0.798687 7.812452
v 25.453520 -0.914808 7.321741
v 26.304161 -0.875756 6.919296
v 23.835365 0.976088 10.048834
v 23.237871 0.816228 10.313348
v 22.622841 0.619964 10.310263
v 22.321188 0.181454 9.944344
v 22.603785 -0.136985 9.514886
v 23.044306 -0.450116 8.851121
v 22.747175 -1.253433 6.174097
v 23.172672 -0.931269 7.033176
v 23.402508 -0.745742 7.764273
v 19.333443 0.054228 6.392144
v 18.710932 -0.167209 5.422318
v 18.348415 -0.338906 4.615143
v 27.255602 -0.480674 5.987314
v 27.543715 -0.029222 5.062394
v 27.334297 0.526088 4.145043
v 20.480133 2.041331 3.656477
v 21.137972 2.582381 4.335351
v 21.869814 3.063013 5.502143
v 20.295925 -2.089022 3.643178
v 20.786249 -2.126006 4.138218
v 21.414968 -1.951118 4.728874
v 21.727671 0.521622 9.973122
v 21.161327 0.559503 9.488206
v 20.606714 0.501127 8.650253
v 21.422297 2.970701 7.755354
v 20.741644 2.261837 7.915863
v 20.250134 1.307937 7.801307
v 25.868418 0.013164 3.485686
v 24.711647 -0.763042 3.957743
v 23.306313 -1.344614 4.647449
v 20.133152 -0.533571 7.139675
v 20.551603 -1.167465 6.654832
v 21.213043 -1.550835 6.074419
v 23.985203 3.233277 6.154163
v 25.946342 2.770088 4.816610
v 26.702509 1.914733 3.766052
v 19.683266 -1.382876 2.974287
v 19.000845 -1.014302 3.092449
v 18.536715 -0.510928 3.377273
v 20.259237 -0.763891 2.635538
v 19.520979 -0.372987 2.773283
v 18.971119 0.101143 3.090778
v 21.020569 -0.013445 2.393123
v 20.301836 0.373036 2.573332
v 19.697903 0.771812 2.928181
v 27.660690 1.479281 4.651895
v 26.811073 2.384599 5.974625
v 24.384274 2.920306 7.595476
v 27.901466 0.742009 5.572274
v 27.123121 1.575777 6.829526
v 24.882458 2.190786 8.411292
v 27.442713 0.013904 6.468712
v 26.828735 0.650325 7.468562
v 25.239332 1.290207 8.733502
v 25.830851 -0.729802 7.768877
v 25.192974 -0.349540 8.632501
v 24.444666 0.248652 9.458983
v 24.860052 -0.720459 8.256860
v 24.240110 -0.340820 9.146173
v 23.730112 0.192030 9.863175
v 23.846241 -0.565520 8.689970
v 23.371801 -0.208002 9.484362
v 23.009661 0.201766 10.032618
v 20.585289 -1.885340 5.280006
v 19.929945 -1.471487 5.752685
v 19.486404 -0.798748 6.138631
v 19.993317 -2.064961 4.560114
v 19.336742 -1.646683 4.929653
v 18.885551 -0.978745 5.242072
v 19.559753 -2.039331 3.924893
v 18.922388 -1.662761 4.185428
v 18.505463 -1.053032 4.454158
v 26.613579 -0.212011 4.234102
v 26.861961 -0.543000 5.119041
v 26.693100 -0.796445 6.037803
v 25.549849 -0.747858 4.675143
v 25.920305 -0.832646 5.525532
v 25.839842 -0.924800 6.417371
v 24.137054 -1.104579 5.361122
v 24.612659 -0.950398 6.192114
v 24.661085 -0.885616 7.014460
v 20.830149 2.662114 6.071830
v 20.139885 2.184163 4.848537
v 19.586546 1.674779 4.034438
v 20.062996 1.931274 6.367878
v 19.367500 1.511079 5.192493
v 18.872335 1.077380 4.310759
v 19.543013 1.008504 6.466272
v 18.877447 0.693074 5.395618
v 18.460732 0.382934 4.532530
v 23.334431 1.752382 10.251995
v 22.760693 2.461212 10.019333
v 22.074265 2.909010 9.200093
v 22.693790 1.454680 10.419037
v 22.076641 1.990982 10.111510
v 21.403595 2.290839 9.284240
v 22.104750 1.002226 10.281116
v 21.501585 1.292064 9.886111
v 20.882799 1.416934 9.055157
v 22.665829 -0.245555 2.430884
v 23.675680 -0.099587 2.600986
v 24.794609 0.023068 2.940661
v 21.884708 -1.089980 2.802552
v 22.726305 -1.028599 3.056454
v 23.670376 -0.892221 3.425519
v 21.058598 -1.749774 3.252448
v 21.702271 -1.753132 3.624054
v 22.448294 -1.597864 4.083912
v 22.522570 -0.522732 8.547611
v 21.992460 -0.231883 9.181862
v 21.711784 0.109246 9.628057
v 22.138027 -0.768954 7.856964
v 21.505529 -0.468463 8.522005
v 21.171368 -0.033405 9.042222
v 21.736712 -1.148017 6.952306
v 21.060137 -0.807011 7.615794
v 20.673931 -0.254900 8.171943
v 22.889103 1.263620 2.328459
v 22.246861 1.761745 2.635422
v 21.394661 2.048040 3.133786
v 24.055664 1.683125 2.564640
v 23.355076 2.291068 3.010363
v 22.283224 2.609164 3.664938
v 25.385839 1.935226 3.037692
v 24.667431 2.669059 3.713706
v 23.275267 3.062243 4.641150
vn -0.2593 -0.4518 -0.8536
vn -0.5252 -0.2820 -0.8029
vn -0.3678 -0.0295 -0.9295
vn -0.1788 -0.2439 -0.9532
vn -0.7732 -0.0332 -0.6333
vn -0.5844 0.2155 -0.7823
vn -0.2915 0.1598 -0.9431
vn -0.1570 -0.0620 -0.9856
vn -0.4362 0.3768 -0.8172
vn -0.1168 -0.8015 -0.5864
vn -0.3813 -0.7612 -0.5246
vn -0.0147 -0.6295 -0.7768
vn -0.6880 -0.6054 -0.4002
vn -0.9135 -0.3405 -0.2227
vn -0.9973 -0.0559 -0.0484
vn -0.9314 0.2390 -0.2747
vn -0.7583 0.4741 -0.4475
vn -0.5724 0.6102 -0.5477
vn -0.4368 0.6745 -0.5951
vn -0.3318 0.5476 -0.7681
vn -0.2274 0.3643 -0.9031
vn -0.1133 0.1428 -0.9833
vn 0.0025 -0.2767 -0.9610
vn 0.0067 -0.0884 -0.9961
vn 0.0093 -0.4549 -0.8905
vn 0.8776 0.3804 -0.2916
vn 0.5926 0.7907 0.1538
vn 0.7586 0.4490 0.4721
vn 0.9960 0.0202 0.0873
vn 0.3462 0.9010 0.2614
vn 0.5613 0.6373 0.5280
vn 0.7545 0.0631 0.6533
vn 0.8744 -0.2879 0.3905
vn 0.6590 0.2721 0.7012
vn 0.5633 -0.1048 -0.8196
vn 0.5808 0.5613 -0.5896
vn 0.7452 -0.2861 -0.6024
vn 0.3522 0.9169 -0.1876
vn 0.1369 0.9904 -0.0170
vn -0.1140 0.9928 0.0364
vn 0.1172 0.9509 0.2863
vn 0.4228 0.7230 0.5463
vn 0.6090 0.3671 0.7031
vn 0.6436 0.0725 0.7619
vn 0.6451 -0.0488 0.7625
vn 0.6542 -0.2527 0.7129
vn 0.6573 -0.5384 0.5274
vn 0.7093 -0.7034 0.0460
vn 0.5893 -0.7702 0.2441
vn 0.7991 -0.5392 -0.2659
vn 0.3805 -0.7867 0.4861
vn 0.4664 -0.5557 0.6882
vn 0.2279 -0.7640 0.6037
vn 0.1176 -0.9176 0.3797
vn 0.5318 -0.3170 0.7853
vn 0.3142 -0.5209 0.7936
vn 0.0296 -0.8470 0.5308
vn -0.0243 -0.9444 0.3278
vn 0.0598 -0.6552 0.7531
vn 0.2988 -0.9332 0.1997
vn 0.5184 -0.0392 0.8542
vn 0.2381 -0.2082 0.9487
vn -0.0595 -0.3630 0.9299
vn -0.2566 -0.4824 0.8375
vn -0.1587 -0.7247 0.6706
vn -0.0876 -0.8702 0.4848
vn -0.0627 -0.9420 0.3297
vn -0.0492 -0.9859 0.1597
vn -0.0600 -0.9748 0.2149
vn 0.0493 -0.9882 0.1453
vn -0.0660 -0.9344 0.3502
vn -0.3805 -0.7842 0.4901
vn -0.4948 -0.7716 0.3997
vn -0.1868 -0.9563 0.2249
vn -0.6580 -0.5042 0.5593
vn -0.7302 -0.4765 0.4897
vn -0.6369 -0.7619 0.1178
vn -0.3293 -0.9425 -0.0579
vn -0.8452 -0.4674 0.2591
vn 0.2200 -0.9541 0.2031
vn 0.0124 -0.9249 0.3799
vn 0.2049 -0.9717 0.1176
vn -0.3045 -0.8191 0.4861
vn -0.6421 -0.5492 0.5349
vn -0.8561 -0.1234 0.5018
vn -0.8377 -0.0893 0.5388
vn -0.8727 -0.0592 0.4847
vn -0.9580 -0.0482 0.2828
vn 0.0064 -0.9512 -0.3086
vn 0.1274 -0.9906 -0.0489
vn 0.4333 -0.7369 -0.5190
vn 0.4103 -0.8626 -0.2961
vn 0.1580 -0.9769 -0.1441
vn 0.2504 -0.9326 -0.2600
vn 0.3209 -0.9440 -0.0763
vn 0.0667 -0.9974 -0.0272
vn 0.0928 -0.9938 0.0607
vn 0.2080 -0.9777 0.0274
vn -0.0110 -0.9971 0.0758
vn 0.3974 -0.6263 -0.6707
vn -0.0071 -0.9790 0.2036
vn 0.0896 -0.9684 0.2328
vn 0.1767 -0.9544 0.2407
vn 0.2906 -0.9555 -0.0513
vn 0.3082 -0.8779 -0.3665
vn -0.5287 0.8487 0.0116
vn -0.5493 0.8326 -0.0714
vn -0.7405 0.6554 0.1487
vn -0.7523 0.6258 0.2060
vn -0.5875 0.7731 -0.2391
vn -0.7764 0.6270 -0.0640
vn -0.8626 0.3622 0.3531
vn -0.8576 0.3222 0.4009
vn -0.9225 0.3619 0.1338
vn -0.2376 0.9616 -0.1376
vn -0.4828 0.8624 0.1521
vn -0.3259 0.9053 -0.2725
vn -0.3934 0.8125 -0.4301
vn -0.8758 0.2695 0.4004
vn -0.7619 0.5819 0.2844
vn 0.3513 0.3134 0.8823
vn 0.0303 0.6679 0.7436
vn -0.4147 0.3993 0.8177
vn -0.0496 0.1244 0.9910
vn -0.3028 0.8494 0.4323
vn -0.6721 0.5349 0.5120
vn -0.6617 0.1137 0.7411
vn -0.3630 -0.0696 0.9292
vn -0.8305 0.2140 0.5143
vn -0.8412 -0.1609 0.5163
vn -0.7248 -0.2366 0.6470
vn -0.4993 -0.3603 0.7879
vn 0.1664 -0.4201 -0.8921
vn 0.2714 -0.4909 -0.8279
vn 0.2964 -0.7437 -0.5992
vn 0.1867 -0.6319 -0.7523
vn 0.3429 -0.5535 -0.7590
vn 0.3292 -0.8181 -0.4715
vn 0.2879 -0.8941 -0.3430
vn 0.1745 -0.8029 -0.5700
vn 0.3244 -0.9305 -0.1698
vn 0.1148 -0.0714 -0.9908
vn 0.2415 -0.0525 -0.9690
vn 0.3854 -0.0495 -0.9214
vn -0.0410 -0.9441 0.3271
vn -0.1620 -0.8784 0.4497
vn -0.2197 -0.8745 0.4324
vn 0.0071 -0.9404 0.3400
vn -0.3773 -0.6956 0.6114
vn -0.5432 -0.6399 0.5436
vn -0.2612 -0.8543 0.4495
vn 0.0348 -0.9295 0.3672
vn -0.6268 -0.5932 0.5052
vn 0.0017 0.3214 -0.9469
vn -0.1288 0.5816 -0.8032
vn -0.0017 0.7588 -0.6513
vn 0.1451 0.4536 -0.8793
vn -0.2457 0.7394 -0.6268
vn -0.1447 0.8809 -0.4506
vn 0.1508 0.8777 -0.4548
vn 0.3259 0.5504 -0.7687
vn -0.0188 0.9661 -0.2576
vt 0.437500 0.062351
vt 0.500000 0.062283
vt 0.500000 0.123264
vt 0.437500 0.123806
vt 0.562500 0.062351
vt 0.562500 0.123806
vt 0.500000 0.181207
vt 0.437500 0.182983
vt 0.562500 0.182983
vt 0.375000 0.000000
vt 0.437500 0.000000
vt 0.375000 0.062500
vt 0.500000 0.000000
vt 0.562500 0.000000
vt 0.625000 0.000000
vt 0.625000 0.062500
vt 0.625000 0.125000
vt 0.625000 0.187500
vt 0.625000 0.250000
vt 0.562500 0.235677
vt 0.500000 0.232639
vt 0.437500 0.235677
vt 0.375000 0.187500
vt 0.375000 0.250000
vt 0.375000 0.125000
vt 0.437500 0.406399
vt 0.500000 0.406467
vt 0.500000 0.439236
vt 0.437500 0.438694
vt 0.562500 0.406399
vt 0.562500 0.438694
vt 0.500000 0.475043
vt 0.437609 0.473267
vt 0.562392 0.473267
vt 0.375000 0.375000
vt 0.437500 0.375000
vt 0.375000 0.406250
vt 0.500000 0.375000
vt 0.562500 0.375000
vt 0.625000 0.375000
vt 0.625000 0.406250
vt 0.625000 0.437500
vt 0.625000 0.468750
vt 0.625000 0.500000
vt 0.561252 0.514350
vt 0.500000 0.517361
vt 0.438748 0.514350
vt 0.375000 0.468750
vt 0.375000 0.500000
vt 0.375000 0.437500
vt 0.441976 0.566976
vt 0.500000 0.568576
vt 0.500000 0.625000
vt 0.443576 0.625000
vt 0.558024 0.566976
vt 0.556424 0.625000
vt 0.500000 0.681424
vt 0.441976 0.683024
vt 0.558024 0.683024
vt 0.389350 0.563748
vt 0.610650 0.563748
vt 0.607639 0.625000
vt 0.610650 0.686252
vt 0.625000 0.750000
vt 0.561252 0.735650
vt 0.500000 0.732639
vt 0.438748 0.735650
vt 0.389350 0.686252
vt 0.375000 0.750000
vt 0.392361 0.625000
vt 0.437500 0.906250
vt 0.500000 0.906250
vt 0.500000 0.937500
vt 0.437500 0.937500
vt 0.562500 0.906250
vt 0.562500 0.937500
vt 0.500000 0.968750
vt 0.437500 0.968750
vt 0.562500 0.968750
vt 0.375000 0.875000
vt 0.437500 0.875000
vt 0.375000 0.906250
vt 0.500000 0.875000
vt 0.562500 0.875000
vt 0.625000 0.875000
vt 0.625000 0.906250
vt 0.625000 0.937500
vt 0.625000 0.968750
vt 0.625000 1.000000
vt 0.562500 1.000000
vt 0.500000 1.000000
vt 0.437500 1.000000
vt 0.375000 0.968750
vt 0.375000 1.000000
vt 0.375000 0.937500
vt 0.281399 0.562500
vt 0.313694 0.562500
vt 0.314236 0.625000
vt 0.281467 0.625000
vt 0.348267 0.562609
vt 0.350043 0.625000
vt 0.313694 0.687500
vt 0.281399 0.687500
vt 0.348267 0.687392
vt 0.250000 0.500000
vt 0.281250 0.500000
vt 0.250000 0.562500
vt 0.312500 0.500000
vt 0.343750 0.500000
vt 0.343750 0.750000
vt 0.312500 0.750000
vt 0.281250 0.750000
vt 0.250000 0.687500
vt 0.250000 0.750000
vt 0.250000 0.625000
vt 0.781250 0.562500
vt 0.812500 0.562500
vt 0.812500 0.625000
vt 0.781250 0.625000
vt 0.843750 0.562500
vt 0.843750 0.625000
vt 0.812500 0.687500
vt 0.781250 0.687500
vt 0.843750 0.687500
vt 0.750000 0.500000
vt 0.781250 0.500000
vt 0.750000 0.562500
vt 0.812500 0.500000
vt 0.843750 0.500000
vt 0.875000 0.500000
vt 0.875000 0.562500
vt 0.875000 0.625000
vt 0.875000 0.687500
vt 0.875000 0.750000
vt 0.843750 0.750000
vt 0.812500 0.750000
vt 0.781250 0.750000
vt 0.750000 0.687500
vt 0.750000 0.750000
vt 0.750000 0.625000
vt 0.651733 0.562609
vt 0.686306 0.562500
vt 0.685764 0.625000
vt 0.649957 0.625000
vt 0.718601 0.562500
vt 0.718533 0.625000
vt 0.686306 0.687500
vt 0.651733 0.687391
vt 0.718601 0.687500
vt 0.656250 0.500000
vt 0.687500 0.500000
vt 0.718750 0.500000
vt 0.718750 0.750000
vt 0.687500 0.750000
vt 0.656250 0.750000
vt 0.156250 0.562500
vt 0.187500 0.562500
vt 0.187500 0.625000
vt 0.156250 0.625000
vt 0.218750 0.562500
vt 0.218750 0.625000
vt 0.187500 0.687500
vt 0.156250 0.687500
vt 0.218750 0.687500
vt 0.125000 0.500000
vt 0.156250 0.500000
vt 0.125000 0.562500
vt 0.187500 0.500000
vt 0.218750 0.500000
vt 0.218750 0.750000
vt 0.187500 0.750000
vt 0.156250 0.750000
vt 0.125000 0.687500
vt 0.125000 0.750000
vt 0.125000 0.625000
vt 0.437609 0.776733
vt 0.500000 0.774957
vt 0.500000 0.810764
vt 0.437500 0.811306
vt 0.562392 0.776734
vt 0.562500 0.811306
vt 0.500000 0.843533
vt 0.437500 0.843601
vt 0.562500 0.843601
vt 0.375000 0.781250
vt 0.625000 0.781250
vt 0.625000 0.812500
vt 0.625000 0.843750
vt 0.375000 0.843750
vt 0.375000 0.812500
vt 0.437500 0.276733
vt 0.500000 0.274957
vt 0.500000 0.310764
vt 0.437500 0.311306
vt 0.562500 0.276733
vt 0.562500 0.311306
vt 0.500000 0.343533
vt 0.437500 0.343601
vt 0.562500 0.343601
vt 0.375000 0.281250
vt 0.625000 0.281250
vt 0.625000 0.312500
vt 0.625000 0.343750
vt 0.375000 0.343750
vt 0.375000 0.312500
s 1
usemtl rock
f 77/5/2 78/6/3 81/7/4 80/8/5
f 78/6/3 79/9/6 82/10/7 81/7/4
f 80/8/5 81/7/4 84/11/8 83/12/9
f 81/7/4 82/10/7 85/13/10 84/11/8
f 5/14/11 20/15/12 77/5/2 19/16/13
f 20/15/12 21/17/14 78/6/3 77/5/2
f 21/17/14 22/18/15 79/9/6 78/6/3
f 22/18/15 6/19/16 23/20/17 79/9/6
f 79/9/6 23/20/17 24/21/18 82/10/7
f 82/10/7 24/21/18 25/22/19 85/13/10
f 85/13/10 25/22/19 8/23/20 26/24/21
f 84/11/8 85/13/10 26/24/21 27/25/22
f 83/12/9 84/11/8 27/25/22 28/26/23
f 17/27/24 83/12/9 28/26/23 7/28/25
f 18/29/26 80/8/5 83/12/9 17/27/24
f 19/16/13 77/5/2 80/8/5 18/29/26
f 86/30/27 87/31/28 90/32/29 89/33/30
f 87/31/28 88/34/31 91/35/32 90/32/29
f 89/33/30 90/32/29 93/36/33 92/37/34
f 90/32/29 91/35/32 94/38/35 93/36/33
f 13/39/36 76/40/37 86/30/27 55/41/38
f 76/40/37 75/42/39 87/31/28 86/30/27
f 75/42/39 74/43/40 88/34/31 87/31/28
f 74/43/40 14/44/41 32/45/42 88/34/31
f 88/34/31 32/45/42 33/46/43 91/35/32
f 91/35/32 33/46/43 34/47/44 94/38/35
f 94/38/35 34/47/44 12/48/45 35/49/46
f 93/36/33 94/38/35 35/49/46 36/50/47
f 92/37/34 93/36/33 36/50/47 37/51/48
f 53/52/49 92/37/34 37/51/48 11/53/50
f 54/54/51 89/33/30 92/37/34 53/52/49
f 55/41/38 86/30/27 89/33/30 54/54/51
f 95/55/52 96/56/53 99/57/54 98/58/55
f 96/56/53 97/59/56 100/60/57 99/57/54
f 98/58/55 99/57/54 102/61/58 101/62/59
f 99/57/54 100/60/57 103/63/60 102/61/58
f 11/53/50 37/51/48 95/55/52 40/64/61
f 37/51/48 36/50/47 96/56/53 95/55/52
f 36/50/47 35/49/46 97/59/56 96/56/53
f 35/49/46 12/48/45 41/65/62 97/59/56
f 97/59/56 41/65/62 42/66/63 100/60/57
f 100/60/57 42/66/63 43/67/64 103/63/60
f 103/63/60 43/67/64 10/68/65 44/69/66
f 102/61/58 103/63/60 44/69/66 45/70/67
f 101/62/59 102/61/58 45/70/67 46/71/68
f 38/72/69 101/62/59 46/71/68 9/73/70
f 39/74/71 98/58/55 101/62/59 38/72/69
f 40/64/61 95/55/52 98/58/55 39/74/71
f 104/75/72 105/76/73 108/77/74 107/78/75
f 105/76/73 106/79/76 109/80/77 108/77/74
f 107/78/75 108/77/74 111/81/78 110/82/79
f 108/77/74 109/80/77 112/83/80 111/81/78
f 15/84/81 73/85/82 104/75/72 61/86/83
f 73/85/82 72/87/84 105/76/73 104/75/72
f 72/87/84 71/88/85 106/79/76 105/76/73
f 71/88/85 16/89/86 50/90/87 106/79/76
f 106/79/76 50/90/87 51/91/88 109/80/77
f 109/80/77 51/91/88 52/92/89 112/83/80
f 112/83/80 52/92/89 6/93/16 22/94/15
f 111/81/78 112/83/80 22/94/15 21/95/14
f 110/82/79 111/81/78 21/95/14 20/96/12
f 59/97/90 110/82/79 20/96/12 5/98/11
f 60/99/91 107/78/75 110/82/79 59/97/90
f 61/86/83 104/75/72 107/78/75 60/99/91
f 113/100/92 114/101/93 117/102/94 116/103/95
f 114/101/93 115/104/96 118/105/97 117/102/94
f 116/103/95 117/102/94 120/106/98 119/107/99
f 117/102/94 118/105/97 121/108/100 120/106/98
f 13/109/36 55/110/38 113/100/92 68/111/101
f 55/110/38 54/112/51 114/101/93 113/100/92
f 54/112/51 53/113/49 115/104/96 114/101/93
f 53/113/49 11/53/50 40/64/61 115/104/96
f 115/104/96 40/64/61 39/74/71 118/105/97
f 118/105/97 39/74/71 38/72/69 121/108/100
f 121/108/100 38/72/69 9/73/70 49/114/102
f 120/106/98 121/108/100 49/114/102 48/115/103
f 119/107/99 120/106/98 48/115/103 47/116/104
f 70/117/105 119/107/99 47/116/104 15/118/81
f 69/119/106 116/103/95 119/107/99 70/117/105
f 68/111/101 113/100/92 116/103/95 69/119/106
f 122/120/107 123/121/108 126/122/109 125/123/110
f 123/121/108 124/124/111 127/125/112 126/122/109
f 125/123/110 126/122/109 129/126/113 128/127/114
f 126/122/109 127/125/112 130/128/115 129/126/113
f 14/129/41 58/130/116 122/120/107 65/131/117
f 58/130/116 57/132/118 123/121/108 122/120/107
f 57/132/118 56/133/119 124/124/111 123/121/108
f 56/133/119 8/134/20 25/135/19 124/124/111
f 124/124/111 25/135/19 24/136/18 127/125/112
f 127/125/112 24/136/18 23/137/17 130/128/115
f 130/128/115 23/137/17 6/138/16 52/139/89
f 129/126/113 130/128/115 52/139/89 51/140/88
f 128/127/114 129/126/113 51/140/88 50/141/87
f 67/142/120 128/127/114 50/141/87 16/143/86
f 66/144/121 125/123/110 128/127/114 67/142/120
f 65/131/117 122/120/107 125/123/110 66/144/121
f 131/145/122 132/146/123 135/147/124 134/148/125
f 132/146/123 133/149/126 136/150/127 135/147/124
f 134/148/125 135/147/124 138/151/128 137/152/129
f 135/147/124 136/150/127 139/153/130 138/151/128
f 12/48/45 34/154/44 131/145/122 41/65/62
f 34/154/44 33/155/43 132/146/123 131/145/122
f 33/155/43 32/156/42 133/149/126 132/146/123
f 32/156/42 14/129/41 65/131/117 133/149/126
f 133/149/126 65/131/117 66/144/121 136/150/127
f 136/150/127 66/144/121 67/142/120 139/153/130
f 139/153/130 67/142/120 16/143/86 64/157/131
f 138/151/128 139/153/130 64/157/131 63/158/132
f 137/152/129 138/151/128 63/158/132 62/159/133
f 43/67/64 137/152/129 62/159/133 10/68/65
f 42/66/63 134/148/125 137/152/129 43/67/64
f 41/65/62 131/145/122 134/148/125 42/66/63
f 140/160/134 141/161/135 144/162/136 143/163/137
f 141/161/135 142/164/138 145/165/139 144/162/136
f 143/163/137 144/162/136 147/166/140 146/167/141
f 144/162/136 145/165/139 148/168/142 147/166/140
f 7/169/25 31/170/143 140/160/134 17/171/24
f 31/170/143 30/172/144 141/161/135 140/160/134
f 30/172/144 29/173/145 142/164/138 141/161/135
f 29/173/145 13/109/36 68/111/101 142/164/138
f 142/164/138 68/111/101 69/119/106 145/165/139
f 145/165/139 69/119/106 70/117/105 148/168/142
f 148/168/142 70/117/105 15/118/81 61/174/83
f 147/166/140 148/168/142 61/174/83 60/175/91
f 146/167/141 147/166/140 60/175/91 59/176/90
f 19/177/13 146/167/141 59/176/90 5/178/11
f 18/179/26 143/163/137 146/167/141 19/177/13
f 17/171/24 140/160/134 143/163/137 18/179/26
f 149/180/146 150/181/147 153/182/148 152/183/149
f 150/181/147 151/184/150 154/185/151 153/182/148
f 152/183/149 153/182/148 156/186/152 155/187/153
f 153/182/148 154/185/151 157/188/154 156/186/152
f 9/73/70 46/71/68 149/180/146 49/189/102
f 46/71/68 45/70/67 150/181/147 149/180/146
f 45/70/67 44/69/66 151/184/150 150/181/147
f 44/69/66 10/68/65 62/190/133 151/184/150
f 151/184/150 62/190/133 63/191/132 154/185/151
f 154/185/151 63/191/132 64/192/131 157/188/154
f 157/188/154 64/192/131 16/89/86 71/88/85
f 156/186/152 157/188/154 71/88/85 72/87/84
f 155/187/153 156/186/152 72/87/84 73/85/82
f 47/193/104 155/187/153 73/85/82 15/84/81
f 48/194/103 152/183/149 155/187/153 47/193/104
f 49/189/102 149/180/146 152/183/149 48/194/103
f 158/195/155 159/196/156 162/197/157 161/198/158
f 159/196/156 160/199/159 163/200/160 162/197/157
f 161/198/158 162/197/157 165/201/161 164/202/162
f 162/197/157 163/200/160 166/203/163 165/201/161
f 7/28/25 28/26/23 158/195/155 31/204/143
f 28/26/23 27/25/22 159/196/156 158/195/155
f 27/25/22 26/24/21 160/199/159 159/196/156
f 26/24/21 8/23/20 56/205/119 160/199/159
f 160/199/159 56/205/119 57/206/118 163/200/160
f 163/200/160 57/206/118 58/207/116 166/203/163
f 166/203/163 58/207/116 14/44/41 74/43/40
f 165/201/161 166/203/163 74/43/40 75/42/39
f 164/202/162 165/201/161 75/42/39 76/40/37
f 29/208/145 164/202/162 76/40/37 13/39/36
f 30/209/144 161/198/158 164/202/162 29/208/145
f 31/204/143 158/195/155 161/198/158 30/209/144
