# Blender 4.0.2
# www.blender.org
mtllib rock1.mtl
o rock1
v -15.695992 -0.311287 -14.644273
v -15.690132 0.673135 -15.023525
v -14.626629 -0.156199 -14.520864
v -14.649208 0.773883 -14.899802
v -15.224491 0.399161 -12.254428
v -15.317868 1.225369 -12.187746
v -14.587149 -0.263088 -12.010418
v -14.561173 0.798874 -11.836114
v -14.306538 -0.121753 -13.312263
v -14.198607 1.415213 -13.350330
v -15.570153 -0.010489 -13.363740
v -15.568655 1.317511 -13.479842
v -14.857327 -0.279215 -14.573927
v -15.181043 -0.370927 -14.625483
v -15.491944 -0.371722 -14.649678
v -15.787529 -0.147038 -14.803961
v -15.832781 0.125851 -14.962229
v -15.784751 0.435329 -15.034005
v -15.499593 0.727042 -15.109664
v -15.202673 0.771381 -15.127959
v -14.883304 0.784527 -15.033711
v -14.587719 0.559843 -14.879429
v -14.550935 0.274603 -14.791212
v -14.572169 0.012498 -14.649587
v -14.313039 -0.091542 -13.690282
v -14.377383 -0.112808 -14.029540
v -14.499198 -0.145502 -14.321022
v -14.226901 1.343431 -12.810884
v -14.318544 1.170617 -12.340077
v -14.447196 0.961432 -12.005514
v -14.533764 0.505148 -11.774034
v -14.527056 0.147058 -11.778893
v -14.550479 -0.127698 -11.881569
v -15.089635 0.196275 -12.156424
v -14.903738 -0.045467 -12.058493
v -14.719700 -0.212171 -12.009637
v -14.728736 0.929109 -11.829955
v -14.958863 1.079438 -11.900634
v -15.175591 1.185616 -12.046103
v -15.344812 1.101142 -12.174171
v -15.335546 0.886913 -12.180233
v -15.284607 0.620236 -12.212346
v -15.464429 0.155074 -13.000450
v -15.366752 0.288648 -12.680637
v -15.284232 0.367149 -12.421824
v -15.638626 1.197245 -13.977734
v -15.697563 1.031878 -14.453788
v -15.714899 0.836395 -14.821846
v -14.510256 -0.326075 -12.203211
v -14.421646 -0.315499 -12.521214
v -14.347975 -0.221058 -12.907876
v -14.512976 0.954160 -14.703461
v -14.362257 1.169593 -14.351732
v -14.248881 1.343635 -13.883791
v -15.738185 -0.333994 -14.437657
v -15.735789 -0.293904 -14.120618
v -15.670875 -0.174460 -13.749207
v -15.389089 1.323036 -12.374709
v -15.459499 1.388375 -12.669456
v -15.513477 1.384799 -13.038828
v -14.497573 1.601867 -13.387770
v -14.873372 1.634953 -13.429540
v -15.254301 1.533743 -13.464084
v -14.604261 -0.305334 -13.315828
v -14.948605 -0.334711 -13.323547
v -15.287818 -0.229793 -13.338494
v -15.757915 1.010243 -13.469007
v -15.816310 0.654783 -13.438759
v -15.751252 0.298686 -13.400027
v -14.034139 1.073387 -13.326237
v -14.005667 0.645459 -13.314329
v -14.100647 0.218166 -13.310905
v -15.547425 -0.183082 -14.901840
v -15.582325 0.091385 -15.093612
v -15.557288 0.411142 -15.174275
v -15.224201 -0.175212 -14.892592
v -15.247192 0.106512 -15.096244
v -15.242424 0.435250 -15.189765
v -14.879210 -0.099060 -14.807243
v -14.884300 0.168653 -14.988746
v -14.898464 0.477218 -15.079575
v -14.157945 0.091441 -12.867203
v -14.062753 0.520697 -12.827654
v -14.079710 0.970645 -12.804692
v -14.261560 -0.056827 -12.444408
v -14.179319 0.339715 -12.371399
v -14.190916 0.783751 -12.333803
v -14.394629 -0.139734 -12.099482
v -14.337993 0.190210 -12.007073
v -14.347583 0.594812 -11.980948
v -14.730577 -0.018554 -11.820380
v -14.735492 0.257185 -11.713583
v -14.743560 0.596205 -11.717534
v -14.925878 0.180581 -11.880163
v -14.949413 0.468522 -11.785207
v -14.963862 0.780775 -11.787755
v -15.118148 0.426354 -12.021938
v -15.154248 0.704172 -11.954334
v -15.170547 0.963255 -11.954634
v -15.855841 0.122161 -13.811408
v -15.912690 0.489429 -13.879374
v -15.840399 0.867930 -13.938663
v -15.918979 -0.019581 -14.216558
v -15.972040 0.335379 -14.317883
v -15.896055 0.709148 -14.398066
v -15.904802 -0.102651 -14.564056
v -15.956697 0.210095 -14.693554
v -15.888699 0.549587 -14.773525
v -14.611825 -0.343886 -12.937341
v -14.642252 -0.372488 -12.573715
v -14.684150 -0.331584 -12.260162
v -14.912870 -0.294966 -12.958673
v -14.894497 -0.255976 -12.611078
v -14.892108 -0.183884 -12.306193
v -15.210583 -0.114993 -12.978276
v -15.146603 -0.017664 -12.647572
v -15.102638 0.068291 -12.368121
v -14.556106 1.509646 -13.934555
v -14.663930 1.316951 -14.428841
v -14.789737 1.067401 -14.809509
v -14.935194 1.532785 -13.972189
v -15.028736 1.338854 -14.479078
v -15.125689 1.079143 -14.881001
v -15.318357 1.425098 -13.988301
v -15.392478 1.244469 -14.484697
v -15.450787 1.006690 -14.873604
v -14.658278 1.199828 -12.048691
v -14.570146 1.414278 -12.390568
v -14.507436 1.560906 -12.853067
v -14.929240 1.330703 -12.132465
v -14.890426 1.517493 -12.476353
v -14.863734 1.625519 -12.918063
v -15.192066 1.371992 -12.260048
v -15.209143 1.503461 -12.581267
v -15.223152 1.559650 -12.987070
v -14.778832 -0.343332 -14.307526
v -14.688677 -0.336581 -14.007229
v -14.628648 -0.310029 -13.675532
v -15.125154 -0.454460 -14.333245
v -15.062959 -0.450281 -14.019386
v -15.001166 -0.396447 -13.680897
v -15.465330 -0.452604 -14.370420
v -15.433105 -0.438887 -14.055538
v -15.368961 -0.350939 -13.705204
v -15.413332 0.673306 -12.435863
v -15.483355 0.956610 -12.431585
v -15.481587 1.180142 -12.420728
v -15.525832 0.612864 -12.704336
v -15.605602 0.921801 -12.716032
v -15.589835 1.187800 -12.710574
v -15.638309 0.475268 -13.026651
v -15.713851 0.809857 -13.049083
v -15.677032 1.124323 -13.057209
v -14.340920 0.113771 -14.407604
v -14.294146 0.414588 -14.520693
v -14.350264 0.717448 -14.615872
v -14.185101 0.198740 -14.093860
v -14.119655 0.553195 -14.180582
v -14.178058 0.897645 -14.267820
v -14.106606 0.247140 -13.725171
v -14.023670 0.646908 -13.773711
v -14.069226 1.036545 -13.828351
vn -0.1694 -0.6873 -0.7064
vn -0.2459 -0.3947 -0.8853
vn 0.1607 -0.4176 -0.8943
vn 0.1731 -0.6780 -0.7144
vn -0.2762 -0.0041 -0.9611
vn 0.1237 -0.0463 -0.9912
vn 0.4387 -0.3677 -0.8200
vn 0.4202 -0.6021 -0.6789
vn 0.4178 -0.0623 -0.9064
vn -0.4828 -0.8021 -0.3514
vn -0.6365 -0.5828 -0.5053
vn -0.1357 -0.8956 -0.4237
vn -0.7316 -0.2511 -0.6338
vn -0.7183 0.1200 -0.6854
vn -0.6220 0.4214 -0.6600
vn -0.3004 0.4450 -0.8436
vn 0.0607 0.4087 -0.9107
vn 0.3607 0.3338 -0.8709
vn 0.5644 0.2607 -0.7833
vn 0.6428 -0.0122 -0.7659
vn 0.6660 -0.2735 -0.6940
vn 0.6411 -0.5025 -0.5801
vn 0.4067 -0.7911 -0.4569
vn 0.5805 -0.6831 -0.4432
vn 0.1696 -0.8746 -0.4543
vn 0.9258 -0.3740 0.0552
vn 0.9847 -0.0923 0.1476
vn 0.9530 -0.1174 0.2792
vn 0.8998 -0.4019 0.1697
vn 0.9559 0.2082 0.2072
vn 0.9150 0.1546 0.3728
vn 0.8580 -0.1468 0.4922
vn 0.7997 -0.4545 0.3924
vn 0.8165 0.1116 0.5665
vn 0.7163 -0.6948 -0.0653
vn 0.9325 -0.3609 -0.0115
vn 0.6727 -0.7376 -0.0589
vn 0.9977 -0.0639 0.0230
vn 0.9639 0.2656 0.0176
vn 0.7453 0.6665 -0.0146
vn 0.7622 0.6029 0.2356
vn 0.7338 0.5115 0.4471
vn 0.6414 0.4190 0.6427
vn 0.4888 0.3152 0.8135
vn 0.5286 0.0934 0.8437
vn 0.4925 -0.2079 0.8451
vn 0.3449 -0.5574 0.7552
vn 0.3892 -0.8779 0.2789
vn 0.1487 -0.8293 0.5387
vn 0.5758 -0.8161 0.0487
vn -0.3219 -0.4920 0.8089
vn -0.1400 -0.1846 0.9728
vn -0.5700 -0.1402 0.8096
vn -0.6937 -0.3708 0.6174
vn 0.0234 0.1334 0.9908
vn -0.3660 0.1663 0.9156
vn -0.7621 -0.1309 0.6341
vn -0.8106 -0.2973 0.5045
vn -0.6284 0.1469 0.7639
vn -0.4391 -0.7429 0.5052
vn 0.1885 0.4448 0.8756
vn -0.1378 0.5171 0.8447
vn -0.4296 0.5174 0.7401
vn -0.6425 0.4683 0.6065
vn -0.7948 0.1274 0.5933
vn -0.8453 -0.1240 0.5197
vn -0.8524 -0.2689 0.4484
vn -0.8170 -0.4277 0.3867
vn -0.8470 -0.3607 0.3905
vn -0.7242 -0.5512 0.4143
vn -0.9137 -0.2854 0.2891
vn -0.9861 0.0410 0.1612
vn -0.9990 0.0289 0.0346
vn -0.9343 -0.3268 0.1423
vn -0.9311 0.3639 0.0249
vn -0.9325 0.3507 -0.0859
vn -0.9727 -0.0620 -0.2236
vn -0.8985 -0.4210 -0.1246
vn -0.9128 0.2778 -0.2993
vn -0.7107 -0.5663 0.4174
vn -0.8888 -0.2827 0.3608
vn -0.6894 -0.6275 0.3620
vn -0.9730 0.0143 0.2304
vn -0.9319 0.3537 0.0805
vn -0.7176 0.6955 -0.0354
vn -0.7266 0.6793 -0.1032
vn -0.7237 0.6528 -0.2240
vn -0.6976 0.5813 -0.4189
vn -0.6169 -0.7852 -0.0543
vn -0.6756 -0.7075 0.2072
vn 0.1427 -0.9881 -0.0572
vn -0.0695 -0.9973 0.0240
vn -0.5393 -0.8292 0.1470
vn -0.3383 -0.9327 0.1247
vn -0.3007 -0.9302 0.2105
vn -0.6705 -0.7006 0.2442
vn -0.7237 -0.6227 0.2974
vn -0.6020 -0.7297 0.3244
vn -0.7916 -0.5295 0.3048
vn 0.3062 -0.9516 -0.0280
vn -0.8373 -0.4006 0.3720
vn -0.8025 -0.4498 0.3920
vn -0.7537 -0.5075 0.4175
vn -0.4563 -0.8198 0.3459
vn -0.1240 -0.9800 0.1558
vn 0.3077 0.9050 -0.2936
vn 0.3067 0.8127 -0.4953
vn -0.0512 0.8943 -0.4446
vn -0.0722 0.9622 -0.2625
vn 0.3192 0.6510 -0.6887
vn -0.0054 0.7421 -0.6702
vn -0.3986 0.8468 -0.3521
vn -0.4114 0.8892 -0.2003
vn -0.3571 0.7385 -0.5720
vn 0.7030 0.6575 -0.2711
vn 0.3369 0.9400 -0.0540
vn 0.6598 0.5750 -0.4838
vn 0.6191 0.4318 -0.6559
vn -0.3960 0.9146 -0.0816
vn -0.0583 0.9952 -0.0792
vn 0.3228 0.6714 0.6671
vn 0.3802 0.8136 0.4398
vn 0.0184 0.9330 0.3594
vn 0.0004 0.7896 0.6136
vn 0.3729 0.9057 0.2016
vn -0.0170 0.9916 0.1285
vn -0.3122 0.9131 0.2622
vn -0.3022 0.8040 0.5121
vn -0.3551 0.9329 0.0601
vn -0.6994 0.7130 0.0492
vn -0.6785 0.7029 0.2133
vn -0.6615 0.6141 0.4306
vn 0.4254 -0.8819 -0.2034
vn 0.4337 -0.8999 -0.0458
vn 0.1113 -0.9913 0.0702
vn 0.1515 -0.9768 -0.1510
vn 0.3976 -0.9175 0.0088
vn 0.0287 -0.9861 0.1638
vn -0.2688 -0.9471 0.1753
vn -0.1964 -0.9768 -0.0850
vn -0.3416 -0.8858 0.3142
vn 0.6638 -0.6911 -0.2859
vn 0.7140 -0.6849 -0.1453
vn 0.7287 -0.6813 -0.0696
vn -0.8651 -0.2751 0.4194
vn -0.8958 -0.1016 0.4326
vn -0.9337 -0.0666 0.3518
vn -0.8672 -0.2866 0.4073
vn -0.8826 0.2150 0.4180
vn -0.9191 0.2965 0.2595
vn -0.9582 -0.0259 0.2850
vn -0.8730 -0.2877 0.3938
vn -0.9321 0.3334 0.1418
vn 0.8058 -0.4319 -0.4052
vn 0.8416 -0.1649 -0.5142
vn 0.9443 -0.0861 -0.3177
vn 0.8916 -0.3894 -0.2310
vn 0.7961 0.1212 -0.5929
vn 0.8821 0.2342 -0.4087
vn 0.9895 -0.0547 -0.1334
vn 0.9264 -0.3643 -0.0956
vn 0.9382 0.2820 -0.2007
vt 0.437500 0.062351
vt 0.500000 0.062283
vt 0.500000 0.123264
vt 0.437500 0.123806
vt 0.562500 0.062351
vt 0.562500 0.123806
vt 0.500000 0.181207
vt 0.437500 0.182983
vt 0.562500 0.182983
vt 0.375000 0.000000
vt 0.437500 0.000000
vt 0.375000 0.062500
vt 0.500000 0.000000
vt 0.562500 0.000000
vt 0.625000 0.000000
vt 0.625000 0.062500
vt 0.625000 0.125000
vt 0.625000 0.187500
vt 0.625000 0.250000
vt 0.562500 0.235677
vt 0.500000 0.232639
vt 0.437500 0.235677
vt 0.375000 0.187500
vt 0.375000 0.250000
vt 0.375000 0.125000
vt 0.437500 0.406399
vt 0.500000 0.406467
vt 0.500000 0.439236
vt 0.437500 0.438694
vt 0.562500 0.406399
vt 0.562500 0.438694
vt 0.500000 0.475043
vt 0.437609 0.473267
vt 0.562392 0.473267
vt 0.375000 0.375000
vt 0.437500 0.375000
vt 0.375000 0.406250
vt 0.500000 0.375000
vt 0.562500 0.375000
vt 0.625000 0.375000
vt 0.625000 0.406250
vt 0.625000 0.437500
vt 0.625000 0.468750
vt 0.625000 0.500000
vt 0.561252 0.514350
vt 0.500000 0.517361
vt 0.438748 0.514350
vt 0.375000 0.468750
vt 0.375000 0.500000
vt 0.375000 0.437500
vt 0.441976 0.566976
vt 0.500000 0.568576
vt 0.500000 0.625000
vt 0.443576 0.625000
vt 0.558024 0.566976
vt 0.556424 0.625000
vt 0.500000 0.681424
vt 0.441976 0.683024
vt 0.558024 0.683024
vt 0.389350 0.563748
vt 0.610650 0.563748
vt 0.607639 0.625000
vt 0.610650 0.686252
vt 0.625000 0.750000
vt 0.561252 0.735650
vt 0.500000 0.732639
vt 0.438748 0.735650
vt 0.389350 0.686252
vt 0.375000 0.750000
vt 0.392361 0.625000
vt 0.437500 0.906250
vt 0.500000 0.906250
vt 0.500000 0.937500
vt 0.437500 0.937500
vt 0.562500 0.906250
vt 0.562500 0.937500
vt 0.500000 0.968750
vt 0.437500 0.968750
vt 0.562500 0.968750
vt 0.375000 0.875000
vt 0.437500 0.875000
vt 0.375000 0.906250
vt 0.500000 0.875000
vt 0.562500 0.875000
vt 0.625000 0.875000
vt 0.625000 0.906250
vt 0.625000 0.937500
vt 0.625000 0.968750
vt 0.625000 1.000000
vt 0.562500 1.000000
vt 0.500000 1.000000
vt 0.437500 1.000000
vt 0.375000 0.968750
vt 0.375000 1.000000
vt 0.375000 0.937500
vt 0.281399 0.562500
vt 0.313694 0.562500
vt 0.314236 0.625000
vt 0.281467 0.625000
vt 0.348267 0.562609
vt 0.350043 0.625000
vt 0.313694 0.687500
vt 0.281399 0.687500
vt 0.348267 0.687392
vt 0.250000 0.500000
vt 0.281250 0.500000
vt 0.250000 0.562500
vt 0.312500 0.500000
vt 0.343750 0.500000
vt 0.343750 0.750000
vt 0.312500 0.750000
vt 0.281250 0.750000
vt 0.250000 0.687500
vt 0.250000 0.750000
vt 0.250000 0.625000
vt 0.781250 0.562500
vt 0.812500 0.562500
vt 0.812500 0.625000
vt 0.781250 0.625000
vt 0.843750 0.562500
vt 0.843750 0.625000
vt 0.812500 0.687500
vt 0.781250 0.687500
vt 0.843750 0.687500
vt 0.750000 0.500000
vt 0.781250 0.500000
vt 0.750000 0.562500
vt 0.812500 0.500000
vt 0.843750 0.500000
vt 0.875000 0.500000
vt 0.875000 0.562500
vt 0.875000 0.625000
vt 0.875000 0.687500
vt 0.875000 0.750000
vt 0.843750 0.750000
vt 0.812500 0.750000
vt 0.781250 0.750000
vt 0.750000 0.687500
vt 0.750000 0.750000
vt 0.750000 0.625000
vt 0.651733 0.562609
vt 0.686306 0.562500
vt 0.685764 0.625000
vt 0.649957 0.625000
vt 0.718601 0.562500
vt 0.718533 0.625000
vt 0.686306 0.687500
vt 0.651733 0.687391
vt 0.718601 0.687500
vt 0.656250 0.500000
vt 0.687500 0.500000
vt 0.718750 0.500000
vt 0.718750 0.750000
vt 0.687500 0.750000
vt 0.656250 0.750000
vt 0.156250 0.562500
vt 0.187500 0.562500
vt 0.187500 0.625000
vt 0.156250 0.625000
vt 0.218750 0.562500
vt 0.218750 0.625000
vt 0.187500 0.687500
vt 0.156250 0.687500
vt 0.218750 0.687500
vt 0.125000 0.500000
vt 0.156250 0.500000
vt 0.125000 0.562500
vt 0.187500 0.500000
vt 0.218750 0.500000
vt 0.218750 0.750000
vt 0.187500 0.750000
vt 0.156250 0.750000
vt 0.125000 0.687500
vt 0.125000 0.750000
vt 0.125000 0.625000
vt 0.437609 0.776733
vt 0.500000 0.774957
vt 0.500000 0.810764
vt 0.437500 0.811306
vt 0.562392 0.776734
vt 0.562500 0.811306
vt 0.500000 0.843533
vt 0.437500 0.843601
vt 0.562500 0.843601
vt 0.375000 0.781250
vt 0.625000 0.781250
vt 0.625000 0.812500
vt 0.625000 0.843750
vt 0.375000 0.843750
vt 0.375000 0.812500
vt 0.437500 0.276733
vt 0.500000 0.274957
vt 0.500000 0.310764
vt 0.437500 0.311306
vt 0.562500 0.276733
vt 0.562500 0.311306
vt 0.500000 0.343533
vt 0.437500 0.343601
vt 0.562500 0.343601
vt 0.375000 0.281250
vt 0.625000 0.281250
vt 0.625000 0.312500
vt 0.625000 0.343750
vt 0.375000 0.343750
vt 0.375000 0.312500
s 1
usemtl rock
f 73/1/1 74/2/2 77/3/3 76/4/4
f 74/2/2 75/5/5 78/6/6 77/3/3
f 76/4/4 77/3/3 80/7/7 79/8/8
f 77/3/3 78/6/6 81/9/9 80/7/7
f 1/10/10 16/11/11 73/1/1 15/12/12
f 16/11/11 17/13/13 74/2/2 73/1/1
f 17/13/13 18/14/14 75/5/5 74/2/2
f 18/14/14 2/15/15 19/16/16 75/5/5
f 75/5/5 19/16/16 20/17/17 78/6/6
f 78/6/6 20/17/17 21/18/18 81/9/9
f 81/9/9 21/18/18 4/19/19 22/20/20
f 80/7/7 81/9/9 22/20/20 23/21/21
f 79/8/8 80/7/7 23/21/21 24/22/22
f 13/23/23 79/8/8 24/22/22 3/24/24
f 14/25/25 76/4/4 79/8/8 13/23/23
f 15/12/12 73/1/1 76/4/4 14/25/25
f 82/26/26 83/27/27 86/28/28 85/29/29
f 83/27/27 84/30/30 87/31/31 86/28/28
f 85/29/29 86/28/28 89/32/32 88/33/33
f 86/28/28 87/31/31 90/34/34 89/32/32
f 9/35/35 72/36/36 82/26/26 51/37/37
f 72/36/36 71/38/38 83/27/27 82/26/26
f 71/38/38 70/39/39 84/30/30 83/27/27
f 70/39/39 10/40/40 28/41/41 84/30/30
f 84/30/30 28/41/41 29/42/42 87/31/31
f 87/31/31 29/42/42 30/43/43 90/34/34
f 90/34/34 30/43/43 8/44/44 31/45/45
f 89/32/32 90/34/34 31/45/45 32/46/46
f 88/33/33 89/32/32 32/46/46 33/47/47
f 49/48/48 88/33/33 33/47/47 7/49/49
f 50/50/50 85/29/29 88/33/33 49/48/48
f 51/37/37 82/26/26 85/29/29 50/50/50
f 91/51/51 92/52/52 95/53/53 94/54/54
f 92/52/52 93/55/55 96/56/56 95/53/53
f 94/54/54 95/53/53 98/57/57 97/58/58
f 95/53/53 96/56/56 99/59/59 98/57/57
f 7/49/49 33/47/47 91/51/51 36/60/60
f 33/47/47 32/46/46 92/52/52 91/51/51
f 32/46/46 31/45/45 93/55/55 92/52/52
f 31/45/45 8/44/44 37/61/61 93/55/55
f 93/55/55 37/61/61 38/62/62 96/56/56
f 96/56/56 38/62/62 39/63/63 99/59/59
f 99/59/59 39/63/63 6/64/64 40/65/65
f 98/57/57 99/59/59 40/65/65 41/66/66
f 97/58/58 98/57/57 41/66/66 42/67/67
f 34/68/68 97/58/58 42/67/67 5/69/69
f 35/70/70 94/54/54 97/58/58 34/68/68
f 36/60/60 91/51/51 94/54/54 35/70/70
f 100/71/71 101/72/72 104/73/73 103/74/74
f 101/72/72 102/75/75 105/76/76 104/73/73
f 103/74/74 104/73/73 107/77/77 106/78/78
f 104/73/73 105/76/76 108/79/79 107/77/77
f 11/80/80 69/81/81 100/71/71 57/82/82
f 69/81/81 68/83/83 101/72/72 100/71/71
f 68/83/83 67/84/84 102/75/75 101/72/72
f 67/84/84 12/85/85 46/86/86 102/75/75
f 102/75/75 46/86/86 47/87/87 105/76/76
f 105/76/76 47/87/87 48/88/88 108/79/79
f 108/79/79 48/88/88 2/89/15 18/90/14
f 107/77/77 108/79/79 18/90/14 17/91/13
f 106/78/78 107/77/77 17/91/13 16/92/11
f 55/93/89 106/78/78 16/92/11 1/94/10
f 56/95/90 103/74/74 106/78/78 55/93/89
f 57/82/82 100/71/71 103/74/74 56/95/90
f 109/96/91 110/97/92 113/98/93 112/99/94
f 110/97/92 111/100/95 114/101/96 113/98/93
f 112/99/94 113/98/93 116/102/97 115/103/98
f 113/98/93 114/101/96 117/104/99 116/102/97
f 9/105/35 51/106/37 109/96/91 64/107/100
f 51/106/37 50/108/50 110/97/92 109/96/91
f 50/108/50 49/109/48 111/100/95 110/97/92
f 49/109/48 7/49/49 36/60/60 111/100/95
f 111/100/95 36/60/60 35/70/70 114/101/96
f 114/101/96 35/70/70 34/68/68 117/104/99
f 117/104/99 34/68/68 5/69/69 45/110/101
f 116/102/97 117/104/99 45/110/101 44/111/102
f 115/103/98 116/102/97 44/111/102 43/112/103
f 66/113/104 115/103/98 43/112/103 11/114/80
f 65/115/105 112/99/94 115/103/98 66/113/104
f 64/107/100 109/96/91 112/99/94 65/115/105
f 118/116/106 119/117/107 122/118/108 121/119/109
f 119/117/107 120/120/110 123/121/111 122/118/108
f 121/119/109 122/118/108 125/122/112 124/123/113
f 122/118/108 123/121/111 126/124/114 125/122/112
f 10/125/40 54/126/115 118/116/106 61/127/116
f 54/126/115 53/128/117 119/117/107 118/116/106
f 53/128/117 52/129/118 120/120/110 119/117/107
f 52/129/118 4/130/19 21/131/18 120/120/110
f 120/120/110 21/131/18 20/132/17 123/121/111
f 123/121/111 20/132/17 19/133/16 126/124/114
f 126/124/114 19/133/16 2/134/15 48/135/88
f 125/122/112 126/124/114 48/135/88 47/136/87
f 124/123/113 125/122/112 47/136/87 46/137/86
f 63/138/119 124/123/113 46/137/86 12/139/85
f 62/140/120 121/119/109 124/123/113 63/138/119
f 61/127/116 118/116/106 121/119/109 62/140/120
f 127/141/121 128/142/122 131/143/123 130/144/124
f 128/142/122 129/145/125 132/146/126 131/143/123
f 130/144/124 131/143/123 134/147/127 133/148/128
f 131/143/123 132/146/126 135/149/129 134/147/127
f 8/44/44 30/150/43 127/141/121 37/61/61
f 30/150/43 29/151/42 128/142/122 127/141/121
f 29/151/42 28/152/41 129/145/125 128/142/122
f 28/152/41 10/125/40 61/127/116 129/145/125
f 129/145/125 61/127/116 62/140/120 132/146/126
f 132/146/126 62/140/120 63/138/119 135/149/129
f 135/149/129 63/138/119 12/139/85 60/153/130
f 134/147/127 135/149/129 60/153/130 59/154/131
f 133/148/128 134/147/127 59/154/131 58/155/132
f 39/63/63 133/148/128 58/155/132 6/64/64
f 38/62/62 130/144/124 133/148/128 39/63/63
f 37/61/61 127/141/121 130/144/124 38/62/62
f 136/156/133 137/157/134 140/158/135 139/159/136
f 137/157/134 138/160/137 141/161/138 140/158/135
f 139/159/136 140/158/135 143/162/139 142/163/140
f 140/158/135 141/161/138 144/164/141 143/162/139
f 3/165/24 27/166/142 136/156/133 13/167/23
f 27/166/142 26/168/143 137/157/134 136/156/133
f 26/168/143 25/169/144 138/160/137 137/157/134
f 25/169/144 9/105/35 64/107/100 138/160/137
f 138/160/137 64/107/100 65/115/105 141/161/138
f 141/161/138 65/115/105 66/113/104 144/164/141
f 144/164/141 66/113/104 11/114/80 57/170/82
f 143/162/139 144/164/141 57/170/82 56/171/90
f 142/163/140 143/162/139 56/171/90 55/172/89
f 15/173/12 142/163/140 55/172/89 1/174/10
f 14/175/25 139/159/136 142/163/140 15/173/12
f 13/167/23 136/156/133 139/159/136 14/175/25
f 145/176/145 146/177/146 149/178/147 148/179/148
f 146/177/146 147/180/149 150/181/150 149/178/147
f 148/179/148 149/178/147 152/182/151 151/183/152
f 149/178/147 150/181/150 153/184/153 152/182/151
f 5/69/69 42/67/67 145/176/145 45/185/101
f 42/67/67 41/66/66 146/177/146 145/176/145
f 41/66/66 40/65/65 147/180/149 146/177/146
f 40/65/65 6/64/64 58/186/132 147/180/149
f 147/180/149 58/186/132 59/187/131 150/181/150
f 150/181/150 59/187/131 60/188/130 153/184/153
f 153/184/153 60/188/130 12/85/85 67/84/84
f 152/182/151 153/184/153 67/84/84 68/83/83
f 151/183/152 152/182/151 68/83/83 69/81/81
f 43/189/103 151/183/152 69/81/81 11/80/80
f 44/190/102 148/179/148 151/183/152 43/189/103
f 45/185/101 145/176/145 148/179/148 44/190/102
f 154/191/154 155/192/155 158/193/156 157/194/157
f 155/192/155 156/195/158 159/196/159 158/193/156
f 157/194/157 158/193/156 161/197/160 160/198/161
f 158/193/156 159/196/159 162/199/162 161/197/160
f 3/24/24 24/22/22 154/191/154 27/200/142
f 24/22/22 23/21/21 155/192/155 154/191/154
f 23/21/21 22/20/20 156/195/158 155/192/155
f 22/20/20 4/19/19 52/201/118 156/195/158
f 156/195/158 52/201/118 53/202/117 159/196/159
f 159/196/159 53/202/117 54/203/115 162/199/162
f 162/199/162 54/203/115 10/40/40 70/39/39
f 161/197/160 162/199/162 70/39/39 71/38/38
f 160/198/161 161/197/160 71/38/38 72/36/36
f 25/204/144 160/198/161 72/36/36 9/35/35
f 26/205/143 157/194/157 160/198/161 25/204/144
f 27/200/142 154/191/154 157/194/157 26/205/143
