# Blender 4.0.1
# www.blender.org
mtllib ufo_light.mtl
o Circle.001
v -0.000000 20.449087 58.520927
v -2.334362 20.449087 58.985264
v -4.313339 20.449087 60.307571
v -5.635648 20.449087 62.286549
v -6.099982 20.449087 64.620911
v -5.635648 20.449087 66.955276
v -4.313339 20.449087 68.934250
v -2.334362 20.449087 70.256561
v -0.000000 20.449087 70.720894
v 2.334362 20.449087 70.256561
v 4.313337 20.449087 68.934250
v 5.635647 20.449087 66.955276
v 6.099980 20.449087 64.620911
v 5.635647 20.449087 62.286549
v 4.313337 20.449087 60.307571
v 2.334362 20.449087 58.985264
vn -0.0000 -1.0000 -0.0000
vt 1.456971 -0.721185
vt 1.456971 -0.843152
vt 1.410296 -0.955835
vt 1.324053 -1.042079
vt 1.211370 -1.088753
vt 1.089402 -1.088753
vt 0.976719 -1.042079
vt 0.890476 -0.955835
vt 0.843801 -0.843152
vt 0.843801 -0.721185
vt 0.890476 -0.608502
vt 0.976719 -0.522258
vt 1.089402 -0.475583
vt 1.211370 -0.475583
vt 1.324053 -0.522258
vt 1.410296 -0.608502
s 0
usemtl ufo
f 2/1/1 1/2/1 16/3/1 15/4/1 14/5/1 13/6/1 12/7/1 11/8/1 10/9/1 9/10/1 8/11/1 7/12/1 6/13/1 5/14/1 4/15/1 3/16/1
